Oxygen-IN.ufo
<glyph name="exclam" format="1">
  <advance width="616"/>
  <unicode hex="0021"/>
  <outline>
    <contour>
      <point x="407" y="1354" type="line"/>
      <point x="407" y="1496" type="line"/>
      <point x="210" y="1496" type="line"/>
      <point x="210" y="1354" type="line"/>
      <point x="272" y="435" type="line"/>
      <point x="351" y="435" type="line"/>
    </contour>
    <contour>
      <point x="309" y="-12" type="curve" smooth="yes"/>
      <point x="398" y="-12"/>
      <point x="442" y="54"/>
      <point x="442" y="120" type="curve" smooth="yes"/>
      <point x="442" y="186"/>
      <point x="398" y="252"/>
      <point x="309" y="252" type="curve" smooth="yes"/>
      <point x="221" y="252"/>
      <point x="176" y="186"/>
      <point x="176" y="120" type="curve" smooth="yes"/>
      <point x="176" y="54"/>
      <point x="221" y="-12"/>
    </contour>
  </outline>
</glyph>
<glyph name="quotedbl" format="1">
  <advance width="769"/>
  <unicode hex="0022"/>
  <outline>
    <contour>
      <point x="185" y="1016" type="line"/>
      <point x="286" y="1016" type="line"/>
      <point x="315" y="1510" type="line"/>
      <point x="164" y="1510" type="line"/>
    </contour>
    <contour>
      <point x="471" y="1016" type="line"/>
      <point x="572" y="1016" type="line"/>
      <point x="601" y="1510" type="line"/>
      <point x="450" y="1510" type="line"/>
    </contour>
  </outline>
</glyph>
<glyph name="dollar" format="1">
  <advance width="486"/>
  <unicode hex="0024"/>
  <outline>
    <contour>
      <point x="196" y="-195" type="line"/>
      <point x="291" y="-195" type="line"/>
      <point x="291" y="1693" type="line"/>
      <point x="196" y="1693" type="line"/>
    </contour>
    <component base="S"/>
  </outline>
</glyph>
<glyph name="percent" format="1">
  <advance width="1989"/>
  <unicode hex="0025"/>
  <outline>
    <contour>
      <point x="470" y="844" type="curve" smooth="yes"/>
      <point x="345" y="844"/>
      <point x="280" y="957"/>
      <point x="280" y="1104" type="curve" smooth="yes"/>
      <point x="280" y="1245"/>
      <point x="343" y="1378"/>
      <point x="470" y="1378" type="curve" smooth="yes"/>
      <point x="594" y="1378"/>
      <point x="661" y="1250"/>
      <point x="661" y="1104" type="curve" smooth="yes"/>
      <point x="661" y="964"/>
      <point x="597" y="844"/>
    </contour>
    <contour>
      <point x="470" y="728" type="curve" smooth="yes"/>
      <point x="665" y="728"/>
      <point x="790" y="888"/>
      <point x="790" y="1104" type="curve" smooth="yes"/>
      <point x="790" y="1325"/>
      <point x="666" y="1489"/>
      <point x="470" y="1489" type="curve" smooth="yes"/>
      <point x="275" y="1489"/>
      <point x="153" y="1322"/>
      <point x="153" y="1104" type="curve" smooth="yes"/>
      <point x="153" y="888"/>
      <point x="274" y="728"/>
    </contour>
    <contour>
      <point x="451" y="-4" type="line"/>
      <point x="586" y="-4" type="line"/>
      <point x="1408" y="1462" type="line"/>
      <point x="1246" y="1462" type="line"/>
    </contour>
    <contour>
      <point x="1481" y="98" type="curve" smooth="yes"/>
      <point x="1333" y="98"/>
      <point x="1255" y="223"/>
      <point x="1255" y="369" type="curve" smooth="yes"/>
      <point x="1255" y="510"/>
      <point x="1331" y="640"/>
      <point x="1481" y="640" type="curve" smooth="yes"/>
      <point x="1629" y="640"/>
      <point x="1707" y="515"/>
      <point x="1707" y="369" type="curve" smooth="yes"/>
      <point x="1707" y="228"/>
      <point x="1631" y="98"/>
    </contour>
    <contour>
      <point x="1481" y="-15" type="curve" smooth="yes"/>
      <point x="1710" y="-15"/>
      <point x="1834" y="153"/>
      <point x="1834" y="369" type="curve" smooth="yes"/>
      <point x="1834" y="590"/>
      <point x="1713" y="754"/>
      <point x="1481" y="754" type="curve" smooth="yes"/>
      <point x="1253" y="754"/>
      <point x="1129" y="587"/>
      <point x="1129" y="369" type="curve" smooth="yes"/>
      <point x="1129" y="153"/>
      <point x="1250" y="-15"/>
    </contour>
  </outline>
</glyph>
<glyph name="ampersand" format="1">
  <advance width="1612"/>
  <unicode hex="0026"/>
  <outline>
    <contour>
      <point x="681" y="-23" type="curve" smooth="yes"/>
      <point x="881" y="-23"/>
      <point x="1037" y="43"/>
      <point x="1161" y="143" type="curve"/>
      <point x="1297" y="-11" type="line"/>
      <point x="1348" y="4"/>
      <point x="1403" y="22"/>
      <point x="1454" y="41" type="curve"/>
      <point x="1273" y="257" type="line"/>
      <point x="1337" y="332"/>
      <point x="1392" y="419"/>
      <point x="1432" y="507" type="curve"/>
      <point x="1311" y="599" type="line"/>
      <point x="1275" y="518"/>
      <point x="1226" y="435"/>
      <point x="1169" y="375" type="curve"/>
      <point x="768" y="804" type="line"/>
      <point x="957" y="892"/>
      <point x="1107" y="1006"/>
      <point x="1107" y="1182" type="curve" smooth="yes"/>
      <point x="1107" y="1389"/>
      <point x="922" y="1489"/>
      <point x="718" y="1489" type="curve" smooth="yes"/>
      <point x="482" y="1489"/>
      <point x="329" y="1365"/>
      <point x="329" y="1165" type="curve" smooth="yes"/>
      <point x="329" y="1034"/>
      <point x="399" y="952"/>
      <point x="502" y="839" type="curve"/>
      <point x="302" y="738"/>
      <point x="165" y="612"/>
      <point x="165" y="395" type="curve" smooth="yes"/>
      <point x="165" y="138"/>
      <point x="338" y="-23"/>
    </contour>
    <contour>
      <point x="690" y="132" type="curve" smooth="yes"/>
      <point x="471" y="132"/>
      <point x="342" y="235"/>
      <point x="342" y="406" type="curve" smooth="yes"/>
      <point x="342" y="554"/>
      <point x="453" y="649"/>
      <point x="605" y="726" type="curve"/>
      <point x="754" y="567"/>
      <point x="897" y="418"/>
      <point x="1046" y="259" type="curve"/>
      <point x="949" y="182"/>
      <point x="833" y="132"/>
    </contour>
    <contour>
      <point x="666" y="910" type="curve"/>
      <point x="578" y="995"/>
      <point x="516" y="1066"/>
      <point x="516" y="1165" type="curve" smooth="yes"/>
      <point x="516" y="1280"/>
      <point x="599" y="1345"/>
      <point x="721" y="1345" type="curve" smooth="yes"/>
      <point x="826" y="1345"/>
      <point x="919" y="1287"/>
      <point x="919" y="1171" type="curve" smooth="yes"/>
      <point x="919" y="1043"/>
      <point x="802" y="977"/>
    </contour>
  </outline>
</glyph>
<glyph name="quotesingle" format="1">
  <advance width="469"/>
  <unicode hex="0027"/>
  <outline>
    <contour>
      <point x="175" y="975" type="line"/>
      <point x="290" y="975" type="line"/>
      <point x="310" y="1486" type="line"/>
      <point x="154" y="1486" type="line"/>
    </contour>
  </outline>
</glyph>
<glyph name="parenleft" format="1">
  <advance width="738"/>
  <unicode hex="0028"/>
  <outline>
    <contour>
      <point x="451" y="-271" type="curve"/>
      <point x="604" y="-271" type="line"/>
      <point x="441" y="-21"/>
      <point x="346" y="301"/>
      <point x="346" y="602" type="curve" smooth="yes"/>
      <point x="346" y="919"/>
      <point x="436" y="1224"/>
      <point x="604" y="1486" type="curve"/>
      <point x="449" y="1486" type="line"/>
      <point x="277" y="1235"/>
      <point x="176" y="934"/>
      <point x="176" y="598" type="curve" smooth="yes"/>
      <point x="176" y="271"/>
      <point x="282" y="-38"/>
    </contour>
  </outline>
</glyph>
<glyph name="parenright" format="1">
  <advance width="734"/>
  <unicode hex="0029"/>
  <outline>
    <contour>
      <point x="130" y="-271" type="curve"/>
      <point x="282" y="-271" type="line"/>
      <point x="450" y="-38"/>
      <point x="558" y="269"/>
      <point x="558" y="598" type="curve" smooth="yes"/>
      <point x="558" y="932"/>
      <point x="455" y="1234"/>
      <point x="284" y="1486" type="curve"/>
      <point x="129" y="1486" type="line"/>
      <point x="297" y="1224"/>
      <point x="388" y="919"/>
      <point x="388" y="602" type="curve" smooth="yes"/>
      <point x="388" y="300"/>
      <point x="292" y="-22"/>
    </contour>
  </outline>
</glyph>
<glyph name="asterisk" format="1">
  <advance width="1243"/>
  <unicode hex="002A"/>
  <outline>
    <contour>
      <point x="205" y="1262" type="line"/>
      <point x="155" y="1091" type="line"/>
      <point x="518" y="1008" type="line"/>
      <point x="270" y="675" type="line"/>
      <point x="426" y="581" type="line"/>
      <point x="615" y="943" type="line"/>
      <point x="815" y="581" type="line"/>
      <point x="866" y="614"/>
      <point x="918" y="642"/>
      <point x="969" y="675" type="curve"/>
      <point x="887" y="786"/>
      <point x="758" y="953"/>
      <point x="717" y="1008" type="curve"/>
      <point x="1084" y="1091" type="line"/>
      <point x="1034" y="1262" type="line"/>
      <point x="675" y="1111" type="line"/>
      <point x="711" y="1522" type="line"/>
      <point x="525" y="1522" type="line"/>
      <point x="562" y="1111" type="line"/>
    </contour>
  </outline>
</glyph>
<glyph name="comma" format="1">
  <advance width="565"/>
  <unicode hex="002C"/>
  <outline>
    <contour>
      <point x="154" y="-278" type="curve"/>
      <point x="259" y="-278" type="line"/>
      <point x="311" y="-130"/>
      <point x="368" y="49"/>
      <point x="403" y="190" type="curve"/>
      <point x="403" y="234" type="line"/>
      <point x="206" y="234" type="line"/>
      <point x="198" y="92"/>
      <point x="170" y="-129"/>
    </contour>
  </outline>
</glyph>
<glyph name="hyphen" format="1">
  <advance width="824"/>
  <unicode hex="002D"/>
  <outline>
    <contour>
      <point x="161" y="497" type="line"/>
      <point x="661" y="497" type="line"/>
      <point x="661" y="644" type="line"/>
      <point x="161" y="644" type="line"/>
    </contour>
  </outline>
</glyph>
<glyph name="period" format="1">
  <advance width="585"/>
  <unicode hex="002E"/>
  <outline>
    <contour>
      <point x="293" y="-12" type="curve" smooth="yes"/>
      <point x="382" y="-12"/>
      <point x="426" y="54"/>
      <point x="426" y="120" type="curve" smooth="yes"/>
      <point x="426" y="186"/>
      <point x="382" y="252"/>
      <point x="293" y="252" type="curve" smooth="yes"/>
      <point x="204" y="252"/>
      <point x="160" y="186"/>
      <point x="160" y="120" type="curve" smooth="yes"/>
      <point x="160" y="54"/>
      <point x="205" y="-12"/>
    </contour>
  </outline>
</glyph>
<glyph name="zero" format="1">
  <advance width="1374"/>
  <unicode hex="0030"/>
  <outline>
    <contour>
      <point x="688" y="129" type="curve" smooth="yes"/>
      <point x="480" y="129"/>
      <point x="367" y="394"/>
      <point x="367" y="757" type="curve" smooth="yes"/>
      <point x="367" y="1113"/>
      <point x="480" y="1373"/>
      <point x="688" y="1373" type="curve" smooth="yes"/>
      <point x="896" y="1373"/>
      <point x="1009" y="1113"/>
      <point x="1009" y="757" type="curve" smooth="yes"/>
      <point x="1009" y="394"/>
      <point x="896" y="129"/>
    </contour>
    <contour>
      <point x="688" y="-23" type="curve" smooth="yes"/>
      <point x="1052" y="-23"/>
      <point x="1198" y="312"/>
      <point x="1198" y="751" type="curve" smooth="yes"/>
      <point x="1198" y="1210"/>
      <point x="1037" y="1525"/>
      <point x="688" y="1525" type="curve" smooth="yes"/>
      <point x="339" y="1525"/>
      <point x="175" y="1210"/>
      <point x="175" y="751" type="curve" smooth="yes"/>
      <point x="175" y="312"/>
      <point x="324" y="-23"/>
    </contour>
  </outline>
</glyph>
<glyph name="one" format="1">
  <advance width="752"/>
  <unicode hex="0031"/>
  <outline>
    <contour>
      <point x="382" y="1311" type="curve"/>
      <point x="382" y="0" type="line"/>
      <point x="559" y="0" type="line"/>
      <point x="559" y="1496" type="line"/>
      <point x="400" y="1496" type="line"/>
      <point x="321" y="1440"/>
      <point x="223" y="1404"/>
      <point x="135" y="1365" type="curve"/>
      <point x="135" y="1198" type="line"/>
      <point x="207" y="1221"/>
      <point x="303" y="1259"/>
    </contour>
  </outline>
</glyph>
<glyph name="three" format="1">
  <advance width="1226"/>
  <unicode hex="0033"/>
  <outline>
    <contour>
      <point x="548" y="-23" type="curve" smooth="yes"/>
      <point x="838" y="-23"/>
      <point x="1051" y="143"/>
      <point x="1051" y="410" type="curve" smooth="yes"/>
      <point x="1051" y="620"/>
      <point x="935" y="757"/>
      <point x="752" y="797" type="curve"/>
      <point x="914" y="847"/>
      <point x="1015" y="964"/>
      <point x="1015" y="1156" type="curve" smooth="yes"/>
      <point x="1015" y="1395"/>
      <point x="807" y="1525"/>
      <point x="586" y="1525" type="curve" smooth="yes"/>
      <point x="379" y="1525"/>
      <point x="248" y="1481"/>
      <point x="157" y="1412" type="curve"/>
      <point x="213" y="1266" type="line"/>
      <point x="292" y="1329"/>
      <point x="411" y="1373"/>
      <point x="548" y="1373" type="curve" smooth="yes"/>
      <point x="725" y="1373"/>
      <point x="823" y="1298"/>
      <point x="823" y="1133" type="curve" smooth="yes"/>
      <point x="823" y="914"/>
      <point x="635" y="876"/>
      <point x="425" y="871" type="curve" smooth="yes"/>
      <point x="408" y="871"/>
      <point x="392" y="871"/>
      <point x="375" y="871" type="curve"/>
      <point x="375" y="722" type="line"/>
      <point x="395" y="722"/>
      <point x="415" y="722"/>
      <point x="435" y="721" type="curve" smooth="yes"/>
      <point x="685" y="715"/>
      <point x="876" y="662"/>
      <point x="876" y="412" type="curve" smooth="yes"/>
      <point x="876" y="230"/>
      <point x="745" y="129"/>
      <point x="549" y="129" type="curve" smooth="yes"/>
      <point x="398" y="129"/>
      <point x="288" y="181"/>
      <point x="213" y="240" type="curve"/>
      <point x="157" y="93" type="line"/>
      <point x="213" y="40"/>
      <point x="354" y="-23"/>
    </contour>
  </outline>
</glyph>
<glyph name="four" format="1">
  <advance width="1339"/>
  <unicode hex="0034"/>
  <outline>
    <contour>
      <point x="808" y="1496" type="line"/>
      <point x="151" y="524" type="line"/>
      <point x="151" y="371" type="line"/>
      <point x="827" y="371" type="line"/>
      <point x="827" y="0" type="line"/>
      <point x="995" y="0" type="line"/>
      <point x="995" y="371" type="line"/>
      <point x="1165" y="371" type="line"/>
      <point x="1179" y="516" type="line"/>
      <point x="995" y="516" type="line"/>
      <point x="995" y="1496" type="line"/>
    </contour>
    <contour>
      <point x="827" y="516" type="line"/>
      <point x="327" y="516" type="line"/>
      <point x="827" y="1269" type="line"/>
    </contour>
  </outline>
</glyph>
<glyph name="five" format="1">
  <advance width="1282"/>
  <unicode hex="0035"/>
  <outline>
    <contour>
      <point x="569" y="-23" type="curve" smooth="yes"/>
      <point x="906" y="-23"/>
      <point x="1110" y="178"/>
      <point x="1110" y="477" type="curve" smooth="yes"/>
      <point x="1110" y="731"/>
      <point x="958" y="933"/>
      <point x="655" y="933" type="curve" smooth="yes"/>
      <point x="571" y="933"/>
      <point x="490" y="912"/>
      <point x="410" y="861" type="curve"/>
      <point x="414" y="1006"/>
      <point x="420" y="1187"/>
      <point x="425" y="1332" type="curve"/>
      <point x="1036" y="1332" type="line"/>
      <point x="1050" y="1496" type="line"/>
      <point x="283" y="1496" type="line"/>
      <point x="244" y="696" type="line"/>
      <point x="383" y="677" type="line"/>
      <point x="446" y="746"/>
      <point x="526" y="776"/>
      <point x="621" y="776" type="curve" smooth="yes"/>
      <point x="824" y="776"/>
      <point x="929" y="648"/>
      <point x="929" y="475" type="curve" smooth="yes"/>
      <point x="929" y="279"/>
      <point x="797" y="139"/>
      <point x="575" y="139" type="curve" smooth="yes"/>
      <point x="409" y="139"/>
      <point x="296" y="205"/>
      <point x="232" y="255" type="curve"/>
      <point x="167" y="114" type="line"/>
      <point x="256" y="33"/>
      <point x="394" y="-23"/>
    </contour>
  </outline>
</glyph>
<glyph name="six" format="1">
  <advance width="1330"/>
  <unicode hex="0036"/>
  <outline>
    <contour>
      <point x="666" y="-23" type="curve" smooth="yes"/>
      <point x="972" y="-23"/>
      <point x="1166" y="182"/>
      <point x="1166" y="449" type="curve" smooth="yes"/>
      <point x="1166" y="725"/>
      <point x="948" y="921"/>
      <point x="696" y="921" type="curve" smooth="yes"/>
      <point x="616" y="921"/>
      <point x="535" y="895"/>
      <point x="471" y="861" type="curve"/>
      <point x="997" y="1489" type="line"/>
      <point x="766" y="1489" type="line"/>
      <point x="766" y="1489"/>
      <point x="522" y="1197"/>
      <point x="437" y="1089" type="curve" smooth="yes"/>
      <point x="237" y="837"/>
      <point x="162" y="697"/>
      <point x="162" y="472" type="curve" smooth="yes"/>
      <point x="162" y="202"/>
      <point x="346" y="-23"/>
    </contour>
    <contour>
      <point x="660" y="129" type="curve" smooth="yes"/>
      <point x="454" y="129"/>
      <point x="351" y="280"/>
      <point x="351" y="453" type="curve" smooth="yes"/>
      <point x="351" y="625"/>
      <point x="438" y="771"/>
      <point x="660" y="771" type="curve" smooth="yes"/>
      <point x="862" y="771"/>
      <point x="977" y="630"/>
      <point x="977" y="446" type="curve" smooth="yes"/>
      <point x="977" y="274"/>
      <point x="865" y="129"/>
    </contour>
  </outline>
</glyph>
<glyph name="seven" format="1">
  <advance width="1120"/>
  <unicode hex="0037"/>
  <outline>
    <contour>
      <point x="989" y="1496" type="line"/>
      <point x="122" y="1496" type="line"/>
      <point x="111" y="1341" type="line"/>
      <point x="786" y="1341" type="line"/>
      <point x="272" y="0" type="line"/>
      <point x="454" y="0" type="line"/>
      <point x="989" y="1360" type="line"/>
    </contour>
  </outline>
</glyph>
<glyph name="eight" format="1">
  <advance width="1328"/>
  <unicode hex="0038"/>
  <outline>
    <contour>
      <point x="667" y="-23" type="curve" smooth="yes"/>
      <point x="934" y="-23"/>
      <point x="1153" y="119"/>
      <point x="1153" y="385" type="curve" smooth="yes"/>
      <point x="1153" y="577"/>
      <point x="1043" y="724"/>
      <point x="864" y="788" type="curve"/>
      <point x="1021" y="849"/>
      <point x="1122" y="966"/>
      <point x="1122" y="1148" type="curve" smooth="yes"/>
      <point x="1122" y="1389"/>
      <point x="931" y="1525"/>
      <point x="667" y="1525" type="curve" smooth="yes"/>
      <point x="402" y="1525"/>
      <point x="207" y="1389"/>
      <point x="207" y="1148" type="curve" smooth="yes"/>
      <point x="207" y="966"/>
      <point x="314" y="849"/>
      <point x="487" y="788" type="curve"/>
      <point x="292" y="724"/>
      <point x="176" y="577"/>
      <point x="176" y="385" type="curve" smooth="yes"/>
      <point x="176" y="119"/>
      <point x="400" y="-23"/>
    </contour>
    <contour>
      <point x="667" y="129" type="curve" smooth="yes"/>
      <point x="488" y="129"/>
      <point x="352" y="230"/>
      <point x="352" y="397" type="curve" smooth="yes"/>
      <point x="352" y="562"/>
      <point x="488" y="662"/>
      <point x="667" y="703" type="curve"/>
      <point x="846" y="662"/>
      <point x="977" y="562"/>
      <point x="977" y="397" type="curve" smooth="yes"/>
      <point x="977" y="230"/>
      <point x="846" y="129"/>
    </contour>
    <contour>
      <point x="667" y="853" type="curve"/>
      <point x="484" y="894"/>
      <point x="384" y="993"/>
      <point x="384" y="1152" type="curve" smooth="yes"/>
      <point x="384" y="1296"/>
      <point x="519" y="1373"/>
      <point x="667" y="1373" type="curve" smooth="yes"/>
      <point x="815" y="1373"/>
      <point x="946" y="1296"/>
      <point x="946" y="1152" type="curve" smooth="yes"/>
      <point x="946" y="993"/>
      <point x="850" y="894"/>
    </contour>
  </outline>
</glyph>
<glyph name="nine" format="1">
  <advance width="1329"/>
  <unicode hex="0039"/>
  <outline>
    <contour>
      <point x="855" y="658" type="curve"/>
      <point x="324" y="0" type="line"/>
      <point x="544" y="0" type="line"/>
      <point x="544" y="0"/>
      <point x="849" y="375"/>
      <point x="946" y="504" type="curve" smooth="yes"/>
      <point x="1100" y="712"/>
      <point x="1164" y="844"/>
      <point x="1164" y="1042" type="curve" smooth="yes"/>
      <point x="1164" y="1312"/>
      <point x="986" y="1525"/>
      <point x="666" y="1525" type="curve" smooth="yes"/>
      <point x="360" y="1525"/>
      <point x="160" y="1320"/>
      <point x="160" y="1053" type="curve" smooth="yes"/>
      <point x="160" y="777"/>
      <point x="378" y="598"/>
      <point x="630" y="598" type="curve" smooth="yes"/>
      <point x="710" y="598"/>
      <point x="791" y="624"/>
    </contour>
    <contour>
      <point x="666" y="748" type="curve" smooth="yes"/>
      <point x="464" y="748"/>
      <point x="349" y="872"/>
      <point x="349" y="1056" type="curve" smooth="yes"/>
      <point x="349" y="1228"/>
      <point x="467" y="1373"/>
      <point x="672" y="1373" type="curve" smooth="yes"/>
      <point x="878" y="1373"/>
      <point x="975" y="1234"/>
      <point x="975" y="1061" type="curve" smooth="yes"/>
      <point x="975" y="889"/>
      <point x="888" y="748"/>
    </contour>
  </outline>
</glyph>
<glyph name="colon" format="1">
  <advance width="559"/>
  <unicode hex="003A"/>
  <outline>
    <contour>
      <point x="177" y="-25" type="line"/>
      <point x="383" y="-25" type="line"/>
      <point x="383" y="208" type="line"/>
      <point x="177" y="208" type="line"/>
    </contour>
    <contour>
      <point x="177" y="893" type="line"/>
      <point x="383" y="893" type="line"/>
      <point x="383" y="1124" type="line"/>
      <point x="177" y="1124" type="line"/>
    </contour>
  </outline>
</glyph>
<glyph name="equal" format="1">
  <advance width="1313"/>
  <unicode hex="003D"/>
  <outline>
    <contour>
      <point x="174" y="377" type="line"/>
      <point x="1139" y="377" type="line"/>
      <point x="1139" y="519" type="line"/>
      <point x="174" y="519" type="line"/>
    </contour>
    <contour>
      <point x="173" y="799" type="line"/>
      <point x="1139" y="799" type="line"/>
      <point x="1139" y="943" type="line"/>
      <point x="173" y="943" type="line"/>
    </contour>
  </outline>
</glyph>
<glyph name="greater" format="1">
  <advance width="1276"/>
  <unicode hex="003E"/>
  <outline>
    <contour>
      <point x="165" y="1200" type="line"/>
      <point x="165" y="1044" type="line"/>
      <point x="937" y="658" type="line"/>
      <point x="163" y="311" type="line"/>
      <point x="163" y="152" type="line"/>
      <point x="1123" y="604" type="line"/>
      <point x="1123" y="701" type="line"/>
    </contour>
  </outline>
</glyph>
<glyph name="question" format="1">
  <advance width="966"/>
  <unicode hex="003F"/>
  <outline>
    <contour>
      <point x="366" y="435" type="curve"/>
      <point x="453" y="435" type="line"/>
      <point x="603" y="770"/>
      <point x="814" y="927"/>
      <point x="814" y="1200" type="curve" smooth="yes"/>
      <point x="814" y="1408"/>
      <point x="663" y="1524"/>
      <point x="453" y="1524" type="curve" smooth="yes"/>
      <point x="342" y="1524"/>
      <point x="212" y="1498"/>
      <point x="122" y="1427" type="curve"/>
      <point x="167" y="1292" type="line"/>
      <point x="215" y="1322"/>
      <point x="306" y="1373"/>
      <point x="426" y="1373" type="curve" smooth="yes"/>
      <point x="559" y="1373"/>
      <point x="649" y="1318"/>
      <point x="651" y="1186" type="curve" smooth="yes"/>
      <point x="651" y="989"/>
      <point x="366" y="668"/>
    </contour>
    <contour>
      <point x="424" y="-12" type="curve" smooth="yes"/>
      <point x="513" y="-12"/>
      <point x="557" y="54"/>
      <point x="557" y="120" type="curve" smooth="yes"/>
      <point x="557" y="186"/>
      <point x="513" y="252"/>
      <point x="424" y="252" type="curve" smooth="yes"/>
      <point x="336" y="252"/>
      <point x="291" y="186"/>
      <point x="291" y="120" type="curve" smooth="yes"/>
      <point x="291" y="54"/>
      <point x="336" y="-12"/>
    </contour>
  </outline>
</glyph>
<glyph name="at" format="1">
  <advance width="1929"/>
  <unicode hex="0040"/>
  <outline>
    <contour>
      <point x="943" y="-131" type="curve" smooth="yes"/>
      <point x="1131" y="-131"/>
      <point x="1299" y="-88"/>
      <point x="1425" y="-3" type="curve"/>
      <point x="1390" y="108" type="line"/>
      <point x="1259" y="33"/>
      <point x="1106" y="-5"/>
      <point x="944" y="-5" type="curve" smooth="yes"/>
      <point x="560" y="-5"/>
      <point x="303" y="236"/>
      <point x="303" y="649" type="curve" smooth="yes"/>
      <point x="303" y="1064"/>
      <point x="591" y="1368"/>
      <point x="1000" y="1368" type="curve" smooth="yes"/>
      <point x="1365" y="1368"/>
      <point x="1630" y="1151"/>
      <point x="1630" y="791" type="curve" smooth="yes"/>
      <point x="1630" y="558"/>
      <point x="1493" y="381"/>
      <point x="1364" y="381" type="curve" smooth="yes"/>
      <point x="1292" y="381"/>
      <point x="1253" y="426"/>
      <point x="1253" y="523" type="curve" smooth="yes"/>
      <point x="1253" y="644"/>
      <point x="1290" y="846"/>
      <point x="1318" y="1044" type="curve"/>
      <point x="1233" y="1073"/>
      <point x="1109" y="1099"/>
      <point x="1014" y="1099" type="curve" smooth="yes"/>
      <point x="744" y="1099"/>
      <point x="596" y="881"/>
      <point x="596" y="616" type="curve" smooth="yes"/>
      <point x="596" y="401"/>
      <point x="707" y="268"/>
      <point x="880" y="268" type="curve" smooth="yes"/>
      <point x="1010" y="268"/>
      <point x="1103" y="366"/>
      <point x="1148" y="430" type="curve"/>
      <point x="1163" y="321"/>
      <point x="1241" y="259"/>
      <point x="1348" y="259" type="curve" smooth="yes"/>
      <point x="1553" y="259"/>
      <point x="1761" y="460"/>
      <point x="1761" y="784" type="curve" smooth="yes"/>
      <point x="1761" y="1216"/>
      <point x="1437" y="1492"/>
      <point x="1009" y="1492" type="curve" smooth="yes"/>
      <point x="516" y="1492"/>
      <point x="169" y="1126"/>
      <point x="169" y="645" type="curve" smooth="yes"/>
      <point x="169" y="163"/>
      <point x="480" y="-131"/>
    </contour>
    <contour>
      <point x="899" y="396" type="curve" smooth="yes"/>
      <point x="788" y="396"/>
      <point x="738" y="482"/>
      <point x="738" y="609" type="curve" smooth="yes"/>
      <point x="738" y="810"/>
      <point x="825" y="978"/>
      <point x="1015" y="978" type="curve" smooth="yes"/>
      <point x="1063" y="978"/>
      <point x="1124" y="971"/>
      <point x="1161" y="958" type="curve"/>
      <point x="1153" y="882"/>
      <point x="1145" y="805"/>
      <point x="1135" y="730" type="curve" smooth="yes"/>
      <point x="1111" y="535"/>
      <point x="1048" y="396"/>
    </contour>
  </outline>
</glyph>
<glyph name="A" format="1">
  <advance width="1539"/>
  <unicode hex="0041"/>
  <outline>
    <contour>
      <point x="1002" y="617" type="curve"/>
      <point x="551" y="617" type="line"/>
      <point x="551" y="617"/>
      <point x="749" y="1237"/>
      <point x="769" y="1303" type="curve"/>
      <point x="791" y="1227"/>
      <point x="1002" y="617"/>
    </contour>
    <contour>
      <point x="1228" y="0" type="line"/>
      <point x="1409" y="0" type="line"/>
      <point x="878" y="1479" type="line"/>
      <point x="661" y="1479" type="line"/>
      <point x="129" y="0" type="line"/>
      <point x="320" y="0" type="line"/>
      <point x="493" y="472" type="line"/>
      <point x="1058" y="472" type="line"/>
    </contour>
  </outline>
</glyph>
<glyph name="C" format="1">
  <advance width="1435"/>
  <unicode hex="0043"/>
  <outline>
    <contour>
      <point x="866" y="-22" type="curve" smooth="yes"/>
      <point x="1037" y="-22"/>
      <point x="1169" y="9"/>
      <point x="1269" y="72" type="curve"/>
      <point x="1240" y="219" type="line"/>
      <point x="1133" y="167"/>
      <point x="1012" y="130"/>
      <point x="886" y="130" type="curve" smooth="yes"/>
      <point x="522" y="130"/>
      <point x="356" y="389"/>
      <point x="356" y="738" type="curve" smooth="yes"/>
      <point x="356" y="1089"/>
      <point x="540" y="1352"/>
      <point x="882" y="1352" type="curve" smooth="yes"/>
      <point x="1014" y="1352"/>
      <point x="1134" y="1312"/>
      <point x="1232" y="1253" type="curve"/>
      <point x="1300" y="1394" type="line"/>
      <point x="1191" y="1464"/>
      <point x="1055" y="1504"/>
      <point x="880" y="1504" type="curve" smooth="yes"/>
      <point x="436" y="1504"/>
      <point x="171" y="1190"/>
      <point x="171" y="745" type="curve" smooth="yes"/>
      <point x="171" y="289"/>
      <point x="412" y="-22"/>
    </contour>
  </outline>
</glyph>
<glyph name="D" format="1">
  <advance width="1582"/>
  <unicode hex="0044"/>
  <outline>
    <contour>
      <point x="629" y="151" type="curve" smooth="yes"/>
      <point x="387" y="151" type="line"/>
      <point x="387" y="1328" type="line"/>
      <point x="600" y="1328" type="line" smooth="yes"/>
      <point x="993" y="1328"/>
      <point x="1219" y="1162"/>
      <point x="1219" y="736" type="curve" smooth="yes"/>
      <point x="1219" y="347"/>
      <point x="1015" y="151"/>
    </contour>
    <contour>
      <point x="605" y="1479" type="curve" smooth="yes"/>
      <point x="195" y="1479" type="line"/>
      <point x="195" y="0" type="line"/>
      <point x="634" y="0" type="line" smooth="yes"/>
      <point x="1116" y="0"/>
      <point x="1411" y="252"/>
      <point x="1411" y="741" type="curve" smooth="yes"/>
      <point x="1411" y="1255"/>
      <point x="1090" y="1479"/>
    </contour>
  </outline>
</glyph>
<glyph name="E" format="1">
  <advance width="1268"/>
  <unicode hex="0045"/>
  <outline>
    <contour>
      <point x="387" y="1326" type="line"/>
      <point x="1084" y="1326" type="line"/>
      <point x="1091" y="1479" type="line"/>
      <point x="195" y="1479" type="line"/>
      <point x="195" y="0" type="line"/>
      <point x="1083" y="0" type="line"/>
      <point x="1091" y="153" type="line"/>
      <point x="387" y="153" type="line"/>
      <point x="387" y="691" type="line"/>
      <point x="1027" y="691" type="line"/>
      <point x="1027" y="842" type="line"/>
      <point x="387" y="842" type="line"/>
    </contour>
  </outline>
</glyph>
<glyph name="F" format="1">
  <advance width="1186"/>
  <unicode hex="0046"/>
  <outline>
    <contour>
      <point x="387" y="1326" type="line"/>
      <point x="1020" y="1326" type="line"/>
      <point x="1027" y="1479" type="line"/>
      <point x="195" y="1479" type="line"/>
      <point x="195" y="0" type="line"/>
      <point x="387" y="0" type="line"/>
      <point x="387" y="660" type="line"/>
      <point x="963" y="660" type="line"/>
      <point x="963" y="807" type="line"/>
      <point x="387" y="807" type="line"/>
    </contour>
  </outline>
</glyph>
<glyph name="G" format="1">
  <advance width="1572"/>
  <unicode hex="0047"/>
  <outline>
    <contour>
      <point x="879" y="-27" type="curve" smooth="yes"/>
      <point x="1081" y="-27"/>
      <point x="1233" y="-2"/>
      <point x="1387" y="58" type="curve"/>
      <point x="1387" y="765" type="line"/>
      <point x="882" y="765" type="line"/>
      <point x="876" y="614" type="line"/>
      <point x="1195" y="614" type="line"/>
      <point x="1195" y="154" type="line"/>
      <point x="1132" y="136"/>
      <point x="1020" y="123"/>
      <point x="907" y="123" type="curve" smooth="yes"/>
      <point x="531" y="123"/>
      <point x="363" y="374"/>
      <point x="363" y="738" type="curve" smooth="yes"/>
      <point x="363" y="1089"/>
      <point x="539" y="1352"/>
      <point x="907" y="1352" type="curve" smooth="yes"/>
      <point x="1041" y="1352"/>
      <point x="1181" y="1306"/>
      <point x="1287" y="1245" type="curve"/>
      <point x="1353" y="1388" type="line"/>
      <point x="1228" y="1463"/>
      <point x="1079" y="1504"/>
      <point x="905" y="1504" type="curve" smooth="yes"/>
      <point x="436" y="1504"/>
      <point x="171" y="1184"/>
      <point x="171" y="738" type="curve" smooth="yes"/>
      <point x="171" y="297"/>
      <point x="420" y="-27"/>
    </contour>
  </outline>
</glyph>
<glyph name="J" format="1">
  <advance width="769"/>
  <unicode hex="004A"/>
  <outline>
    <contour>
      <point x="192" y="-49" type="curve" smooth="yes"/>
      <point x="118" y="-49" type="line"/>
      <point x="139" y="-214" type="line"/>
      <point x="174" y="-214" type="line" smooth="yes"/>
      <point x="526" y="-214"/>
      <point x="576" y="-67"/>
      <point x="576" y="241" type="curve" smooth="yes"/>
      <point x="576" y="1479" type="line"/>
      <point x="384" y="1479" type="line"/>
      <point x="384" y="204" type="line" smooth="yes"/>
      <point x="384" y="56"/>
      <point x="374" y="-49"/>
    </contour>
  </outline>
</glyph>
<glyph name="M" format="1">
  <advance width="1860"/>
  <unicode hex="004D"/>
  <outline>
    <contour>
      <point x="1449" y="1479" type="line"/>
      <point x="932" y="301" type="line"/>
      <point x="419" y="1479" type="line"/>
      <point x="195" y="1479" type="line"/>
      <point x="195" y="0" type="line"/>
      <point x="363" y="0" type="line"/>
      <point x="363" y="886" type="line"/>
      <point x="350" y="1248" type="line"/>
      <point x="388" y="1147" type="line"/>
      <point x="848" y="91" type="line"/>
      <point x="1017" y="91" type="line"/>
      <point x="1469" y="1143" type="line"/>
      <point x="1506" y="1244" type="line"/>
      <point x="1499" y="890" type="line"/>
      <point x="1499" y="0" type="line"/>
      <point x="1667" y="0" type="line"/>
      <point x="1667" y="1479" type="line"/>
    </contour>
  </outline>
</glyph>
<glyph name="O" format="1">
  <advance width="1751"/>
  <unicode hex="004F"/>
  <outline>
    <contour>
      <point x="875" y="-22" type="curve" smooth="yes"/>
      <point x="1325" y="-22"/>
      <point x="1579" y="282"/>
      <point x="1579" y="733" type="curve" smooth="yes"/>
      <point x="1579" y="1200"/>
      <point x="1317" y="1501"/>
      <point x="876" y="1501" type="curve" smooth="yes"/>
      <point x="428" y="1501"/>
      <point x="171" y="1203"/>
      <point x="171" y="734" type="curve" smooth="yes"/>
      <point x="171" y="276"/>
      <point x="419" y="-22"/>
    </contour>
    <contour>
      <point x="875" y="130" type="curve" smooth="yes"/>
      <point x="526" y="130"/>
      <point x="363" y="383"/>
      <point x="363" y="733" type="curve" smooth="yes"/>
      <point x="363" y="1097"/>
      <point x="534" y="1349"/>
      <point x="876" y="1349" type="curve" smooth="yes"/>
      <point x="1218" y="1349"/>
      <point x="1387" y="1096"/>
      <point x="1387" y="733" type="curve" smooth="yes"/>
      <point x="1387" y="383"/>
      <point x="1225" y="130"/>
    </contour>
  </outline>
</glyph>
<glyph name="P" format="1">
  <advance width="1316"/>
  <unicode hex="0050"/>
  <outline>
    <contour>
      <point x="645" y="1479" type="curve" smooth="yes"/>
      <point x="195" y="1479" type="line"/>
      <point x="195" y="0" type="line"/>
      <point x="387" y="0" type="line"/>
      <point x="387" y="638" type="line"/>
      <point x="463" y="631"/>
      <point x="560" y="625"/>
      <point x="622" y="625" type="curve" smooth="yes"/>
      <point x="992" y="625"/>
      <point x="1155" y="798"/>
      <point x="1155" y="1076" type="curve" smooth="yes"/>
      <point x="1155" y="1345"/>
      <point x="929" y="1479"/>
    </contour>
    <contour>
      <point x="631" y="769" type="curve" smooth="yes"/>
      <point x="563" y="769"/>
      <point x="387" y="780"/>
      <point x="387" y="780" type="curve"/>
      <point x="387" y="1320" type="line"/>
      <point x="641" y="1320" type="line" smooth="yes"/>
      <point x="826" y="1320"/>
      <point x="963" y="1251"/>
      <point x="963" y="1073" type="curve" smooth="yes"/>
      <point x="963" y="875"/>
      <point x="873" y="769"/>
    </contour>
  </outline>
</glyph>
<glyph name="R" format="1">
  <advance width="1492"/>
  <unicode hex="0052"/>
  <outline>
    <contour>
      <point x="742" y="837" type="curve" smooth="yes"/>
      <point x="619" y="837"/>
      <point x="510" y="840"/>
      <point x="387" y="841" type="curve"/>
      <point x="387" y="1324" type="line"/>
      <point x="770" y="1324" type="line" smooth="yes"/>
      <point x="1003" y="1324"/>
      <point x="1091" y="1250"/>
      <point x="1091" y="1094" type="curve" smooth="yes"/>
      <point x="1091" y="918"/>
      <point x="1006" y="837"/>
    </contour>
    <contour>
      <point x="683" y="1479" type="curve" smooth="yes"/>
      <point x="195" y="1479" type="line"/>
      <point x="195" y="0" type="line"/>
      <point x="387" y="0" type="line"/>
      <point x="387" y="692" type="line"/>
      <point x="387" y="692"/>
      <point x="633" y="684"/>
      <point x="652" y="684" type="curve" smooth="yes"/>
      <point x="686" y="684"/>
      <point x="796" y="687"/>
      <point x="825" y="689" type="curve"/>
      <point x="856" y="638"/>
      <point x="892" y="552"/>
      <point x="931" y="464" type="curve" smooth="yes"/>
      <point x="1135" y="0" type="line"/>
      <point x="1335" y="0" type="line"/>
      <point x="1093" y="522" type="line" smooth="yes"/>
      <point x="1059" y="597"/>
      <point x="997" y="723"/>
      <point x="997" y="729" type="curve"/>
      <point x="1208" y="789"/>
      <point x="1283" y="912"/>
      <point x="1283" y="1097" type="curve" smooth="yes"/>
      <point x="1283" y="1434"/>
      <point x="1039" y="1479"/>
    </contour>
  </outline>
</glyph>
<glyph name="S" format="1">
  <advance width="1396"/>
  <unicode hex="0053"/>
  <outline>
    <contour>
      <point x="703" y="-22" type="curve" smooth="yes"/>
      <point x="1009" y="-22"/>
      <point x="1225" y="121"/>
      <point x="1225" y="432" type="curve" smooth="yes"/>
      <point x="1225" y="676"/>
      <point x="1076" y="784"/>
      <point x="852" y="838" type="curve" smooth="yes"/>
      <point x="571" y="906" type="line" smooth="yes"/>
      <point x="427" y="941"/>
      <point x="353" y="1004"/>
      <point x="353" y="1121" type="curve" smooth="yes"/>
      <point x="353" y="1289"/>
      <point x="483" y="1349"/>
      <point x="721" y="1349" type="curve" smooth="yes"/>
      <point x="883" y="1349"/>
      <point x="1008" y="1319"/>
      <point x="1112" y="1269" type="curve"/>
      <point x="1162" y="1404" type="line"/>
      <point x="1060" y="1468"/>
      <point x="898" y="1501"/>
      <point x="715" y="1501" type="curve" smooth="yes"/>
      <point x="387" y="1501"/>
      <point x="169" y="1400"/>
      <point x="169" y="1109" type="curve" smooth="yes"/>
      <point x="169" y="911"/>
      <point x="300" y="801"/>
      <point x="506" y="749" type="curve" smooth="yes"/>
      <point x="800" y="675" type="line" smooth="yes"/>
      <point x="990" y="627"/>
      <point x="1041" y="546"/>
      <point x="1041" y="426" type="curve" smooth="yes"/>
      <point x="1041" y="224"/>
      <point x="926" y="130"/>
      <point x="714" y="130" type="curve" smooth="yes"/>
      <point x="523" y="130"/>
      <point x="353" y="178"/>
      <point x="219" y="244" type="curve"/>
      <point x="167" y="100" type="line"/>
      <point x="258" y="44"/>
      <point x="443" y="-22"/>
    </contour>
  </outline>
</glyph>
<glyph name="T" format="1">
  <advance width="1264"/>
  <unicode hex="0054"/>
  <outline>
    <contour>
      <point x="1174" y="1479" type="line"/>
      <point x="86" y="1479" type="line"/>
      <point x="86" y="1326" type="line"/>
      <point x="534" y="1326" type="line"/>
      <point x="534" y="0" type="line"/>
      <point x="726" y="0" type="line"/>
      <point x="726" y="1326" type="line"/>
      <point x="1174" y="1326" type="line"/>
    </contour>
  </outline>
</glyph>
<glyph name="U" format="1">
  <advance width="1498"/>
  <unicode hex="0055"/>
  <outline>
    <contour>
      <point x="750" y="-22" type="curve" smooth="yes"/>
      <point x="1143" y="-22"/>
      <point x="1310" y="192"/>
      <point x="1310" y="519" type="curve" smooth="yes"/>
      <point x="1310" y="1479" type="line"/>
      <point x="1118" y="1479" type="line"/>
      <point x="1118" y="518" type="line" smooth="yes"/>
      <point x="1118" y="250"/>
      <point x="1008" y="130"/>
      <point x="750" y="130" type="curve" smooth="yes"/>
      <point x="485" y="130"/>
      <point x="382" y="250"/>
      <point x="382" y="518" type="curve" smooth="yes"/>
      <point x="382" y="1479" type="line"/>
      <point x="190" y="1479" type="line"/>
      <point x="190" y="521" type="line" smooth="yes"/>
      <point x="190" y="192"/>
      <point x="357" y="-22"/>
    </contour>
  </outline>
</glyph>
<glyph name="V" format="1">
  <advance width="1515"/>
  <unicode hex="0056"/>
  <outline>
    <contour>
      <point x="1197" y="1479" type="curve"/>
      <point x="1395" y="1479" type="line"/>
      <point x="845" y="0" type="line"/>
      <point x="665" y="0" type="line"/>
      <point x="115" y="1479" type="line"/>
      <point x="315" y="1479" type="line"/>
      <point x="644" y="541" type="line" smooth="yes"/>
      <point x="659" y="499"/>
      <point x="755" y="216"/>
      <point x="755" y="216" type="curve"/>
      <point x="755" y="216"/>
      <point x="851" y="503"/>
      <point x="867" y="544" type="curve"/>
      <point x="867" y="544"/>
      <point x="1096" y="1195"/>
    </contour>
  </outline>
</glyph>
<glyph name="W" format="1">
  <advance width="2267"/>
  <unicode hex="0057"/>
  <outline>
    <contour>
      <point x="1007" y="1452" type="line"/>
      <point x="642" y="244" type="line"/>
      <point x="288" y="1479" type="line"/>
      <point x="96" y="1479" type="line"/>
      <point x="540" y="0" type="line"/>
      <point x="736" y="0" type="line"/>
      <point x="1112" y="1226" type="line"/>
      <point x="1464" y="0" type="line"/>
      <point x="1664" y="0" type="line"/>
      <point x="2111" y="1479" type="line"/>
      <point x="1920" y="1479" type="line"/>
      <point x="1558" y="243" type="line"/>
      <point x="1202" y="1452" type="line"/>
    </contour>
  </outline>
</glyph>
<glyph name="X" format="1">
  <advance width="1487"/>
  <unicode hex="0058"/>
  <outline>
    <contour>
      <point x="360" y="1479" type="line"/>
      <point x="160" y="1479" type="line"/>
      <point x="1144" y="0" type="line"/>
      <point x="1344" y="0" type="line"/>
    </contour>
  </outline>
</glyph>
<glyph name="Y" format="1">
  <advance width="1388"/>
  <unicode hex="0059"/>
  <outline>
    <contour>
      <point x="672" y="751" type="line"/>
      <point x="256" y="1479" type="line"/>
      <point x="64" y="1479" type="line"/>
      <point x="576" y="586" type="line"/>
      <point x="576" y="0" type="line"/>
      <point x="768" y="0" type="line"/>
      <point x="768" y="590" type="line"/>
      <point x="1280" y="1479" type="line"/>
      <point x="1088" y="1479" type="line"/>
    </contour>
  </outline>
</glyph>
<glyph name="Z" format="1">
  <advance width="1324"/>
  <unicode hex="005A"/>
  <outline>
    <contour>
      <point x="179" y="1479" type="line"/>
      <point x="179" y="1325" type="line"/>
      <point x="954" y="1325" type="line"/>
      <point x="150" y="136" type="line"/>
      <point x="150" y="0" type="line"/>
      <point x="1176" y="0" type="line"/>
      <point x="1182" y="154" type="line"/>
      <point x="366" y="154" type="line"/>
      <point x="1175" y="1350" type="line"/>
      <point x="1175" y="1479" type="line"/>
    </contour>
  </outline>
</glyph>
<glyph name="bracketleft" format="1">
  <advance width="785"/>
  <unicode hex="005B"/>
  <outline>
    <contour>
      <point x="369" y="1351" type="line"/>
      <point x="649" y="1351" type="line"/>
      <point x="649" y="1483" type="line"/>
      <point x="196" y="1483" type="line"/>
      <point x="196" y="-293" type="line"/>
      <point x="649" y="-293" type="line"/>
      <point x="649" y="-161" type="line"/>
      <point x="369" y="-161" type="line"/>
    </contour>
  </outline>
</glyph>
<glyph name="backslash" format="1">
  <advance width="992"/>
  <unicode hex="005C"/>
  <outline>
    <contour>
      <point x="713" y="-60" type="line"/>
      <point x="869" y="-60" type="line"/>
      <point x="270" y="1464" type="line"/>
      <point x="114" y="1464" type="line"/>
    </contour>
  </outline>
</glyph>
<glyph name="bracketright" format="1">
  <advance width="781"/>
  <unicode hex="005D"/>
  <outline>
    <contour>
      <point x="132" y="1351" type="line"/>
      <point x="412" y="1351" type="line"/>
      <point x="412" y="-161" type="line"/>
      <point x="132" y="-161" type="line"/>
      <point x="132" y="-293" type="line"/>
      <point x="585" y="-293" type="line"/>
      <point x="585" y="1483" type="line"/>
      <point x="132" y="1483" type="line"/>
    </contour>
  </outline>
</glyph>
<glyph name="underscore" format="1">
  <advance width="1198"/>
  <unicode hex="005F"/>
  <outline>
    <contour>
      <point x="126" y="-304" type="line"/>
      <point x="1065" y="-304" type="line"/>
      <point x="1065" y="-170" type="line"/>
      <point x="126" y="-170" type="line"/>
    </contour>
  </outline>
</glyph>
<glyph name="grave" format="1">
  <advance width="643"/>
  <unicode hex="0060"/>
  <outline>
    <contour>
      <point x="408" y="1251" type="line"/>
      <point x="520" y="1251" type="line"/>
      <point x="335" y="1638" type="line"/>
      <point x="85" y="1638" type="line"/>
    </contour>
    <contour>
      <point x="302.5" y="1097" type="move"/>
    </contour>
  </outline>
</glyph>
<glyph name="a" format="1">
  <advance width="1235"/>
  <unicode hex="0061"/>
  <outline>
    <contour>
      <point x="527" y="112" type="curve" smooth="yes"/>
      <point x="436" y="112"/>
      <point x="351" y="167"/>
      <point x="351" y="288" type="curve" smooth="yes"/>
      <point x="351" y="442"/>
      <point x="448" y="491"/>
      <point x="735" y="525" type="curve" smooth="yes"/>
      <point x="760" y="528"/>
      <point x="863" y="539"/>
      <point x="863" y="539" type="curve"/>
      <point x="863" y="354" type="line"/>
      <point x="828" y="203"/>
      <point x="682" y="112"/>
    </contour>
    <contour>
      <point x="871" y="153" type="curve"/>
      <point x="876" y="127"/>
      <point x="894" y="26"/>
      <point x="900" y="0" type="curve"/>
      <point x="1055" y="0" type="line"/>
      <point x="1055" y="726" type="line" smooth="yes"/>
      <point x="1055" y="1018"/>
      <point x="912" y="1120"/>
      <point x="644" y="1120" type="curve" smooth="yes"/>
      <point x="502" y="1120"/>
      <point x="337" y="1082"/>
      <point x="242" y="1029" type="curve"/>
      <point x="250" y="1008"/>
      <point x="285" y="914"/>
      <point x="294" y="893" type="curve"/>
      <point x="397" y="943"/>
      <point x="543" y="974"/>
      <point x="649" y="974" type="curve" smooth="yes"/>
      <point x="806" y="974"/>
      <point x="863" y="905"/>
      <point x="863" y="753" type="curve" smooth="yes"/>
      <point x="863" y="656" type="line"/>
      <point x="863" y="656"/>
      <point x="721" y="645"/>
      <point x="671" y="641" type="curve" smooth="yes"/>
      <point x="358" y="618"/>
      <point x="159" y="525"/>
      <point x="159" y="289" type="curve" smooth="yes"/>
      <point x="159" y="82"/>
      <point x="313" y="-23"/>
      <point x="512" y="-23" type="curve" smooth="yes"/>
      <point x="654" y="-23"/>
      <point x="798" y="23"/>
    </contour>
  </outline>
</glyph>
<glyph name="b" format="1">
  <advance width="1383"/>
  <unicode hex="0062"/>
  <outline>
    <contour>
      <point x="387" y="179" type="curve"/>
      <point x="368" y="0" type="line"/>
      <point x="195" y="0" type="line"/>
      <point x="195" y="1562" type="line"/>
      <point x="387" y="1573" type="line"/>
      <point x="387" y="1157" type="line" smooth="yes"/>
      <point x="387" y="1089"/>
      <point x="386" y="1019"/>
      <point x="382" y="947" type="curve"/>
      <point x="455" y="1049"/>
      <point x="593" y="1120"/>
      <point x="738" y="1120" type="curve" smooth="yes"/>
      <point x="1024" y="1120"/>
      <point x="1219" y="881"/>
      <point x="1219" y="554" type="curve" smooth="yes"/>
      <point x="1219" y="218"/>
      <point x="1044" y="-23"/>
      <point x="737" y="-23" type="curve" smooth="yes"/>
      <point x="586" y="-23"/>
      <point x="447" y="49"/>
    </contour>
    <contour>
      <point x="707" y="979" type="curve" smooth="yes"/>
      <point x="471" y="979"/>
      <point x="387" y="815"/>
      <point x="387" y="530" type="curve" smooth="yes"/>
      <point x="387" y="277"/>
      <point x="482" y="119"/>
      <point x="708" y="119" type="curve" smooth="yes"/>
      <point x="921" y="119"/>
      <point x="1027" y="291"/>
      <point x="1027" y="548" type="curve" smooth="yes"/>
      <point x="1027" y="811"/>
      <point x="917" y="979"/>
    </contour>
  </outline>
</glyph>
<glyph name="c" format="1">
  <advance width="1130"/>
  <unicode hex="0063"/>
  <outline>
    <contour>
      <point x="674" y="-23" type="curve" smooth="yes"/>
      <point x="784" y="-23"/>
      <point x="891" y="3"/>
      <point x="964" y="56" type="curve"/>
      <point x="939" y="192" type="line"/>
      <point x="860" y="151"/>
      <point x="801" y="123"/>
      <point x="706" y="123" type="curve" smooth="yes"/>
      <point x="471" y="123"/>
      <point x="354" y="291"/>
      <point x="354" y="544" type="curve" smooth="yes"/>
      <point x="354" y="805"/>
      <point x="475" y="974"/>
      <point x="706" y="974" type="curve" smooth="yes"/>
      <point x="779" y="974"/>
      <point x="847" y="956"/>
      <point x="925" y="914" type="curve"/>
      <point x="971" y="1044" type="line"/>
      <point x="911" y="1088"/>
      <point x="796" y="1120"/>
      <point x="681" y="1120" type="curve" smooth="yes"/>
      <point x="373" y="1120"/>
      <point x="162" y="890"/>
      <point x="162" y="545" type="curve" smooth="yes"/>
      <point x="162" y="214"/>
      <point x="365" y="-23"/>
    </contour>
  </outline>
</glyph>
<glyph name="f" format="1">
  <advance width="974"/>
  <unicode hex="0066"/>
  <outline>
    <contour>
      <point x="338" y="1097" type="line"/>
      <point x="152" y="1078" type="line"/>
      <point x="146" y="974" type="line"/>
      <point x="338" y="974" type="line"/>
      <point x="338" y="0" type="line"/>
      <point x="530" y="0" type="line"/>
      <point x="530" y="974" type="line"/>
      <point x="786" y="974" type="line"/>
      <point x="786" y="1097" type="line"/>
      <point x="530" y="1097" type="line"/>
      <point x="530" y="1159" type="line" smooth="yes"/>
      <point x="530" y="1351"/>
      <point x="590" y="1399"/>
      <point x="702" y="1399" type="curve" smooth="yes"/>
      <point x="742" y="1399"/>
      <point x="791" y="1392"/>
      <point x="819" y="1388" type="curve"/>
      <point x="832" y="1532" type="line"/>
      <point x="812" y="1536"/>
      <point x="707" y="1550"/>
      <point x="658" y="1550" type="curve" smooth="yes"/>
      <point x="462" y="1550"/>
      <point x="338" y="1448"/>
      <point x="338" y="1166" type="curve" smooth="yes"/>
    </contour>
  </outline>
</glyph>
<glyph name="g" format="1">
  <advance width="1374"/>
  <unicode hex="0067"/>
  <outline>
    <contour>
      <point x="612" y="-351" type="curve" smooth="yes"/>
      <point x="421" y="-351" type="line"/>
      <point x="447" y="-502" type="line"/>
      <point x="632" y="-502" type="line" smooth="yes"/>
      <point x="1145" y="-502"/>
      <point x="1187" y="-206"/>
      <point x="1187" y="79" type="curve" smooth="yes"/>
      <point x="1187" y="1097" type="line"/>
      <point x="1013" y="1097" type="line"/>
      <point x="1000" y="951" type="line"/>
      <point x="916" y="1064"/>
      <point x="804" y="1120"/>
      <point x="658" y="1120" type="curve" smooth="yes"/>
      <point x="323" y="1120"/>
      <point x="163" y="857"/>
      <point x="163" y="545" type="curve" smooth="yes"/>
      <point x="163" y="274"/>
      <point x="329" y="0"/>
      <point x="654" y="0" type="curve" smooth="yes"/>
      <point x="828" y="0"/>
      <point x="923" y="76"/>
      <point x="995" y="180" type="curve"/>
      <point x="995" y="83" type="line" smooth="yes"/>
      <point x="995" y="-193"/>
      <point x="957" y="-351"/>
    </contour>
    <contour>
      <point x="669" y="143" type="curve" smooth="yes"/>
      <point x="441" y="143"/>
      <point x="355" y="366"/>
      <point x="355" y="554" type="curve" smooth="yes"/>
      <point x="355" y="744"/>
      <point x="435" y="979"/>
      <point x="673" y="979" type="curve" smooth="yes"/>
      <point x="901" y="979"/>
      <point x="995" y="805"/>
      <point x="995" y="597" type="curve" smooth="yes"/>
      <point x="995" y="516" type="line" smooth="yes"/>
      <point x="995" y="319"/>
      <point x="905" y="143"/>
    </contour>
  </outline>
</glyph>
<glyph name="h" format="1">
  <advance width="1270"/>
  <unicode hex="0068"/>
  <outline>
    <contour>
      <point x="387" y="950" type="curve"/>
      <point x="387" y="1533" type="line"/>
      <point x="195" y="1523" type="line"/>
      <point x="195" y="0" type="line"/>
      <point x="387" y="0" type="line"/>
      <point x="387" y="600" type="line" smooth="yes"/>
      <point x="387" y="656"/>
      <point x="390" y="707"/>
      <point x="397" y="754" type="curve"/>
      <point x="430" y="880"/>
      <point x="513" y="977"/>
      <point x="691" y="977" type="curve" smooth="yes"/>
      <point x="859" y="977"/>
      <point x="899" y="866"/>
      <point x="899" y="685" type="curve" smooth="yes"/>
      <point x="899" y="679"/>
      <point x="899" y="0"/>
      <point x="899" y="0" type="curve"/>
      <point x="1091" y="0" type="line"/>
      <point x="1091" y="672" type="line" smooth="yes"/>
      <point x="1091" y="966"/>
      <point x="977" y="1120"/>
      <point x="724" y="1120" type="curve" smooth="yes"/>
      <point x="572" y="1120"/>
      <point x="468" y="1048"/>
    </contour>
  </outline>
</glyph>
<glyph name="j" format="1">
  <advance width="688"/>
  <unicode hex="006A"/>
  <outline>
    <contour>
      <point x="137" y="-351" type="curve" smooth="yes"/>
      <point x="85" y="-351" type="line"/>
      <point x="107" y="-502" type="line"/>
      <point x="159" y="-502" type="line" smooth="yes"/>
      <point x="432" y="-502"/>
      <point x="492" y="-407"/>
      <point x="492" y="-139" type="curve" smooth="yes"/>
      <point x="492" y="1097" type="line"/>
      <point x="324" y="1097" type="line"/>
      <point x="324" y="-121" type="line" smooth="yes"/>
      <point x="324" y="-286"/>
      <point x="319" y="-351"/>
    </contour>
    <contour>
      <point x="324" y="1298" type="line"/>
      <point x="492" y="1298" type="line"/>
      <point x="492" y="1496" type="line"/>
      <point x="324" y="1496" type="line"/>
    </contour>
  </outline>
</glyph>
<glyph name="k" format="1">
  <advance width="1231"/>
  <unicode hex="006B"/>
  <outline>
    <contour>
      <point x="361" y="596" type="curve"/>
      <point x="361" y="736" type="line"/>
      <point x="361" y="1533" type="line"/>
      <point x="195" y="1523" type="line"/>
      <point x="195" y="0" type="line"/>
      <point x="361" y="0" type="line"/>
      <point x="361" y="435" type="line"/>
      <point x="483" y="540" type="line"/>
      <point x="884" y="0" type="line"/>
      <point x="1092" y="0" type="line"/>
      <point x="604" y="635" type="line"/>
      <point x="1060" y="1097" type="line"/>
      <point x="848" y="1097" type="line"/>
      <point x="700" y="948"/>
      <point x="525" y="776"/>
      <point x="398" y="637" type="curve" smooth="yes"/>
      <point x="385" y="623"/>
      <point x="373" y="609"/>
    </contour>
  </outline>
</glyph>
<glyph name="l" format="1">
  <advance width="781"/>
  <unicode hex="006C"/>
  <outline>
    <contour>
      <point x="486" y="-20" type="curve" smooth="yes"/>
      <point x="515" y="-20"/>
      <point x="577" y="-15"/>
      <point x="650" y="-3" type="curve"/>
      <point x="641" y="138" type="line"/>
      <point x="594" y="132"/>
      <point x="573" y="126"/>
      <point x="524" y="126" type="curve" smooth="yes"/>
      <point x="371" y="126"/>
      <point x="385" y="186"/>
      <point x="385" y="431" type="curve" smooth="yes"/>
      <point x="385" y="1533" type="line"/>
      <point x="193" y="1523" type="line"/>
      <point x="193" y="365" type="line" smooth="yes"/>
      <point x="193" y="79"/>
      <point x="274" y="-20"/>
    </contour>
  </outline>
</glyph>
<glyph name="n" format="1">
  <advance width="1261"/>
  <unicode hex="006E"/>
  <outline>
    <contour>
      <point x="370" y="940" type="curve"/>
      <point x="349" y="1097" type="line"/>
      <point x="186" y="1097" type="line"/>
      <point x="186" y="0" type="line"/>
      <point x="378" y="0" type="line"/>
      <point x="378" y="600" type="line" smooth="yes"/>
      <point x="378" y="656"/>
      <point x="381" y="707"/>
      <point x="388" y="754" type="curve"/>
      <point x="421" y="880"/>
      <point x="504" y="977"/>
      <point x="682" y="977" type="curve" smooth="yes"/>
      <point x="850" y="977"/>
      <point x="890" y="866"/>
      <point x="890" y="685" type="curve" smooth="yes"/>
      <point x="890" y="679"/>
      <point x="890" y="0"/>
      <point x="890" y="0" type="curve"/>
      <point x="1082" y="0" type="line"/>
      <point x="1082" y="672" type="line" smooth="yes"/>
      <point x="1082" y="966"/>
      <point x="973" y="1120"/>
      <point x="720" y="1120" type="curve" smooth="yes"/>
      <point x="563" y="1120"/>
      <point x="449" y="1059"/>
    </contour>
  </outline>
</glyph>
<glyph name="o" format="1">
  <advance width="1350"/>
  <unicode hex="006F"/>
  <outline>
    <contour>
      <point x="675" y="-23" type="curve" smooth="yes"/>
      <point x="362" y="-23"/>
      <point x="163" y="219"/>
      <point x="163" y="548" type="curve" smooth="yes"/>
      <point x="163" y="883"/>
      <point x="351" y="1120"/>
      <point x="675" y="1120" type="curve" smooth="yes"/>
      <point x="999" y="1120"/>
      <point x="1187" y="883"/>
      <point x="1187" y="548" type="curve" smooth="yes"/>
      <point x="1187" y="219"/>
      <point x="988" y="-23"/>
    </contour>
    <contour>
      <point x="675" y="974" type="curve" smooth="yes"/>
      <point x="449" y="974"/>
      <point x="355" y="790"/>
      <point x="355" y="546" type="curve" smooth="yes"/>
      <point x="355" y="306"/>
      <point x="448" y="123"/>
      <point x="675" y="123" type="curve" smooth="yes"/>
      <point x="902" y="123"/>
      <point x="995" y="306"/>
      <point x="995" y="546" type="curve" smooth="yes"/>
      <point x="995" y="790"/>
      <point x="901" y="974"/>
    </contour>
  </outline>
</glyph>
<glyph name="q" format="1">
  <advance width="1376"/>
  <unicode hex="0071"/>
  <outline>
    <contour>
      <point x="995" y="918" type="curve"/>
      <point x="1014" y="1097" type="line"/>
      <point x="1187" y="1097" type="line"/>
      <point x="1187" y="-465" type="line"/>
      <point x="995" y="-476" type="line"/>
      <point x="995" y="-60" type="line" smooth="yes"/>
      <point x="995" y="8"/>
      <point x="996" y="78"/>
      <point x="1000" y="150" type="curve"/>
      <point x="927" y="48"/>
      <point x="789" y="-23"/>
      <point x="644" y="-23" type="curve" smooth="yes"/>
      <point x="358" y="-23"/>
      <point x="163" y="216"/>
      <point x="163" y="543" type="curve" smooth="yes"/>
      <point x="163" y="879"/>
      <point x="338" y="1120"/>
      <point x="645" y="1120" type="curve" smooth="yes"/>
      <point x="796" y="1120"/>
      <point x="935" y="1048"/>
    </contour>
    <contour>
      <point x="675" y="118" type="curve" smooth="yes"/>
      <point x="911" y="118"/>
      <point x="995" y="282"/>
      <point x="995" y="567" type="curve" smooth="yes"/>
      <point x="995" y="820"/>
      <point x="900" y="978"/>
      <point x="674" y="978" type="curve" smooth="yes"/>
      <point x="461" y="978"/>
      <point x="355" y="806"/>
      <point x="355" y="549" type="curve" smooth="yes"/>
      <point x="355" y="286"/>
      <point x="465" y="118"/>
    </contour>
  </outline>
</glyph>
<glyph name="r" format="1">
  <advance width="926"/>
  <unicode hex="0072"/>
  <outline>
    <contour>
      <point x="365" y="900" type="curve"/>
      <point x="349" y="1097" type="line"/>
      <point x="186" y="1097" type="line"/>
      <point x="186" y="0" type="line"/>
      <point x="378" y="0" type="line"/>
      <point x="378" y="616" type="line" smooth="yes"/>
      <point x="378" y="804"/>
      <point x="502" y="955"/>
      <point x="693" y="955" type="curve" smooth="yes"/>
      <point x="717" y="955"/>
      <point x="744" y="952"/>
      <point x="773" y="947" type="curve"/>
      <point x="779" y="1101" type="line"/>
      <point x="754" y="1105"/>
      <point x="727" y="1107"/>
      <point x="697" y="1107" type="curve" smooth="yes"/>
      <point x="561" y="1107"/>
      <point x="438" y="1020"/>
    </contour>
  </outline>
</glyph>
<glyph name="s" format="1">
  <advance width="1102"/>
  <unicode hex="0073"/>
  <outline>
    <contour>
      <point x="540" y="-23" type="curve" smooth="yes"/>
      <point x="780" y="-23"/>
      <point x="938" y="91"/>
      <point x="941" y="296" type="curve" smooth="yes"/>
      <point x="941" y="462"/>
      <point x="856" y="552"/>
      <point x="634" y="624" type="curve" smooth="yes"/>
      <point x="603" y="634"/>
      <point x="576" y="644"/>
      <point x="551" y="652" type="curve" smooth="yes"/>
      <point x="392" y="706"/>
      <point x="354" y="739"/>
      <point x="354" y="826" type="curve" smooth="yes"/>
      <point x="354" y="919"/>
      <point x="421" y="974"/>
      <point x="560" y="974" type="curve" smooth="yes"/>
      <point x="665" y="974"/>
      <point x="765" y="945"/>
      <point x="850" y="910" type="curve"/>
      <point x="899" y="1048" type="line"/>
      <point x="801" y="1094"/>
      <point x="690" y="1120"/>
      <point x="560" y="1120" type="curve" smooth="yes"/>
      <point x="312" y="1120"/>
      <point x="173" y="987"/>
      <point x="173" y="821" type="curve" smooth="yes"/>
      <point x="174" y="684"/>
      <point x="248" y="593"/>
      <point x="442" y="522" type="curve" smooth="yes"/>
      <point x="527" y="491" type="line" smooth="yes"/>
      <point x="728" y="418"/>
      <point x="771" y="386"/>
      <point x="771" y="289" type="curve" smooth="yes"/>
      <point x="771" y="179"/>
      <point x="682" y="123"/>
      <point x="529" y="123" type="curve" smooth="yes"/>
      <point x="398" y="123"/>
      <point x="274" y="173"/>
      <point x="201" y="212" type="curve"/>
      <point x="180" y="63" type="line"/>
      <point x="253" y="16"/>
      <point x="383" y="-23"/>
    </contour>
  </outline>
</glyph>
<glyph name="t" format="1">
  <advance width="987"/>
  <unicode hex="0074"/>
  <outline>
    <contour>
      <point x="614" y="-20" type="curve" smooth="yes"/>
      <point x="657" y="-20"/>
      <point x="750" y="-13"/>
      <point x="829" y="1" type="curve"/>
      <point x="820" y="143" type="line"/>
      <point x="765" y="135"/>
      <point x="692" y="130"/>
      <point x="653" y="130" type="curve" smooth="yes"/>
      <point x="531" y="130"/>
      <point x="504" y="176"/>
      <point x="504" y="344" type="curve" smooth="yes"/>
      <point x="504" y="973" type="line"/>
      <point x="824" y="973" type="line"/>
      <point x="824" y="1097" type="line"/>
      <point x="504" y="1097" type="line"/>
      <point x="504" y="1352" type="line"/>
      <point x="368" y="1348" type="line"/>
      <point x="311" y="1097" type="line"/>
      <point x="156" y="1083" type="line"/>
      <point x="149" y="973" type="line"/>
      <point x="312" y="973" type="line"/>
      <point x="312" y="314" type="line" smooth="yes"/>
      <point x="312" y="84"/>
      <point x="394" y="-20"/>
    </contour>
  </outline>
</glyph>
<glyph name="u" format="1">
  <advance width="1262"/>
  <unicode hex="0075"/>
  <outline>
    <contour>
      <point x="893" y="157" type="curve"/>
      <point x="914" y="0" type="line"/>
      <point x="1077" y="0" type="line"/>
      <point x="1077" y="1097" type="line"/>
      <point x="885" y="1097" type="line"/>
      <point x="885" y="497" type="line" smooth="yes"/>
      <point x="885" y="441"/>
      <point x="882" y="390"/>
      <point x="875" y="343" type="curve"/>
      <point x="842" y="217"/>
      <point x="759" y="120"/>
      <point x="581" y="120" type="curve" smooth="yes"/>
      <point x="413" y="120"/>
      <point x="373" y="231"/>
      <point x="373" y="412" type="curve" smooth="yes"/>
      <point x="373" y="426"/>
      <point x="373" y="1097"/>
      <point x="373" y="1097" type="curve"/>
      <point x="181" y="1097" type="line"/>
      <point x="181" y="425" type="line" smooth="yes"/>
      <point x="181" y="131"/>
      <point x="295" y="-23"/>
      <point x="548" y="-23" type="curve" smooth="yes"/>
      <point x="705" y="-23"/>
      <point x="811" y="54"/>
    </contour>
  </outline>
</glyph>
<glyph name="v" format="1">
  <advance width="1315"/>
  <unicode hex="0076"/>
  <outline>
    <contour>
      <point x="561" y="445" type="curve" smooth="yes"/>
      <point x="319" y="1097" type="line"/>
      <point x="140" y="1097" type="line"/>
      <point x="565" y="0" type="line"/>
      <point x="747" y="0" type="line"/>
      <point x="1169" y="1097" type="line"/>
      <point x="991" y="1097" type="line"/>
      <point x="878" y="786"/>
      <point x="807" y="591"/>
      <point x="755" y="443" type="curve" smooth="yes"/>
      <point x="717" y="335"/>
      <point x="688" y="252"/>
      <point x="661" y="167" type="curve"/>
      <point x="661" y="167"/>
      <point x="595" y="347"/>
    </contour>
  </outline>
</glyph>
<glyph name="w" format="1">
  <advance width="1868"/>
  <unicode hex="0077"/>
  <outline>
    <contour>
      <point x="556" y="199" type="curve"/>
      <point x="321" y="1097" type="line"/>
      <point x="148" y="1097" type="line"/>
      <point x="461" y="0" type="line"/>
      <point x="641" y="0" type="line"/>
      <point x="740" y="305"/>
      <point x="844" y="605"/>
      <point x="933" y="919" type="curve"/>
      <point x="1026" y="610"/>
      <point x="1123" y="306"/>
      <point x="1219" y="0" type="curve"/>
      <point x="1400" y="0" type="line"/>
      <point x="1716" y="1097" type="line"/>
      <point x="1545" y="1097" type="line"/>
      <point x="1313" y="202" type="line"/>
      <point x="1223" y="503"/>
      <point x="1127" y="799"/>
      <point x="1033" y="1097" type="curve"/>
      <point x="844" y="1097" type="line"/>
      <point x="747" y="798"/>
      <point x="648" y="502"/>
    </contour>
  </outline>
</glyph>
<glyph name="x" format="1">
  <advance width="1291"/>
  <unicode hex="0078"/>
  <outline>
    <contour>
      <point x="647" y="679" type="line"/>
      <point x="354" y="1097" type="line"/>
      <point x="163" y="1097" type="line"/>
      <point x="550" y="558" type="line"/>
      <point x="148" y="0" type="line"/>
      <point x="339" y="0" type="line"/>
      <point x="648" y="441" type="line"/>
      <point x="957" y="0" type="line"/>
      <point x="1142" y="0" type="line"/>
      <point x="744" y="556" type="line"/>
      <point x="1132" y="1097" type="line"/>
      <point x="941" y="1097" type="line"/>
    </contour>
  </outline>
</glyph>
<glyph name="z" format="1">
  <advance width="1089"/>
  <unicode hex="007A"/>
  <outline>
    <contour>
      <point x="175" y="1097" type="line"/>
      <point x="175" y="965" type="line"/>
      <point x="721" y="965" type="line"/>
      <point x="160" y="126" type="line"/>
      <point x="160" y="0" type="line"/>
      <point x="926" y="0" type="line"/>
      <point x="926" y="132" type="line"/>
      <point x="348" y="132" type="line"/>
      <point x="908" y="965" type="line"/>
      <point x="908" y="1097" type="line"/>
    </contour>
  </outline>
</glyph>
<glyph name="braceleft" format="1">
  <advance width="871"/>
  <unicode hex="007B"/>
  <outline>
    <contour>
      <point x="725" y="-281" type="curve"/>
      <point x="725" y="-143" type="line"/>
      <point x="578" y="-141"/>
      <point x="538" y="-85"/>
      <point x="538" y="84" type="curve" smooth="yes"/>
      <point x="538" y="349" type="line" smooth="yes"/>
      <point x="538" y="469"/>
      <point x="487" y="583"/>
      <point x="353" y="626" type="curve"/>
      <point x="480" y="702"/>
      <point x="538" y="786"/>
      <point x="538" y="908" type="curve" smooth="yes"/>
      <point x="538" y="1173" type="line" smooth="yes"/>
      <point x="538" y="1338"/>
      <point x="577" y="1399"/>
      <point x="725" y="1401" type="curve"/>
      <point x="725" y="1539" type="line"/>
      <point x="497" y="1539"/>
      <point x="373" y="1438"/>
      <point x="373" y="1230" type="curve" smooth="yes"/>
      <point x="373" y="987" type="line" smooth="yes"/>
      <point x="373" y="801"/>
      <point x="370" y="704"/>
      <point x="159" y="701" type="curve"/>
      <point x="159" y="556" type="line"/>
      <point x="345" y="556"/>
      <point x="373" y="440"/>
      <point x="373" y="269" type="curve" smooth="yes"/>
      <point x="373" y="62" type="line" smooth="yes"/>
      <point x="373" y="-170"/>
      <point x="473" y="-280"/>
    </contour>
  </outline>
</glyph>
<glyph name="bar" format="1">
  <advance width="537"/>
  <unicode hex="007C"/>
  <outline>
    <contour>
      <point x="196" y="-400" type="line"/>
      <point x="341" y="-400" type="line"/>
      <point x="341" y="1579" type="line"/>
      <point x="196" y="1579" type="line"/>
    </contour>
  </outline>
</glyph>
<glyph name="braceright" format="1">
  <advance width="870"/>
  <unicode hex="007D"/>
  <outline>
    <contour>
      <point x="143" y="-143" type="curve"/>
      <point x="143" y="-281" type="line"/>
      <point x="377" y="-280"/>
      <point x="495" y="-179"/>
      <point x="495" y="27" type="curve" smooth="yes"/>
      <point x="495" y="269" type="line" smooth="yes"/>
      <point x="495" y="440"/>
      <point x="523" y="556"/>
      <point x="710" y="556" type="curve"/>
      <point x="710" y="701" type="line"/>
      <point x="517" y="703"/>
      <point x="495" y="815"/>
      <point x="495" y="987" type="curve" smooth="yes"/>
      <point x="495" y="1195" type="line" smooth="yes"/>
      <point x="495" y="1426"/>
      <point x="392" y="1539"/>
      <point x="143" y="1539" type="curve"/>
      <point x="143" y="1401" type="line"/>
      <point x="290" y="1399"/>
      <point x="330" y="1338"/>
      <point x="330" y="1173" type="curve" smooth="yes"/>
      <point x="330" y="908" type="line" smooth="yes"/>
      <point x="330" y="789"/>
      <point x="380" y="674"/>
      <point x="514" y="632" type="curve"/>
      <point x="375" y="539"/>
      <point x="330" y="477"/>
      <point x="330" y="349" type="curve" smooth="yes"/>
      <point x="330" y="84" type="line" smooth="yes"/>
      <point x="330" y="-85"/>
      <point x="288" y="-141"/>
    </contour>
  </outline>
</glyph>
<glyph name="asciitilde" format="1">
  <advance width="1335"/>
  <unicode hex="007E"/>
  <outline>
    <contour>
      <point x="156" y="608" type="curve"/>
      <point x="208" y="503" type="line"/>
      <point x="254" y="590"/>
      <point x="333" y="663"/>
      <point x="423" y="663" type="curve" smooth="yes"/>
      <point x="494" y="663"/>
      <point x="568" y="629"/>
      <point x="669" y="583" type="curve" smooth="yes"/>
      <point x="755" y="544"/>
      <point x="828" y="517"/>
      <point x="904" y="517" type="curve" smooth="yes"/>
      <point x="1034" y="517"/>
      <point x="1123" y="597"/>
      <point x="1173" y="719" type="curve"/>
      <point x="1117" y="815" type="line"/>
      <point x="1070" y="728"/>
      <point x="991" y="659"/>
      <point x="909" y="659" type="curve" smooth="yes"/>
      <point x="849" y="659"/>
      <point x="770" y="697"/>
      <point x="674" y="739" type="curve" smooth="yes"/>
      <point x="575" y="783"/>
      <point x="509" y="806"/>
      <point x="427" y="806" type="curve" smooth="yes"/>
      <point x="292" y="806"/>
      <point x="203" y="719"/>
    </contour>
  </outline>
</glyph>
<glyph name="exclamdown" format="1">
  <advance width="615"/>
  <unicode hex="00A1"/>
  <outline>
    <contour>
      <point x="407" y="144" type="line"/>
      <point x="345" y="1063" type="line"/>
      <point x="266" y="1063" type="line"/>
      <point x="210" y="144" type="line"/>
      <point x="210" y="2" type="line"/>
      <point x="407" y="2" type="line"/>
    </contour>
    <contour>
      <point x="308" y="1246" type="curve" smooth="yes"/>
      <point x="396" y="1246"/>
      <point x="441" y="1312"/>
      <point x="441" y="1378" type="curve" smooth="yes"/>
      <point x="441" y="1444"/>
      <point x="396" y="1510"/>
      <point x="308" y="1510" type="curve" smooth="yes"/>
      <point x="219" y="1510"/>
      <point x="175" y="1444"/>
      <point x="175" y="1378" type="curve" smooth="yes"/>
      <point x="175" y="1312"/>
      <point x="219" y="1246"/>
    </contour>
  </outline>
</glyph>
<glyph name="cent" format="1">
  <advance width="1154"/>
  <unicode hex="00A2"/>
  <outline>
    <contour>
      <point x="642" y="170" type="curve"/>
      <point x="642" y="1" type="line"/>
      <point x="737" y="1" type="line"/>
      <point x="737" y="170" type="line"/>
      <point x="833" y="177"/>
      <point x="929" y="210"/>
      <point x="992" y="268" type="curve"/>
      <point x="950" y="388" type="line"/>
      <point x="896" y="350"/>
      <point x="822" y="315"/>
      <point x="737" y="307" type="curve"/>
      <point x="737" y="1176" type="line"/>
      <point x="807" y="1170"/>
      <point x="881" y="1148"/>
      <point x="949" y="1102" type="curve"/>
      <point x="991" y="1221" type="line"/>
      <point x="936" y="1273"/>
      <point x="845" y="1307"/>
      <point x="737" y="1314" type="curve"/>
      <point x="737" y="1496" type="line"/>
      <point x="642" y="1496" type="line"/>
      <point x="642" y="1314" type="line"/>
      <point x="345" y="1288"/>
      <point x="167" y="1029"/>
      <point x="165" y="742" type="curve"/>
      <point x="165" y="452"/>
      <point x="334" y="196"/>
    </contour>
    <contour>
      <point x="642" y="1174" type="curve"/>
      <point x="642" y="310" type="line"/>
      <point x="456" y="340"/>
      <point x="336" y="510"/>
      <point x="336" y="737" type="curve" smooth="yes"/>
      <point x="336" y="970"/>
      <point x="465" y="1147"/>
    </contour>
  </outline>
</glyph>
<glyph name="sterling" format="1">
  <advance width="1317"/>
  <unicode hex="00A3"/>
  <outline>
    <contour>
      <point x="179" y="139" type="curve"/>
      <point x="190" y="0" type="line"/>
      <point x="1162" y="0" type="line"/>
      <point x="1162" y="158" type="line"/>
      <point x="507" y="158" type="line" smooth="yes"/>
      <point x="475" y="158"/>
      <point x="446" y="155"/>
      <point x="413" y="153" type="curve"/>
      <point x="518" y="234"/>
      <point x="535" y="358"/>
      <point x="535" y="519" type="curve" smooth="yes"/>
      <point x="535" y="681" type="line"/>
      <point x="945" y="681" type="line"/>
      <point x="945" y="815" type="line"/>
      <point x="535" y="815" type="line"/>
      <point x="535" y="993" type="line" smooth="yes"/>
      <point x="535" y="1213"/>
      <point x="596" y="1357"/>
      <point x="791" y="1357" type="curve" smooth="yes"/>
      <point x="894" y="1357"/>
      <point x="981" y="1320"/>
      <point x="1069" y="1253" type="curve"/>
      <point x="1147" y="1373" type="line"/>
      <point x="1057" y="1449"/>
      <point x="940" y="1503"/>
      <point x="790" y="1503" type="curve" smooth="yes"/>
      <point x="433" y="1503"/>
      <point x="363" y="1218"/>
      <point x="363" y="911" type="curve" smooth="yes"/>
      <point x="363" y="815" type="line"/>
      <point x="177" y="815" type="line"/>
      <point x="177" y="681" type="line"/>
      <point x="363" y="681" type="line"/>
      <point x="363" y="449" type="line" smooth="yes"/>
      <point x="363" y="290"/>
      <point x="315" y="190"/>
    </contour>
  </outline>
</glyph>
<glyph name="currency" format="1">
  <advance width="1378"/>
  <unicode hex="00A4"/>
  <outline>
    <contour>
      <point x="953" y="408" type="curve"/>
      <point x="1140" y="232" type="line"/>
      <point x="1209" y="306" type="line"/>
      <point x="1027" y="482" type="line"/>
      <point x="1080" y="553"/>
      <point x="1109" y="638"/>
      <point x="1109" y="732" type="curve" smooth="yes"/>
      <point x="1109" y="821"/>
      <point x="1079" y="906"/>
      <point x="1026" y="981" type="curve"/>
      <point x="1210" y="1158" type="line"/>
      <point x="1140" y="1232" type="line"/>
      <point x="953" y="1056" type="line"/>
      <point x="880" y="1116"/>
      <point x="791" y="1150"/>
      <point x="691" y="1150" type="curve" smooth="yes"/>
      <point x="592" y="1150"/>
      <point x="501" y="1117"/>
      <point x="428" y="1057" type="curve"/>
      <point x="244" y="1232" type="line"/>
      <point x="170" y="1160" type="line"/>
      <point x="356" y="981" type="line"/>
      <point x="303" y="908"/>
      <point x="273" y="823"/>
      <point x="273" y="732" type="curve" smooth="yes"/>
      <point x="273" y="640"/>
      <point x="303" y="554"/>
      <point x="356" y="482" type="curve"/>
      <point x="171" y="305" type="line"/>
      <point x="244" y="233" type="line"/>
      <point x="428" y="408" type="line"/>
      <point x="500" y="348"/>
      <point x="590" y="315"/>
      <point x="691" y="315" type="curve" smooth="yes"/>
      <point x="791" y="315"/>
      <point x="880" y="349"/>
    </contour>
    <contour>
      <point x="691" y="423" type="curve" smooth="yes"/>
      <point x="520" y="423"/>
      <point x="382" y="561"/>
      <point x="382" y="732" type="curve" smooth="yes"/>
      <point x="382" y="902"/>
      <point x="520" y="1042"/>
      <point x="691" y="1042" type="curve" smooth="yes"/>
      <point x="862" y="1042"/>
      <point x="1001" y="902"/>
      <point x="1001" y="732" type="curve" smooth="yes"/>
      <point x="1001" y="562"/>
      <point x="863" y="423"/>
    </contour>
  </outline>
</glyph>
<glyph name="yen" format="1">
  <advance width="1379"/>
  <unicode hex="00A5"/>
  <outline>
    <contour>
      <point x="611" y="423" type="line"/>
      <point x="258" y="423" type="line"/>
      <point x="258" y="299" type="line"/>
      <point x="611" y="299" type="line"/>
      <point x="611" y="0" type="line"/>
      <point x="769" y="0" type="line"/>
      <point x="769" y="299" type="line"/>
      <point x="1116" y="299" type="line"/>
      <point x="1116" y="423" type="line"/>
      <point x="769" y="423" type="line"/>
      <point x="769" y="605" type="line"/>
      <point x="1115" y="605" type="line"/>
      <point x="1115" y="729" type="line"/>
      <point x="809" y="729" type="line"/>
      <point x="1232" y="1479" type="line"/>
      <point x="1060" y="1479" type="line"/>
      <point x="691" y="805" type="line"/>
      <point x="327" y="1479" type="line"/>
      <point x="149" y="1479" type="line"/>
      <point x="563" y="729" type="line"/>
      <point x="259" y="729" type="line"/>
      <point x="259" y="605" type="line"/>
      <point x="611" y="605" type="line"/>
    </contour>
  </outline>
</glyph>
<glyph name="brokenbar" format="1">
  <advance width="522"/>
  <unicode hex="00A6"/>
  <outline>
    <contour>
      <point x="188" y="-399" type="line"/>
      <point x="334" y="-399" type="line"/>
      <point x="334" y="310" type="line"/>
      <point x="188" y="310" type="line"/>
    </contour>
    <contour>
      <point x="188" y="872" type="line"/>
      <point x="334" y="872" type="line"/>
      <point x="334" y="1579" type="line"/>
      <point x="188" y="1579" type="line"/>
    </contour>
  </outline>
</glyph>
<glyph name="section" format="1">
  <advance width="1105"/>
  <unicode hex="00A7"/>
  <outline>
    <contour>
      <point x="492" y="-29" type="curve" smooth="yes"/>
      <point x="744" y="-29"/>
      <point x="914" y="81"/>
      <point x="914" y="278" type="curve" smooth="yes"/>
      <point x="914" y="390"/>
      <point x="858" y="461"/>
      <point x="765" y="514" type="curve"/>
      <point x="858" y="573"/>
      <point x="925" y="670"/>
      <point x="925" y="789" type="curve" smooth="yes"/>
      <point x="925" y="936"/>
      <point x="820" y="1022"/>
      <point x="616" y="1105" type="curve" smooth="yes"/>
      <point x="424" y="1181"/>
      <point x="364" y="1227"/>
      <point x="364" y="1311" type="curve" smooth="yes"/>
      <point x="364" y="1406"/>
      <point x="451" y="1446"/>
      <point x="592" y="1446" type="curve" smooth="yes"/>
      <point x="677" y="1446"/>
      <point x="761" y="1428"/>
      <point x="856" y="1385" type="curve"/>
      <point x="865" y="1434"/>
      <point x="873" y="1481"/>
      <point x="882" y="1530" type="curve"/>
      <point x="770" y="1575"/>
      <point x="679" y="1594"/>
      <point x="543" y="1582" type="curve" smooth="yes"/>
      <point x="330" y="1568"/>
      <point x="206" y="1471"/>
      <point x="206" y="1307" type="curve" smooth="yes"/>
      <point x="206" y="1188"/>
      <point x="260" y="1118"/>
      <point x="353" y="1059" type="curve"/>
      <point x="255" y="1008"/>
      <point x="187" y="916"/>
      <point x="187" y="797" type="curve" smooth="yes"/>
      <point x="187" y="632"/>
      <point x="289" y="547"/>
      <point x="510" y="462" type="curve" smooth="yes"/>
      <point x="684" y="391"/>
      <point x="755" y="361"/>
      <point x="755" y="266" type="curve" smooth="yes"/>
      <point x="755" y="172"/>
      <point x="661" y="109"/>
      <point x="494" y="109" type="curve" smooth="yes"/>
      <point x="399" y="109"/>
      <point x="284" y="137"/>
      <point x="191" y="185" type="curve"/>
      <point x="191" y="30" type="line"/>
      <point x="271" y="-11"/>
      <point x="372" y="-29"/>
    </contour>
    <contour>
      <point x="630" y="578" type="curve"/>
      <point x="573" y="602" type="line" smooth="yes"/>
      <point x="408" y="667"/>
      <point x="338" y="717"/>
      <point x="338" y="813" type="curve" smooth="yes"/>
      <point x="338" y="898"/>
      <point x="404" y="961"/>
      <point x="483" y="995" type="curve"/>
      <point x="651" y="934"/>
      <point x="773" y="886"/>
      <point x="773" y="768" type="curve" smooth="yes"/>
      <point x="773" y="688"/>
      <point x="709" y="626"/>
    </contour>
  </outline>
</glyph>
<glyph name="copyright" format="1">
  <advance width="1925"/>
  <unicode hex="00A9"/>
  <outline>
    <contour>
      <point x="962" y="270" type="curve" smooth="yes"/>
      <point x="1086" y="270"/>
      <point x="1213" y="307"/>
      <point x="1283" y="352" type="curve"/>
      <point x="1244" y="459" type="line"/>
      <point x="1188" y="420"/>
      <point x="1074" y="387"/>
      <point x="982" y="387" type="curve" smooth="yes"/>
      <point x="735" y="387"/>
      <point x="623" y="564"/>
      <point x="623" y="789" type="curve" smooth="yes"/>
      <point x="623" y="997"/>
      <point x="729" y="1182"/>
      <point x="963" y="1182" type="curve" smooth="yes"/>
      <point x="1056" y="1182"/>
      <point x="1158" y="1158"/>
      <point x="1220" y="1114" type="curve"/>
      <point x="1280" y="1211" type="line"/>
      <point x="1198" y="1268"/>
      <point x="1092" y="1301"/>
      <point x="972" y="1301" type="curve" smooth="yes"/>
      <point x="679" y="1301"/>
      <point x="487" y="1081"/>
      <point x="487" y="785" type="curve" smooth="yes"/>
      <point x="487" y="489"/>
      <point x="686" y="270"/>
    </contour>
    <contour>
      <point x="955" y="67" type="curve" smooth="yes"/>
      <point x="522" y="67"/>
      <point x="283" y="389"/>
      <point x="283" y="783" type="curve" smooth="yes"/>
      <point x="283" y="1169"/>
      <point x="521" y="1493"/>
      <point x="950" y="1493" type="curve" smooth="yes"/>
      <point x="1403" y="1493"/>
      <point x="1641" y="1168"/>
      <point x="1641" y="778" type="curve" smooth="yes"/>
      <point x="1641" y="387"/>
      <point x="1406" y="67"/>
    </contour>
    <contour>
      <point x="955" y="-26" type="curve" smooth="yes"/>
      <point x="1370" y="-26"/>
      <point x="1754" y="242"/>
      <point x="1754" y="781" type="curve" smooth="yes"/>
      <point x="1754" y="1316"/>
      <point x="1365" y="1586"/>
      <point x="950" y="1586" type="curve" smooth="yes"/>
      <point x="558" y="1586"/>
      <point x="170" y="1318"/>
      <point x="170" y="781" type="curve" smooth="yes"/>
      <point x="170" y="242"/>
      <point x="563" y="-26"/>
    </contour>
  </outline>
</glyph>
<glyph name="ordfeminine" format="1">
  <advance width="918"/>
  <unicode hex="00AA"/>
  <outline>
    <contour>
      <point x="406" y="826" type="curve" smooth="yes"/>
      <point x="494" y="826"/>
      <point x="559" y="866"/>
      <point x="599" y="926" type="curve"/>
      <point x="602" y="847" type="line"/>
      <point x="720" y="847" type="line"/>
      <point x="715" y="938"/>
      <point x="714" y="969"/>
      <point x="714" y="982" type="curve" smooth="yes"/>
      <point x="716" y="1330" type="line" smooth="yes"/>
      <point x="716" y="1517"/>
      <point x="605" y="1590"/>
      <point x="475" y="1590" type="curve" smooth="yes"/>
      <point x="364" y="1590"/>
      <point x="268" y="1561"/>
      <point x="193" y="1463" type="curve"/>
      <point x="254" y="1385" type="line"/>
      <point x="326" y="1467"/>
      <point x="396" y="1473"/>
      <point x="469" y="1473" type="curve" smooth="yes"/>
      <point x="567" y="1473"/>
      <point x="596" y="1424"/>
      <point x="599" y="1307" type="curve" smooth="yes"/>
      <point x="599" y="1301"/>
      <point x="599" y="1295"/>
      <point x="599" y="1289" type="curve"/>
      <point x="362" y="1274"/>
      <point x="184" y="1242"/>
      <point x="184" y="1050" type="curve" smooth="yes"/>
      <point x="184" y="913"/>
      <point x="279" y="826"/>
    </contour>
    <contour>
      <point x="190" y="635" type="line"/>
      <point x="735" y="635" type="line"/>
      <point x="735" y="741" type="line"/>
      <point x="190" y="741" type="line"/>
    </contour>
    <contour>
      <point x="425" y="937" type="curve" smooth="yes"/>
      <point x="353" y="937"/>
      <point x="303" y="968"/>
      <point x="303" y="1048" type="curve" smooth="yes"/>
      <point x="303" y="1187"/>
      <point x="475" y="1182"/>
      <point x="599" y="1195" type="curve"/>
      <point x="599" y="1168" type="line"/>
      <point x="594" y="1047"/>
      <point x="544" y="937"/>
    </contour>
  </outline>
</glyph>
<glyph name="logicalnot" format="1">
  <advance width="1331"/>
  <unicode hex="00AC"/>
  <outline>
    <contour>
      <point x="1154" y="825" type="line"/>
      <point x="163" y="825" type="line"/>
      <point x="163" y="681" type="line"/>
      <point x="1019" y="681" type="line"/>
      <point x="1019" y="260" type="line"/>
      <point x="1154" y="260" type="line"/>
    </contour>
  </outline>
</glyph>
<glyph name="registered" format="1">
  <advance width="1925"/>
  <unicode hex="00AE"/>
  <outline>
    <contour>
      <point x="966" y="1277" type="curve" smooth="yes"/>
      <point x="652" y="1277" type="line"/>
      <point x="652" y="301" type="line"/>
      <point x="784" y="301" type="line"/>
      <point x="784" y="716" type="line"/>
      <point x="967" y="716" type="line"/>
      <point x="1057" y="647"/>
      <point x="1158" y="419"/>
      <point x="1224" y="301" type="curve"/>
      <point x="1373" y="301" type="line"/>
      <point x="1234" y="531"/>
      <point x="1185" y="662"/>
      <point x="1093" y="735" type="curve"/>
      <point x="1290" y="759"/>
      <point x="1353" y="877"/>
      <point x="1353" y="1007" type="curve" smooth="yes"/>
      <point x="1353" y="1184"/>
      <point x="1229" y="1277"/>
    </contour>
    <contour>
      <point x="966" y="843" type="curve" smooth="yes"/>
      <point x="784" y="843" type="line"/>
      <point x="784" y="1149" type="line"/>
      <point x="956" y="1149" type="line" smooth="yes"/>
      <point x="1124" y="1149"/>
      <point x="1194" y="1131"/>
      <point x="1194" y="999" type="curve" smooth="yes"/>
      <point x="1194" y="871"/>
      <point x="1114" y="843"/>
    </contour>
    <contour>
      <point x="955" y="67" type="curve" smooth="yes"/>
      <point x="522" y="67"/>
      <point x="283" y="389"/>
      <point x="283" y="783" type="curve" smooth="yes"/>
      <point x="283" y="1169"/>
      <point x="521" y="1493"/>
      <point x="950" y="1493" type="curve" smooth="yes"/>
      <point x="1403" y="1493"/>
      <point x="1641" y="1168"/>
      <point x="1641" y="778" type="curve" smooth="yes"/>
      <point x="1641" y="387"/>
      <point x="1406" y="67"/>
    </contour>
    <contour>
      <point x="955" y="-26" type="curve" smooth="yes"/>
      <point x="1370" y="-26"/>
      <point x="1754" y="242"/>
      <point x="1754" y="781" type="curve" smooth="yes"/>
      <point x="1754" y="1316"/>
      <point x="1365" y="1586"/>
      <point x="950" y="1586" type="curve" smooth="yes"/>
      <point x="558" y="1586"/>
      <point x="170" y="1318"/>
      <point x="170" y="781" type="curve" smooth="yes"/>
      <point x="170" y="242"/>
      <point x="563" y="-26"/>
    </contour>
  </outline>
</glyph>
<glyph name="degree" format="1">
  <advance width="907"/>
  <unicode hex="00B0"/>
  <outline>
    <contour>
      <point x="451" y="1010" type="curve" smooth="yes"/>
      <point x="348" y="1010"/>
      <point x="262" y="1096"/>
      <point x="262" y="1205" type="curve" smooth="yes"/>
      <point x="262" y="1314"/>
      <point x="349" y="1399"/>
      <point x="451" y="1399" type="curve" smooth="yes"/>
      <point x="554" y="1399"/>
      <point x="640" y="1314"/>
      <point x="640" y="1205" type="curve" smooth="yes"/>
      <point x="640" y="1097"/>
      <point x="554" y="1010"/>
    </contour>
    <contour>
      <point x="450" y="889" type="curve" smooth="yes"/>
      <point x="626" y="889"/>
      <point x="762" y="1037"/>
      <point x="762" y="1205" type="curve" smooth="yes"/>
      <point x="762" y="1378"/>
      <point x="621" y="1519"/>
      <point x="450" y="1519" type="curve" smooth="yes"/>
      <point x="280" y="1519"/>
      <point x="139" y="1378"/>
      <point x="139" y="1205" type="curve" smooth="yes"/>
      <point x="139" y="1031"/>
      <point x="280" y="889"/>
    </contour>
  </outline>
</glyph>
<glyph name="plusminus" format="1">
  <advance width="1319"/>
  <unicode hex="00B1"/>
  <outline>
    <contour>
      <point x="589" y="790" type="line"/>
      <point x="175" y="790" type="line"/>
      <point x="175" y="647" type="line"/>
      <point x="590" y="647" type="line"/>
      <point x="590" y="233" type="line"/>
      <point x="727" y="233" type="line"/>
      <point x="727" y="647" type="line"/>
      <point x="1143" y="647" type="line"/>
      <point x="1143" y="790" type="line"/>
      <point x="725" y="790" type="line"/>
      <point x="725" y="1206" type="line"/>
      <point x="589" y="1206" type="line"/>
    </contour>
    <contour>
      <point x="175" y="0" type="line"/>
      <point x="1145" y="0" type="line"/>
      <point x="1145" y="143" type="line"/>
      <point x="175" y="143" type="line"/>
    </contour>
  </outline>
</glyph>
<glyph name="uni00B2" format="1">
  <advance width="843"/>
  <unicode hex="00B2"/>
  <outline>
    <contour>
      <point x="178" y="769" type="curve"/>
      <point x="178" y="650" type="line"/>
      <point x="659" y="650" type="line"/>
      <point x="659" y="778" type="line"/>
      <point x="341" y="778" type="line"/>
      <point x="520" y="965"/>
      <point x="661" y="1122"/>
      <point x="661" y="1305" type="curve" smooth="yes"/>
      <point x="661" y="1454"/>
      <point x="562" y="1551"/>
      <point x="431" y="1551" type="curve" smooth="yes"/>
      <point x="319" y="1551"/>
      <point x="227" y="1484"/>
      <point x="187" y="1367" type="curve"/>
      <point x="261" y="1282" type="line"/>
      <point x="296" y="1371"/>
      <point x="348" y="1424"/>
      <point x="424" y="1424" type="curve" smooth="yes"/>
      <point x="503" y="1424"/>
      <point x="548" y="1376"/>
      <point x="548" y="1303" type="curve" smooth="yes"/>
      <point x="548" y="1183"/>
      <point x="392" y="1010"/>
    </contour>
  </outline>
</glyph>
<glyph name="uni00B3" format="1">
  <advance width="832"/>
  <unicode hex="00B3"/>
  <outline>
    <contour>
      <point x="394" y="631" type="curve" smooth="yes"/>
      <point x="537" y="631"/>
      <point x="657" y="733"/>
      <point x="657" y="899" type="curve" smooth="yes"/>
      <point x="657" y="1003"/>
      <point x="614" y="1072"/>
      <point x="542" y="1112" type="curve"/>
      <point x="603" y="1152"/>
      <point x="637" y="1221"/>
      <point x="637" y="1305" type="curve" smooth="yes"/>
      <point x="637" y="1461"/>
      <point x="521" y="1553"/>
      <point x="398" y="1553" type="curve" smooth="yes"/>
      <point x="313" y="1553"/>
      <point x="230" y="1506"/>
      <point x="176" y="1442" type="curve"/>
      <point x="229" y="1339" type="line"/>
      <point x="280" y="1390"/>
      <point x="332" y="1424"/>
      <point x="396" y="1424" type="curve" smooth="yes"/>
      <point x="469" y="1424"/>
      <point x="522" y="1387"/>
      <point x="522" y="1303" type="curve" smooth="yes"/>
      <point x="522" y="1206"/>
      <point x="449" y="1174"/>
      <point x="348" y="1174" type="curve" smooth="yes"/>
      <point x="304" y="1174" type="line"/>
      <point x="304" y="1046" type="line"/>
      <point x="352" y="1046" type="line" smooth="yes"/>
      <point x="470" y="1046"/>
      <point x="542" y="1009"/>
      <point x="542" y="903" type="curve" smooth="yes"/>
      <point x="542" y="811"/>
      <point x="474" y="753"/>
      <point x="390" y="753" type="curve" smooth="yes"/>
      <point x="334" y="753"/>
      <point x="282" y="782"/>
      <point x="231" y="838" type="curve"/>
      <point x="176" y="735" type="line"/>
      <point x="233" y="667"/>
      <point x="310" y="631"/>
    </contour>
  </outline>
</glyph>
<glyph name="acute" format="1">
  <advance width="639"/>
  <unicode hex="00B4"/>
  <outline>
    <contour>
      <point x="128" y="1250" type="line"/>
      <point x="242" y="1250" type="line"/>
      <point x="567" y="1638" type="line"/>
      <point x="314" y="1638" type="line"/>
    </contour>
    <contour>
      <point x="347.5" y="1097" type="move"/>
    </contour>
  </outline>
</glyph>
<glyph name="paragraph" format="1">
  <advance width="1215"/>
  <unicode hex="00B6"/>
  <outline>
    <contour>
      <point x="513" y="847" type="curve"/>
      <point x="513" y="-158" type="line"/>
      <point x="638" y="-158" type="line"/>
      <point x="638" y="1430" type="line"/>
      <point x="857" y="1430" type="line"/>
      <point x="857" y="-158" type="line"/>
      <point x="972" y="-158" type="line"/>
      <point x="972" y="1430" type="line"/>
      <point x="1047" y="1430" type="line"/>
      <point x="1047" y="1561" type="line"/>
      <point x="581" y="1561" type="line" smooth="yes"/>
      <point x="258" y="1561"/>
      <point x="133" y="1388"/>
      <point x="133" y="1212" type="curve" smooth="yes"/>
      <point x="133" y="1033"/>
      <point x="291" y="851"/>
    </contour>
  </outline>
</glyph>
<glyph name="periodcentered" format="1">
  <advance width="499"/>
  <unicode hex="00B7"/>
  <outline>
    <contour>
      <point x="165" y="561" type="line"/>
      <point x="333" y="561" type="line"/>
      <point x="333" y="759" type="line"/>
      <point x="165" y="759" type="line"/>
    </contour>
  </outline>
</glyph>
<glyph name="cedilla" format="1">
  <advance width="596"/>
  <unicode hex="00B8"/>
  <outline>
    <contour>
      <point x="114" y="-410" type="line"/>
      <point x="268" y="-410" type="line"/>
      <point x="312" y="16" type="line"/>
      <point x="226" y="16" type="line"/>
    </contour>
    <contour>
      <point x="298" y="0" type="move"/>
    </contour>
  </outline>
</glyph>
<glyph name="uni00B9" format="1">
  <advance width="717"/>
  <unicode hex="00B9"/>
  <outline>
    <contour>
      <point x="307" y="1409" type="curve"/>
      <point x="307" y="746" type="line"/>
      <point x="189" y="746" type="line"/>
      <point x="189" y="650" type="line"/>
      <point x="546" y="650" type="line"/>
      <point x="546" y="746" type="line"/>
      <point x="422" y="746" type="line"/>
      <point x="422" y="1538" type="line"/>
      <point x="325" y="1539" type="line"/>
      <point x="285" y="1499"/>
      <point x="237" y="1467"/>
      <point x="176" y="1436" type="curve"/>
      <point x="176" y="1334" type="line"/>
      <point x="220" y="1357"/>
      <point x="269" y="1384"/>
    </contour>
  </outline>
</glyph>
<glyph name="ordmasculine" format="1">
  <advance width="938"/>
  <unicode hex="00BA"/>
  <outline>
    <contour>
      <point x="469" y="941" type="curve" smooth="yes"/>
      <point x="338" y="941"/>
      <point x="272" y="1058"/>
      <point x="272" y="1207" type="curve" smooth="yes"/>
      <point x="272" y="1351"/>
      <point x="342" y="1473"/>
      <point x="465" y="1473" type="curve" smooth="yes"/>
      <point x="592" y="1473"/>
      <point x="661" y="1351"/>
      <point x="661" y="1203" type="curve" smooth="yes"/>
      <point x="661" y="1062"/>
      <point x="594" y="941"/>
    </contour>
    <contour>
      <point x="469" y="826" type="curve" smooth="yes"/>
      <point x="671" y="826"/>
      <point x="785" y="994"/>
      <point x="785" y="1205" type="curve" smooth="yes"/>
      <point x="785" y="1419"/>
      <point x="671" y="1590"/>
      <point x="467" y="1590" type="curve" smooth="yes"/>
      <point x="264" y="1590"/>
      <point x="147" y="1422"/>
      <point x="147" y="1210" type="curve" smooth="yes"/>
      <point x="147" y="994"/>
      <point x="257" y="826"/>
    </contour>
  </outline>
</glyph>
<glyph name="guillemotright" format="1">
  <advance width="1133"/>
  <unicode hex="00BB"/>
  <outline>
    <contour>
      <point x="296" y="970" type="line"/>
      <point x="169" y="935" type="line"/>
      <point x="426" y="562" type="line"/>
      <point x="167" y="185" type="line"/>
      <point x="295" y="149" type="line"/>
      <point x="599" y="554" type="line"/>
    </contour>
    <contour>
      <point x="690" y="970" type="line"/>
      <point x="553" y="935" type="line"/>
      <point x="818" y="562" type="line"/>
      <point x="548" y="185" type="line"/>
      <point x="687" y="149" type="line"/>
      <point x="980" y="554" type="line"/>
    </contour>
  </outline>
</glyph>
<glyph name="threequarters" format="1">
  <advance width="1761"/>
  <unicode hex="00BE"/>
  <outline>
    <contour>
      <point x="390" y="631" type="curve" smooth="yes"/>
      <point x="535" y="631"/>
      <point x="677" y="733"/>
      <point x="677" y="899" type="curve" smooth="yes"/>
      <point x="677" y="1003"/>
      <point x="628" y="1072"/>
      <point x="544" y="1112" type="curve"/>
      <point x="616" y="1152"/>
      <point x="657" y="1221"/>
      <point x="657" y="1305" type="curve" smooth="yes"/>
      <point x="657" y="1461"/>
      <point x="519" y="1553"/>
      <point x="395" y="1553" type="curve" smooth="yes"/>
      <point x="310" y="1553"/>
      <point x="227" y="1506"/>
      <point x="173" y="1442" type="curve"/>
      <point x="223" y="1339" type="line"/>
      <point x="274" y="1390"/>
      <point x="330" y="1424"/>
      <point x="394" y="1424" type="curve" smooth="yes"/>
      <point x="467" y="1424"/>
      <point x="519" y="1387"/>
      <point x="519" y="1303" type="curve" smooth="yes"/>
      <point x="519" y="1206"/>
      <point x="446" y="1174"/>
      <point x="345" y="1174" type="curve" smooth="yes"/>
      <point x="301" y="1174" type="line"/>
      <point x="301" y="1046" type="line"/>
      <point x="350" y="1046" type="line" smooth="yes"/>
      <point x="467" y="1046"/>
      <point x="541" y="1009"/>
      <point x="541" y="903" type="curve" smooth="yes"/>
      <point x="541" y="811"/>
      <point x="469" y="753"/>
      <point x="385" y="753" type="curve" smooth="yes"/>
      <point x="329" y="753"/>
      <point x="276" y="782"/>
      <point x="225" y="838" type="curve"/>
      <point x="173" y="735" type="line"/>
      <point x="230" y="667"/>
      <point x="306" y="631"/>
    </contour>
    <contour>
      <point x="1378" y="903" type="line"/>
      <point x="999" y="343" type="line"/>
      <point x="999" y="245" type="line"/>
      <point x="1391" y="245" type="line"/>
      <point x="1391" y="44" type="line"/>
      <point x="1498" y="44" type="line"/>
      <point x="1498" y="245" type="line"/>
      <point x="1603" y="245" type="line"/>
      <point x="1595" y="361" type="line"/>
      <point x="1499" y="361" type="line"/>
      <point x="1499" y="903" type="line"/>
    </contour>
    <contour>
      <point x="388" y="0" type="line"/>
      <point x="522" y="0" type="line"/>
      <point x="1450" y="1547" type="line"/>
      <point x="1306" y="1547" type="line"/>
    </contour>
    <contour>
      <point x="1388" y="361" type="curve"/>
      <point x="1142" y="361" type="line"/>
      <point x="1391" y="721" type="line"/>
      <point x="1388" y="664"/>
      <point x="1388" y="608"/>
    </contour>
  </outline>
</glyph>
<glyph name="Eth" format="1">
  <advance width="1726"/>
  <unicode hex="00D0"/>
  <outline>
    <contour>
      <point x="782" y="155" type="curve" smooth="yes"/>
      <point x="467" y="155" type="line"/>
      <point x="467" y="697" type="line"/>
      <point x="709" y="697" type="line"/>
      <point x="709" y="832" type="line"/>
      <point x="467" y="832" type="line"/>
      <point x="467" y="1341" type="line"/>
      <point x="683" y="1341" type="line" smooth="yes"/>
      <point x="1092" y="1341"/>
      <point x="1366" y="1205"/>
      <point x="1366" y="734" type="curve" smooth="yes"/>
      <point x="1366" y="347"/>
      <point x="1148" y="155"/>
    </contour>
    <contour>
      <point x="290" y="832" type="line"/>
      <point x="172" y="832" type="line"/>
      <point x="172" y="697" type="line"/>
      <point x="290" y="697" type="line"/>
      <point x="290" y="0" type="line"/>
      <point x="764" y="0" type="line" smooth="yes"/>
      <point x="1236" y="0"/>
      <point x="1555" y="240"/>
      <point x="1555" y="738" type="curve" smooth="yes"/>
      <point x="1555" y="1315"/>
      <point x="1179" y="1496"/>
      <point x="662" y="1496" type="curve" smooth="yes"/>
      <point x="290" y="1496" type="line"/>
    </contour>
  </outline>
</glyph>
<glyph name="multiply" format="1">
  <advance width="1089"/>
  <unicode hex="00D7"/>
  <outline>
    <contour>
      <point x="450" y="604" type="line"/>
      <point x="165" y="278" type="line"/>
      <point x="273" y="181" type="line"/>
      <point x="545" y="494" type="line"/>
      <point x="817" y="181" type="line"/>
      <point x="925" y="278" type="line"/>
      <point x="640" y="604" type="line"/>
      <point x="925" y="932" type="line"/>
      <point x="819" y="1027" type="line"/>
      <point x="545" y="713" type="line"/>
      <point x="271" y="1027" type="line"/>
      <point x="165" y="932" type="line"/>
    </contour>
  </outline>
</glyph>
<glyph name="Oslash" format="1">
  <advance width="1806"/>
  <unicode hex="00D8"/>
  <outline>
    <contour>
      <point x="548" y="53" type="curve"/>
      <point x="471" y="-137" type="line"/>
      <point x="596" y="-180" type="line"/>
      <point x="671" y="5" type="line"/>
      <point x="741" y="-15"/>
      <point x="818" y="-25"/>
      <point x="903" y="-25" type="curve" smooth="yes"/>
      <point x="1383" y="-25"/>
      <point x="1633" y="311"/>
      <point x="1633" y="778" type="curve" smooth="yes"/>
      <point x="1633" y="1118"/>
      <point x="1508" y="1369"/>
      <point x="1279" y="1497" type="curve"/>
      <point x="1361" y="1699" type="line"/>
      <point x="1230" y="1745" type="line"/>
      <point x="1152" y="1551" type="line"/>
      <point x="1076" y="1574"/>
      <point x="993" y="1586"/>
      <point x="903" y="1586" type="curve" smooth="yes"/>
      <point x="440" y="1586"/>
      <point x="173" y="1270"/>
      <point x="173" y="778" type="curve" smooth="yes"/>
      <point x="173" y="446"/>
      <point x="301" y="178"/>
    </contour>
    <contour>
      <point x="1084" y="1382" type="curve"/>
      <point x="618" y="227" type="line"/>
      <point x="447" y="331"/>
      <point x="363" y="540"/>
      <point x="363" y="785" type="curve" smooth="yes"/>
      <point x="363" y="1133"/>
      <point x="542" y="1409"/>
      <point x="903" y="1409" type="curve" smooth="yes"/>
      <point x="970" y="1409"/>
      <point x="1030" y="1400"/>
    </contour>
    <contour>
      <point x="903" y="152" type="curve" smooth="yes"/>
      <point x="843" y="152"/>
      <point x="789" y="159"/>
      <point x="740" y="173" type="curve"/>
      <point x="1207" y="1322" type="line"/>
      <point x="1364" y="1213"/>
      <point x="1442" y="1015"/>
      <point x="1442" y="785" type="curve" smooth="yes"/>
      <point x="1442" y="429"/>
      <point x="1267" y="152"/>
    </contour>
  </outline>
</glyph>
<glyph name="Thorn" format="1">
  <advance width="1421"/>
  <unicode hex="00DE"/>
  <outline>
    <contour>
      <point x="696" y="1217" type="curve" smooth="yes"/>
      <point x="372" y="1217" type="line"/>
      <point x="372" y="1496" type="line"/>
      <point x="195" y="1496" type="line"/>
      <point x="195" y="0" type="line"/>
      <point x="372" y="0" type="line"/>
      <point x="372" y="349" type="line"/>
      <point x="372" y="349"/>
      <point x="759" y="342"/>
      <point x="767" y="342" type="curve" smooth="yes"/>
      <point x="1114" y="342"/>
      <point x="1257" y="525"/>
      <point x="1257" y="791" type="curve" smooth="yes"/>
      <point x="1257" y="1107"/>
      <point x="1056" y="1217"/>
    </contour>
    <contour>
      <point x="756" y="493" type="curve" smooth="yes"/>
      <point x="372" y="493" type="line"/>
      <point x="372" y="1068" type="line"/>
      <point x="714" y="1068" type="line" smooth="yes"/>
      <point x="989" y="1068"/>
      <point x="1088" y="979"/>
      <point x="1088" y="782" type="curve" smooth="yes"/>
      <point x="1088" y="615"/>
      <point x="1004" y="493"/>
    </contour>
  </outline>
</glyph>
<glyph name="germandbls" format="1">
  <advance width="1397"/>
  <unicode hex="00DF"/>
  <outline>
    <contour>
      <point x="191" y="1046" type="curve" smooth="yes"/>
      <point x="191" y="0" type="line"/>
      <point x="359" y="0" type="line"/>
      <point x="359" y="1056" type="line" smooth="yes"/>
      <point x="359" y="1246"/>
      <point x="437" y="1373"/>
      <point x="641" y="1373" type="curve" smooth="yes"/>
      <point x="764" y="1373"/>
      <point x="872" y="1303"/>
      <point x="872" y="1182" type="curve" smooth="yes"/>
      <point x="872" y="1045"/>
      <point x="746" y="1015"/>
      <point x="647" y="934" type="curve" smooth="yes"/>
      <point x="600" y="895"/>
      <point x="582" y="857"/>
      <point x="582" y="822" type="curve" smooth="yes"/>
      <point x="582" y="775"/>
      <point x="617" y="737"/>
      <point x="664" y="705" type="curve" smooth="yes"/>
      <point x="795" y="617"/>
      <point x="1050" y="518"/>
      <point x="1050" y="343" type="curve" smooth="yes"/>
      <point x="1050" y="224"/>
      <point x="975" y="148"/>
      <point x="844" y="148" type="curve" smooth="yes"/>
      <point x="532" y="148" type="line"/>
      <point x="516" y="0" type="line"/>
      <point x="859" y="0" type="line" smooth="yes"/>
      <point x="1075" y="0"/>
      <point x="1239" y="94"/>
      <point x="1239" y="348" type="curve" smooth="yes"/>
      <point x="1239" y="605"/>
      <point x="943" y="704"/>
      <point x="756" y="838" type="curve"/>
      <point x="908" y="933"/>
      <point x="1061" y="992"/>
      <point x="1061" y="1182" type="curve" smooth="yes"/>
      <point x="1061" y="1398"/>
      <point x="891" y="1525"/>
      <point x="641" y="1525" type="curve" smooth="yes"/>
      <point x="333" y="1525"/>
      <point x="191" y="1343"/>
    </contour>
  </outline>
</glyph>
<glyph name="ae" format="1">
  <advance width="1825"/>
  <unicode hex="00E6"/>
  <outline>
    <contour>
      <point x="486" y="-26" type="curve" smooth="yes"/>
      <point x="642" y="-26"/>
      <point x="820" y="39"/>
      <point x="938" y="112" type="curve"/>
      <point x="1018" y="24"/>
      <point x="1121" y="-25"/>
      <point x="1265" y="-25" type="curve" smooth="yes"/>
      <point x="1441" y="-25"/>
      <point x="1570" y="38"/>
      <point x="1651" y="108" type="curve"/>
      <point x="1599" y="229" type="line"/>
      <point x="1529" y="180"/>
      <point x="1405" y="119"/>
      <point x="1276" y="119" type="curve" smooth="yes"/>
      <point x="1063" y="119"/>
      <point x="980" y="275"/>
      <point x="964" y="509" type="curve"/>
      <point x="1461" y="534" type="line" smooth="yes"/>
      <point x="1622" y="542"/>
      <point x="1648" y="588"/>
      <point x="1648" y="684" type="curve" smooth="yes"/>
      <point x="1648" y="909"/>
      <point x="1547" y="1124"/>
      <point x="1274" y="1124" type="curve" smooth="yes"/>
      <point x="1129" y="1124"/>
      <point x="992" y="1063"/>
      <point x="919" y="932" type="curve"/>
      <point x="889" y="1062"/>
      <point x="761" y="1124"/>
      <point x="602" y="1124" type="curve" smooth="yes"/>
      <point x="452" y="1124"/>
      <point x="294" y="1078"/>
      <point x="214" y="1032" type="curve"/>
      <point x="250" y="894" type="line"/>
      <point x="333" y="938"/>
      <point x="469" y="976"/>
      <point x="606" y="976" type="curve" smooth="yes"/>
      <point x="747" y="976"/>
      <point x="796" y="914"/>
      <point x="796" y="781" type="curve" smooth="yes"/>
      <point x="796" y="616" type="line"/>
      <point x="733" y="613" type="line" smooth="yes"/>
      <point x="430" y="596"/>
      <point x="162" y="564"/>
      <point x="162" y="300" type="curve" smooth="yes"/>
      <point x="162" y="59"/>
      <point x="312" y="-26"/>
    </contour>
    <contour>
      <point x="498" y="113" type="curve" smooth="yes"/>
      <point x="402" y="113"/>
      <point x="330" y="158"/>
      <point x="330" y="291" type="curve" smooth="yes"/>
      <point x="330" y="410"/>
      <point x="408" y="471"/>
      <point x="729" y="495" type="curve" smooth="yes"/>
      <point x="749" y="497"/>
      <point x="771" y="498"/>
      <point x="793" y="499" type="curve"/>
      <point x="799" y="386"/>
      <point x="824" y="290"/>
      <point x="869" y="208" type="curve"/>
      <point x="755" y="170"/>
      <point x="609" y="113"/>
    </contour>
    <contour>
      <point x="1486" y="654" type="curve" smooth="yes"/>
      <point x="1486" y="644" type="line"/>
      <point x="970" y="615" type="line"/>
      <point x="981" y="821"/>
      <point x="1070" y="984"/>
      <point x="1271" y="984" type="curve" smooth="yes"/>
      <point x="1418" y="984"/>
      <point x="1484" y="882"/>
    </contour>
  </outline>
</glyph>
<glyph name="divide" format="1">
  <advance width="1302"/>
  <unicode hex="00F7"/>
  <outline>
    <contour>
      <point x="543" y="22" type="line"/>
      <point x="734" y="22" type="line"/>
      <point x="734" y="249" type="line"/>
      <point x="543" y="249" type="line"/>
    </contour>
    <contour>
      <point x="149" y="523" type="line"/>
      <point x="1150" y="523" type="line"/>
      <point x="1150" y="672" type="line"/>
      <point x="149" y="672" type="line"/>
    </contour>
    <contour>
      <point x="543" y="939" type="line"/>
      <point x="768" y="939" type="line"/>
      <point x="768" y="1166" type="line"/>
      <point x="543" y="1166" type="line"/>
    </contour>
  </outline>
</glyph>
<glyph name="oslash" format="1">
  <advance width="1359"/>
  <unicode hex="00F8"/>
  <outline>
    <contour>
      <point x="420" y="41" type="curve"/>
      <point x="302" y="-237" type="line"/>
      <point x="373" y="-275" type="line"/>
      <point x="493" y="7" type="line"/>
      <point x="549" y="-14"/>
      <point x="612" y="-25"/>
      <point x="681" y="-25" type="curve" smooth="yes"/>
      <point x="1010" y="-25"/>
      <point x="1189" y="245"/>
      <point x="1189" y="549" type="curve" smooth="yes"/>
      <point x="1189" y="770"/>
      <point x="1106" y="964"/>
      <point x="941" y="1060" type="curve"/>
      <point x="1058" y="1336" type="line"/>
      <point x="981" y="1367" type="line"/>
      <point x="866" y="1094" type="line"/>
      <point x="812" y="1113"/>
      <point x="751" y="1124"/>
      <point x="684" y="1124" type="curve" smooth="yes"/>
      <point x="352" y="1124"/>
      <point x="164" y="861"/>
      <point x="164" y="547" type="curve" smooth="yes"/>
      <point x="164" y="328"/>
      <point x="254" y="137"/>
    </contour>
    <contour>
      <point x="810" y="963" type="curve"/>
      <point x="479" y="182" type="line"/>
      <point x="382" y="262"/>
      <point x="337" y="401"/>
      <point x="337" y="544" type="curve" smooth="yes"/>
      <point x="337" y="768"/>
      <point x="445" y="986"/>
      <point x="681" y="986" type="curve" smooth="yes"/>
      <point x="730" y="986"/>
      <point x="773" y="978"/>
    </contour>
    <contour>
      <point x="684" y="113" type="curve" smooth="yes"/>
      <point x="633" y="113"/>
      <point x="588" y="122"/>
      <point x="549" y="139" type="curve"/>
      <point x="881" y="921" type="line"/>
      <point x="977" y="842"/>
      <point x="1015" y="700"/>
      <point x="1015" y="547" type="curve" smooth="yes"/>
      <point x="1015" y="323"/>
      <point x="921" y="113"/>
    </contour>
  </outline>
</glyph>
<glyph name="thorn" format="1">
  <advance width="1335"/>
  <unicode hex="00FE"/>
  <outline>
    <contour>
      <point x="364" y="933" type="curve"/>
      <point x="364" y="1510" type="line"/>
      <point x="196" y="1510" type="line"/>
      <point x="196" y="-459" type="line"/>
      <point x="364" y="-459" type="line"/>
      <point x="364" y="162" type="line"/>
      <point x="439" y="34"/>
      <point x="563" y="-25"/>
      <point x="715" y="-25" type="curve" smooth="yes"/>
      <point x="1023" y="-25"/>
      <point x="1171" y="268"/>
      <point x="1171" y="560" type="curve" smooth="yes"/>
      <point x="1171" y="879"/>
      <point x="991" y="1122"/>
      <point x="715" y="1124" type="curve" smooth="yes"/>
      <point x="566" y="1124"/>
      <point x="450" y="1060"/>
    </contour>
    <contour>
      <point x="696" y="113" type="curve" smooth="yes"/>
      <point x="457" y="113"/>
      <point x="362" y="320"/>
      <point x="362" y="551" type="curve" smooth="yes"/>
      <point x="362" y="781"/>
      <point x="477" y="986"/>
      <point x="703" y="986" type="curve" smooth="yes"/>
      <point x="932" y="986"/>
      <point x="998" y="743"/>
      <point x="998" y="551" type="curve" smooth="yes"/>
      <point x="998" y="360"/>
      <point x="930" y="113"/>
    </contour>
  </outline>
</glyph>
<glyph name="dcroat" format="1">
  <advance width="819"/>
  <unicode hex="0111"/>
  <outline>
    <contour>
      <point x="152" y="1229" type="line"/>
      <point x="660" y="1229" type="line"/>
      <point x="660" y="1341" type="line"/>
      <point x="152" y="1341" type="line"/>
    </contour>
    <component base="d"/>
  </outline>
</glyph>
<glyph name="Hbar" format="1">
  <advance width="1687"/>
  <unicode hex="0126"/>
  <outline>
    <contour>
      <point x="257" y="1251" type="line"/>
      <point x="167" y="1251" type="line"/>
      <point x="167" y="1146" type="line"/>
      <point x="257" y="1146" type="line"/>
      <point x="257" y="0" type="line"/>
      <point x="434" y="0" type="line"/>
      <point x="434" y="696" type="line"/>
      <point x="1251" y="696" type="line"/>
      <point x="1251" y="0" type="line"/>
      <point x="1428" y="0" type="line"/>
      <point x="1428" y="1146" type="line"/>
      <point x="1518" y="1146" type="line"/>
      <point x="1518" y="1251" type="line"/>
      <point x="1428" y="1251" type="line"/>
      <point x="1428" y="1496" type="line"/>
      <point x="1251" y="1496" type="line"/>
      <point x="1251" y="1251" type="line"/>
      <point x="434" y="1251" type="line"/>
      <point x="434" y="1496" type="line"/>
      <point x="257" y="1496" type="line"/>
    </contour>
    <contour>
      <point x="434" y="848" type="line"/>
      <point x="434" y="1146" type="line"/>
      <point x="1251" y="1146" type="line"/>
      <point x="1251" y="848" type="line"/>
    </contour>
  </outline>
</glyph>
<glyph name="hbar" format="1">
  <advance width="1328"/>
  <unicode hex="0127"/>
  <outline>
    <contour>
      <point x="256" y="1386" type="line"/>
      <point x="163" y="1386" type="line"/>
      <point x="163" y="1270" type="line"/>
      <point x="256" y="1270" type="line"/>
      <point x="256" y="0" type="line"/>
      <point x="424" y="0" type="line"/>
      <point x="424" y="748" type="line"/>
      <point x="451" y="852"/>
      <point x="590" y="980"/>
      <point x="761" y="980" type="curve" smooth="yes"/>
      <point x="948" y="980"/>
      <point x="981" y="865"/>
      <point x="981" y="617" type="curve" smooth="yes"/>
      <point x="981" y="0" type="line"/>
      <point x="1149" y="0" type="line"/>
      <point x="1149" y="664" type="line" smooth="yes"/>
      <point x="1149" y="952"/>
      <point x="1045" y="1124"/>
      <point x="816" y="1124" type="curve" smooth="yes"/>
      <point x="649" y="1124"/>
      <point x="517" y="1061"/>
      <point x="424" y="949" type="curve"/>
      <point x="424" y="1270" type="line"/>
      <point x="700" y="1270" type="line"/>
      <point x="700" y="1386" type="line"/>
      <point x="424" y="1386" type="line"/>
      <point x="424" y="1510" type="line"/>
      <point x="256" y="1490" type="line"/>
    </contour>
  </outline>
</glyph>
<glyph name="dotlessi" format="1">
  <advance width="540"/>
  <unicode hex="0131"/>
  <outline>
    <contour>
      <point x="186" y="0" type="line"/>
      <point x="355" y="0" type="line"/>
      <point x="355" y="1098" type="line"/>
      <point x="186" y="1098" type="line"/>
    </contour>
  </outline>
</glyph>
<glyph name="kgreenlandic" format="1">
  <advance width="1223"/>
  <unicode hex="0138"/>
  <outline>
    <contour>
      <point x="352" y="1098" type="curve"/>
      <point x="186" y="1098" type="line"/>
      <point x="186" y="0" type="line"/>
      <point x="352" y="0" type="line"/>
      <point x="352" y="410" type="line"/>
      <point x="474" y="515" type="line"/>
      <point x="875" y="0" type="line"/>
      <point x="1083" y="0" type="line"/>
      <point x="595" y="610" type="line"/>
      <point x="1051" y="1097" type="line"/>
      <point x="839" y="1097" type="line"/>
      <point x="691" y="940"/>
      <point x="516" y="758"/>
      <point x="389" y="612" type="curve" smooth="yes"/>
      <point x="376" y="598"/>
      <point x="364" y="584"/>
      <point x="352" y="571" type="curve"/>
      <point x="352" y="571"/>
      <point x="352" y="1098"/>
    </contour>
  </outline>
</glyph>
<glyph name="ldot" format="1">
  <advance width="498"/>
  <unicode hex="0140"/>
  <outline>
    <contour>
      <point x="164" y="561" type="line"/>
      <point x="332" y="561" type="line"/>
      <point x="332" y="759" type="line"/>
      <point x="164" y="759" type="line"/>
    </contour>
    <component base="l"/>
  </outline>
</glyph>
<glyph name="Lslash" format="1">
  <advance width="1267"/>
  <unicode hex="0141"/>
  <outline>
    <contour>
      <point x="316" y="756" type="line"/>
      <point x="168" y="675" type="line"/>
      <point x="168" y="527" type="line"/>
      <point x="316" y="606" type="line"/>
      <point x="316" y="0" type="line"/>
      <point x="1138" y="0" type="line"/>
      <point x="1150" y="155" type="line"/>
      <point x="493" y="155" type="line"/>
      <point x="493" y="701" type="line"/>
      <point x="843" y="889" type="line"/>
      <point x="843" y="1045" type="line"/>
      <point x="493" y="853" type="line"/>
      <point x="493" y="1496" type="line"/>
      <point x="316" y="1496" type="line"/>
    </contour>
  </outline>
</glyph>
<glyph name="lslash" format="1">
  <advance width="898"/>
  <unicode hex="0142"/>
  <outline>
    <contour>
      <point x="573" y="-21" type="curve" smooth="yes"/>
      <point x="592" y="-21"/>
      <point x="701" y="-13"/>
      <point x="751" y="-8" type="curve"/>
      <point x="736" y="128" type="line"/>
      <point x="687" y="124"/>
      <point x="625" y="118"/>
      <point x="598" y="118" type="curve" smooth="yes"/>
      <point x="455" y="118"/>
      <point x="451" y="192"/>
      <point x="451" y="431" type="curve" smooth="yes"/>
      <point x="451" y="703" type="line"/>
      <point x="627" y="839" type="line"/>
      <point x="627" y="985" type="line"/>
      <point x="451" y="848" type="line"/>
      <point x="451" y="1510" type="line"/>
      <point x="283" y="1490" type="line"/>
      <point x="283" y="718" type="line"/>
      <point x="171" y="631" type="line"/>
      <point x="171" y="486" type="line"/>
      <point x="283" y="573" type="line"/>
      <point x="283" y="468" type="line" smooth="yes"/>
      <point x="283" y="106"/>
      <point x="306" y="-21"/>
    </contour>
  </outline>
</glyph>
<glyph name="Eng" format="1">
  <advance width="1511"/>
  <unicode hex="014A"/>
  <outline>
    <contour>
      <point x="890" y="-328" type="curve" smooth="yes"/>
      <point x="1251" y="-328"/>
      <point x="1320" y="-143"/>
      <point x="1320" y="165" type="curve" smooth="yes"/>
      <point x="1320" y="1009" type="line" smooth="yes"/>
      <point x="1320" y="1341"/>
      <point x="1179" y="1520"/>
      <point x="908" y="1520" type="curve" smooth="yes"/>
      <point x="734" y="1520"/>
      <point x="554" y="1480"/>
      <point x="373" y="1284" type="curve"/>
      <point x="355" y="1496" type="line"/>
      <point x="195" y="1496" type="line"/>
      <point x="197" y="0" type="line"/>
      <point x="373" y="0" type="line"/>
      <point x="373" y="1089" type="line"/>
      <point x="468" y="1232"/>
      <point x="637" y="1358"/>
      <point x="855" y="1358" type="curve" smooth="yes"/>
      <point x="1071" y="1358"/>
      <point x="1145" y="1269"/>
      <point x="1145" y="1003" type="curve" smooth="yes"/>
      <point x="1145" y="171" type="line" smooth="yes"/>
      <point x="1145" y="-101"/>
      <point x="1122" y="-175"/>
      <point x="845" y="-175" type="curve" smooth="yes"/>
      <point x="824" y="-175"/>
      <point x="803" y="-174"/>
      <point x="667" y="-166" type="curve"/>
      <point x="690" y="-314" type="line"/>
      <point x="812" y="-326"/>
      <point x="862" y="-328"/>
    </contour>
  </outline>
</glyph>
<glyph name="eng" format="1">
  <advance width="1262"/>
  <unicode hex="014B"/>
  <outline>
    <contour>
      <point x="721" y="-141" type="curve" smooth="yes"/>
      <point x="678" y="-141" type="line"/>
      <point x="690" y="-283" type="line"/>
      <point x="761" y="-283" type="line" smooth="yes"/>
      <point x="1058" y="-283"/>
      <point x="1081" y="-148"/>
      <point x="1081" y="158" type="curve" smooth="yes"/>
      <point x="1081" y="657" type="line" smooth="yes"/>
      <point x="1081" y="965"/>
      <point x="976" y="1124"/>
      <point x="735" y="1124" type="curve" smooth="yes"/>
      <point x="583" y="1124"/>
      <point x="430" y="1052"/>
      <point x="345" y="935" type="curve"/>
      <point x="329" y="1098" type="line"/>
      <point x="185" y="1098" type="line"/>
      <point x="188" y="0" type="line"/>
      <point x="356" y="0" type="line"/>
      <point x="356" y="750" type="line"/>
      <point x="383" y="849"/>
      <point x="515" y="980"/>
      <point x="699" y="980" type="curve" smooth="yes"/>
      <point x="902" y="980"/>
      <point x="913" y="836"/>
      <point x="913" y="551" type="curve" smooth="yes"/>
      <point x="913" y="104" type="line" smooth="yes"/>
      <point x="913" y="-110"/>
      <point x="893" y="-141"/>
    </contour>
  </outline>
</glyph>
<glyph name="Tbar" format="1">
  <advance width="1280"/>
  <unicode hex="0166"/>
  <outline>
    <contour>
      <point x="550" y="654" type="line"/>
      <point x="381" y="654" type="line"/>
      <point x="381" y="531" type="line"/>
      <point x="550" y="531" type="line"/>
      <point x="550" y="0" type="line"/>
      <point x="727" y="0" type="line"/>
      <point x="727" y="531" type="line"/>
      <point x="889" y="531" type="line"/>
      <point x="889" y="654" type="line"/>
      <point x="727" y="654" type="line"/>
      <point x="727" y="1341" type="line"/>
      <point x="1175" y="1341" type="line"/>
      <point x="1175" y="1496" type="line"/>
      <point x="103" y="1496" type="line"/>
      <point x="103" y="1341" type="line"/>
      <point x="550" y="1341" type="line"/>
    </contour>
  </outline>
</glyph>
<glyph name="tbar" format="1">
  <advance width="982"/>
  <unicode hex="0167"/>
  <outline>
    <contour>
      <point x="625" y="-20" type="curve" smooth="yes"/>
      <point x="659" y="-20"/>
      <point x="690" y="-18"/>
      <point x="815" y="-7" type="curve"/>
      <point x="800" y="129" type="line"/>
      <point x="723" y="123"/>
      <point x="683" y="118"/>
      <point x="664" y="118" type="curve" smooth="yes"/>
      <point x="530" y="118"/>
      <point x="505" y="162"/>
      <point x="505" y="367" type="curve" smooth="yes"/>
      <point x="505" y="638" type="line"/>
      <point x="714" y="638" type="line"/>
      <point x="714" y="764" type="line"/>
      <point x="505" y="764" type="line"/>
      <point x="505" y="980" type="line"/>
      <point x="796" y="980" type="line"/>
      <point x="796" y="1098" type="line"/>
      <point x="505" y="1098" type="line"/>
      <point x="505" y="1355" type="line"/>
      <point x="381" y="1346" type="line"/>
      <point x="337" y="1098" type="line"/>
      <point x="183" y="1098" type="line"/>
      <point x="170" y="980" type="line"/>
      <point x="337" y="980" type="line"/>
      <point x="337" y="764" type="line"/>
      <point x="182" y="764" type="line"/>
      <point x="182" y="638" type="line"/>
      <point x="337" y="638" type="line"/>
      <point x="337" y="445" type="line" smooth="yes"/>
      <point x="337" y="111"/>
      <point x="358" y="-20"/>
    </contour>
  </outline>
</glyph>
<glyph name="uni018F" format="1">
  <advance width="1627"/>
  <unicode hex="018F"/>
  <outline>
    <contour>
      <point x="794" y="-23" type="curve" smooth="yes"/>
      <point x="1187" y="-23"/>
      <point x="1455" y="309"/>
      <point x="1455" y="757" type="curve" smooth="yes"/>
      <point x="1455" y="1180"/>
      <point x="1209" y="1525"/>
      <point x="739" y="1525" type="curve" smooth="yes"/>
      <point x="534" y="1525"/>
      <point x="412" y="1479"/>
      <point x="284" y="1384" type="curve"/>
      <point x="351" y="1250" type="line"/>
      <point x="452" y="1316"/>
      <point x="569" y="1373"/>
      <point x="725" y="1373" type="curve" smooth="yes"/>
      <point x="1110" y="1373"/>
      <point x="1260" y="1086"/>
      <point x="1266" y="777" type="curve"/>
      <point x="177" y="777" type="line"/>
      <point x="177" y="777"/>
      <point x="170" y="686"/>
      <point x="170" y="641" type="curve" smooth="yes"/>
      <point x="184" y="337"/>
      <point x="344" y="-23"/>
    </contour>
    <contour>
      <point x="798" y="129" type="curve" smooth="yes"/>
      <point x="441" y="129"/>
      <point x="364" y="417"/>
      <point x="350" y="631" type="curve"/>
      <point x="1258" y="631" type="line"/>
      <point x="1225" y="351"/>
      <point x="1062" y="129"/>
    </contour>
  </outline>
</glyph>
<glyph name="florin" format="1">
  <advance width="1107"/>
  <unicode hex="0192"/>
  <outline>
    <contour>
      <point x="178" y="-358" type="curve" smooth="yes"/>
      <point x="406" y="-358"/>
      <point x="471" y="-127"/>
      <point x="519" y="130" type="curve" smooth="yes"/>
      <point x="652" y="865" type="line"/>
      <point x="849" y="865" type="line"/>
      <point x="860" y="1015" type="line"/>
      <point x="674" y="1015" type="line"/>
      <point x="713" y="1227" type="line" smooth="yes"/>
      <point x="729" y="1334"/>
      <point x="762" y="1393"/>
      <point x="866" y="1393" type="curve" smooth="yes"/>
      <point x="894" y="1393"/>
      <point x="926" y="1385"/>
      <point x="962" y="1369" type="curve"/>
      <point x="970" y="1525" type="line"/>
      <point x="927" y="1537"/>
      <point x="881" y="1547"/>
      <point x="842" y="1547" type="curve" smooth="yes"/>
      <point x="623" y="1547"/>
      <point x="546" y="1370"/>
      <point x="519" y="1178" type="curve" smooth="yes"/>
      <point x="497" y="1015" type="line"/>
      <point x="324" y="1015" type="line"/>
      <point x="313" y="865" type="line"/>
      <point x="471" y="865" type="line"/>
      <point x="418" y="583"/>
      <point x="378" y="281"/>
      <point x="314" y="6" type="curve" smooth="yes"/>
      <point x="290" y="-110"/>
      <point x="252" y="-210"/>
      <point x="167" y="-210" type="curve" smooth="yes"/>
      <point x="148" y="-210"/>
      <point x="125" y="-203"/>
      <point x="98" y="-192" type="curve"/>
      <point x="87" y="-339" type="line"/>
      <point x="123" y="-350"/>
      <point x="153" y="-358"/>
    </contour>
  </outline>
</glyph>
<glyph name="uni0259" format="1">
  <advance width="1258"/>
  <unicode hex="0259"/>
  <outline>
    <contour>
      <point x="604" y="-25" type="curve"/>
      <point x="604" y="-25"/>
      <point x="1097" y="220"/>
      <point x="1097" y="548" type="curve" smooth="yes"/>
      <point x="1097" y="901"/>
      <point x="906" y="1124"/>
      <point x="593" y="1124" type="curve" smooth="yes"/>
      <point x="417" y="1124"/>
      <point x="278" y="1069"/>
      <point x="188" y="992" type="curve"/>
      <point x="240" y="870" type="line"/>
      <point x="318" y="923"/>
      <point x="432" y="980"/>
      <point x="588" y="980" type="curve" smooth="yes"/>
      <point x="781" y="980"/>
      <point x="925" y="827"/>
      <point x="925" y="580" type="curve"/>
      <point x="174" y="580" type="line"/>
      <point x="174" y="561"/>
      <point x="172" y="521"/>
      <point x="172" y="505" type="curve" smooth="yes"/>
      <point x="172" y="181"/>
      <point x="331" y="-25"/>
    </contour>
    <contour>
      <point x="614" y="111" type="curve" smooth="yes"/>
      <point x="451" y="111"/>
      <point x="334" y="230"/>
      <point x="334" y="464" type="curve"/>
      <point x="919" y="464" type="line"/>
      <point x="900" y="248"/>
      <point x="780" y="111"/>
    </contour>
  </outline>
</glyph>
<glyph name="tilde" format="1">
  <advance width="885"/>
  <unicode hex="02DC"/>
  <outline>
    <contour>
      <point x="115" y="1291" type="curve"/>
      <point x="222" y="1291" type="line"/>
      <point x="225" y="1346"/>
      <point x="244" y="1387"/>
      <point x="277" y="1388" type="curve"/>
      <point x="277" y="1388"/>
      <point x="499" y="1291"/>
      <point x="589" y="1291" type="curve" smooth="yes"/>
      <point x="695" y="1291"/>
      <point x="738" y="1373"/>
      <point x="738" y="1510" type="curve"/>
      <point x="629" y="1510" type="line"/>
      <point x="626" y="1468"/>
      <point x="622" y="1419"/>
      <point x="582" y="1416" type="curve"/>
      <point x="582" y="1416"/>
      <point x="411" y="1510"/>
      <point x="287" y="1510" type="curve" smooth="yes"/>
      <point x="180" y="1510"/>
      <point x="115" y="1441"/>
    </contour>
    <contour>
      <point x="426.5" y="1097" type="move"/>
    </contour>
  </outline>
</glyph>
<glyph name="uni0307" format="1">
  <advance width="464"/>
  <unicode hex="0307"/>
  <outline>
    <contour>
      <point x="146" y="1298" type="line"/>
      <point x="314" y="1298" type="line"/>
      <point x="314" y="1496" type="line"/>
      <point x="146" y="1496" type="line"/>
    </contour>
  </outline>
</glyph>
<glyph name="uni030F" format="1">
  <advance width="889"/>
  <unicode hex="030F"/>
  <outline>
    <contour>
      <point x="365" y="1259" type="line"/>
      <point x="467" y="1259" type="line"/>
      <point x="265" y="1594" type="line"/>
      <point x="115" y="1594" type="line"/>
    </contour>
    <contour>
      <point x="633" y="1259" type="line"/>
      <point x="735" y="1259" type="line"/>
      <point x="537" y="1594" type="line"/>
      <point x="386" y="1594" type="line"/>
    </contour>
  </outline>
</glyph>
<glyph name="uni0311" format="1">
  <advance width="793"/>
  <unicode hex="0311"/>
  <outline>
    <contour>
      <point x="143" y="1299" type="curve"/>
      <point x="259" y="1299" type="line"/>
      <point x="259" y="1395"/>
      <point x="319" y="1440"/>
      <point x="392" y="1440" type="curve" smooth="yes"/>
      <point x="465" y="1440"/>
      <point x="528" y="1395"/>
      <point x="528" y="1299" type="curve"/>
      <point x="645" y="1299" type="line"/>
      <point x="645" y="1471"/>
      <point x="516" y="1557"/>
      <point x="392" y="1557" type="curve" smooth="yes"/>
      <point x="269" y="1557"/>
      <point x="143" y="1471"/>
    </contour>
  </outline>
</glyph>
<glyph name="horncmb" format="1">
  <advance width="557"/>
  <unicode hex="031B"/>
  <outline>
    <contour>
      <point x="247" y="156" type="curve" smooth="yes"/>
      <point x="348" y="156"/>
      <point x="398" y="245"/>
      <point x="398" y="351" type="curve" smooth="yes"/>
      <point x="398" y="400"/>
      <point x="388" y="452"/>
      <point x="367" y="501" type="curve"/>
      <point x="250" y="501" type="line"/>
      <point x="265" y="460"/>
      <point x="280" y="403"/>
      <point x="280" y="354" type="curve" smooth="yes"/>
      <point x="280" y="299"/>
      <point x="262" y="254"/>
      <point x="204" y="254" type="curve" smooth="yes"/>
      <point x="187" y="254"/>
      <point x="170" y="256"/>
      <point x="155" y="256" type="curve"/>
      <point x="155" y="162" type="line"/>
      <point x="186" y="159"/>
      <point x="218" y="156"/>
    </contour>
  </outline>
</glyph>
<glyph name="commaaccentcomb" format="1">
  <advance width="508"/>
  <unicode hex="0326"/>
  <outline>
    <contour>
      <point x="111" y="-648" type="line"/>
      <point x="227" y="-648" type="line"/>
      <point x="371" y="-150" type="line"/>
      <point x="206" y="-150" type="line"/>
    </contour>
  </outline>
</glyph>
<glyph name="Omegatonos" format="1">
  <advance width="587"/>
  <unicode hex="038F"/>
  <outline>
    <contour>
      <point x="292" y="532" type="curve" smooth="yes"/>
      <point x="381" y="532"/>
      <point x="425" y="598"/>
      <point x="425" y="664" type="curve" smooth="yes"/>
      <point x="425" y="730"/>
      <point x="381" y="796"/>
      <point x="292" y="796" type="curve" smooth="yes"/>
      <point x="204" y="796"/>
      <point x="159" y="730"/>
      <point x="159" y="664" type="curve" smooth="yes"/>
      <point x="159" y="598"/>
      <point x="204" y="532"/>
    </contour>
  </outline>
</glyph>
<glyph name="Delta" format="1">
  <advance width="1542"/>
  <unicode hex="0394"/>
  <outline>
    <contour>
      <point x="128" y="0" type="line"/>
      <point x="1413" y="0" type="line"/>
      <point x="862" y="1496" type="line"/>
      <point x="677" y="1496" type="line"/>
    </contour>
    <contour>
      <point x="1176" y="155" type="line"/>
      <point x="369" y="155" type="line"/>
      <point x="770" y="1306" type="line"/>
    </contour>
  </outline>
</glyph>
<glyph name="Lambda" format="1">
  <advance width="1542"/>
  <unicode hex="039B"/>
  <outline>
    <contour>
      <point x="1231" y="0" type="line"/>
      <point x="1413" y="0" type="line"/>
      <point x="862" y="1496" type="line"/>
      <point x="677" y="1496" type="line"/>
      <point x="128" y="0" type="line"/>
      <point x="315" y="0" type="line"/>
      <point x="770" y="1306" type="line"/>
    </contour>
  </outline>
</glyph>
<glyph name="Pi" format="1">
  <advance width="1559"/>
  <unicode hex="03A0"/>
  <outline>
    <contour>
      <point x="1189" y="0" type="line"/>
      <point x="1366" y="0" type="line"/>
      <point x="1366" y="1496" type="line"/>
      <point x="195" y="1496" type="line"/>
      <point x="195" y="0" type="line"/>
      <point x="372" y="0" type="line"/>
      <point x="372" y="1344" type="line"/>
      <point x="1189" y="1344" type="line"/>
    </contour>
  </outline>
</glyph>
<glyph name="pi" format="1">
  <advance width="1449"/>
  <unicode hex="03C0"/>
  <outline>
    <contour>
      <point x="1151" y="-8" type="curve" smooth="yes"/>
      <point x="1186" y="-8"/>
      <point x="1224" y="-2"/>
      <point x="1269" y="6" type="curve"/>
      <point x="1269" y="172" type="line"/>
      <point x="1240" y="164"/>
      <point x="1212" y="158"/>
      <point x="1193" y="158" type="curve" smooth="yes"/>
      <point x="1107" y="158"/>
      <point x="1105" y="248"/>
      <point x="1105" y="312" type="curve" smooth="yes"/>
      <point x="1105" y="976" type="line"/>
      <point x="1287" y="976" type="line"/>
      <point x="1287" y="1120" type="line"/>
      <point x="461" y="1120" type="line" smooth="yes"/>
      <point x="304" y="1120"/>
      <point x="210" y="1109"/>
      <point x="151" y="1053" type="curve"/>
      <point x="167" y="911" type="line"/>
      <point x="232" y="954"/>
      <point x="304" y="973"/>
      <point x="411" y="976" type="curve"/>
      <point x="403" y="663"/>
      <point x="377" y="189"/>
      <point x="289" y="0" type="curve"/>
      <point x="437" y="0" type="line"/>
      <point x="513" y="144"/>
      <point x="545" y="566"/>
      <point x="561" y="976" type="curve"/>
      <point x="967" y="976" type="line"/>
      <point x="967" y="301" type="line" smooth="yes"/>
      <point x="967" y="79"/>
      <point x="1011" y="-8"/>
    </contour>
  </outline>
</glyph>
<glyph name="afii10051" format="1">
  <advance width="1246"/>
  <unicode hex="0402"/>
  <outline>
    <contour>
      <point x="1157" y="1496" type="line"/>
      <point x="85" y="1496" type="line"/>
      <point x="85" y="1341" type="line"/>
      <point x="532" y="1341" type="line"/>
      <point x="532" y="0" type="line"/>
      <point x="709" y="0" type="line"/>
      <point x="709" y="1341" type="line"/>
      <point x="1157" y="1341" type="line"/>
    </contour>
  </outline>
</glyph>
<glyph name="afii10053" format="1">
  <advance width="1472"/>
  <unicode hex="0404"/>
  <outline>
    <contour>
      <point x="875" y="-23" type="curve" smooth="yes"/>
      <point x="1072" y="-23"/>
      <point x="1220" y="29"/>
      <point x="1323" y="113" type="curve"/>
      <point x="1259" y="248" type="line"/>
      <point x="1176" y="184"/>
      <point x="1037" y="129"/>
      <point x="884" y="129" type="curve" smooth="yes"/>
      <point x="564" y="129"/>
      <point x="393" y="370"/>
      <point x="364" y="664" type="curve"/>
      <point x="1053" y="664" type="line"/>
      <point x="1053" y="818" type="line"/>
      <point x="362" y="818" type="line"/>
      <point x="380" y="1111"/>
      <point x="527" y="1373"/>
      <point x="895" y="1373" type="curve" smooth="yes"/>
      <point x="1045" y="1373"/>
      <point x="1178" y="1316"/>
      <point x="1260" y="1250" type="curve"/>
      <point x="1318" y="1395" type="line"/>
      <point x="1219" y="1483"/>
      <point x="1075" y="1525"/>
      <point x="881" y="1525" type="curve" smooth="yes"/>
      <point x="411" y="1525"/>
      <point x="171" y="1180"/>
      <point x="171" y="757" type="curve" smooth="yes"/>
      <point x="171" y="315"/>
      <point x="414" y="-23"/>
    </contour>
  </outline>
</glyph>
<glyph name="afii10055" format="1">
  <advance width="564"/>
  <unicode hex="0406"/>
  <outline>
    <contour>
      <point x="195" y="0" type="line"/>
      <point x="371" y="0" type="line"/>
      <point x="371" y="1497" type="line"/>
      <point x="195" y="1497" type="line"/>
    </contour>
  </outline>
</glyph>
<glyph name="afii10059" format="1">
  <advance width="1818"/>
  <unicode hex="040A"/>
  <outline>
    <contour>
      <point x="797" y="871" type="line"/>
      <point x="372" y="871" type="line"/>
      <point x="372" y="1496" type="line"/>
      <point x="195" y="1496" type="line"/>
      <point x="195" y="0" type="line"/>
      <point x="372" y="0" type="line"/>
      <point x="372" y="716" type="line"/>
      <point x="797" y="716" type="line"/>
      <point x="797" y="0" type="line"/>
      <point x="1192" y="0" type="line" smooth="yes"/>
      <point x="1476" y="0"/>
      <point x="1660" y="139"/>
      <point x="1660" y="428" type="curve" smooth="yes"/>
      <point x="1660" y="743"/>
      <point x="1468" y="871"/>
      <point x="1192" y="871" type="curve" smooth="yes"/>
      <point x="974" y="871" type="line"/>
      <point x="974" y="1496" type="line"/>
      <point x="797" y="1496" type="line"/>
    </contour>
    <contour>
      <point x="1192" y="160" type="curve" smooth="yes"/>
      <point x="974" y="160" type="line"/>
      <point x="974" y="716" type="line"/>
      <point x="1192" y="716" type="line" smooth="yes"/>
      <point x="1361" y="716"/>
      <point x="1478" y="607"/>
      <point x="1478" y="431" type="curve" smooth="yes"/>
      <point x="1478" y="255"/>
      <point x="1357" y="160"/>
    </contour>
  </outline>
</glyph>
<glyph name="afii10060" format="1">
  <advance width="1246"/>
  <unicode hex="040B"/>
  <outline>
    <contour>
      <point x="1157" y="1496" type="line"/>
      <point x="85" y="1496" type="line"/>
      <point x="85" y="1341" type="line"/>
      <point x="532" y="1341" type="line"/>
      <point x="532" y="0" type="line"/>
      <point x="709" y="0" type="line"/>
      <point x="709" y="1341" type="line"/>
      <point x="1157" y="1341" type="line"/>
    </contour>
  </outline>
</glyph>
<glyph name="afii10145" format="1">
  <advance width="1557"/>
  <unicode hex="040F"/>
  <outline>
    <contour>
      <point x="1187" y="154" type="line"/>
      <point x="372" y="154" type="line"/>
      <point x="372" y="1496" type="line"/>
      <point x="195" y="1496" type="line"/>
      <point x="195" y="0" type="line"/>
      <point x="1364" y="0" type="line"/>
      <point x="1364" y="1496" type="line"/>
      <point x="1187" y="1496" type="line"/>
    </contour>
  </outline>
</glyph>
<glyph name="afii10019" format="1">
  <advance width="1404"/>
  <unicode hex="0412"/>
  <outline>
    <contour>
      <point x="602" y="1496" type="curve" smooth="yes"/>
      <point x="195" y="1496" type="line"/>
      <point x="195" y="0" type="line"/>
      <point x="689" y="0" type="line" smooth="yes"/>
      <point x="1078" y="0"/>
      <point x="1232" y="163"/>
      <point x="1232" y="426" type="curve" smooth="yes"/>
      <point x="1232" y="585"/>
      <point x="1146" y="761"/>
      <point x="958" y="801" type="curve"/>
      <point x="1109" y="851"/>
      <point x="1170" y="988"/>
      <point x="1170" y="1131" type="curve" smooth="yes"/>
      <point x="1170" y="1395"/>
      <point x="963" y="1496"/>
    </contour>
    <contour>
      <point x="656" y="142" type="curve" smooth="yes"/>
      <point x="372" y="142" type="line"/>
      <point x="372" y="708" type="line"/>
      <point x="707" y="708" type="line" smooth="yes"/>
      <point x="931" y="708"/>
      <point x="1052" y="616"/>
      <point x="1052" y="428" type="curve" smooth="yes"/>
      <point x="1052" y="227"/>
      <point x="916" y="142"/>
    </contour>
    <contour>
      <point x="687" y="846" type="curve" smooth="yes"/>
      <point x="372" y="846" type="line"/>
      <point x="372" y="1349" type="line"/>
      <point x="576" y="1349" type="line" smooth="yes"/>
      <point x="819" y="1349"/>
      <point x="985" y="1321"/>
      <point x="985" y="1096" type="curve" smooth="yes"/>
      <point x="985" y="885"/>
      <point x="826" y="846"/>
    </contour>
  </outline>
</glyph>
<glyph name="afii10021" format="1">
  <advance width="1588"/>
  <unicode hex="0414"/>
  <outline>
    <contour>
      <point x="1307" y="1496" type="line"/>
      <point x="637" y="1496" type="line"/>
      <point x="285" y="152" type="line"/>
      <point x="128" y="152" type="line"/>
      <point x="128" y="-265" type="line"/>
      <point x="305" y="-265" type="line"/>
      <point x="305" y="0" type="line"/>
      <point x="1246" y="0" type="line"/>
      <point x="1246" y="-265" type="line"/>
      <point x="1423" y="-265" type="line"/>
      <point x="1423" y="152" type="line"/>
      <point x="1307" y="152" type="line"/>
    </contour>
    <contour>
      <point x="481" y="152" type="line"/>
      <point x="781" y="1354" type="line"/>
      <point x="1130" y="1354" type="line"/>
      <point x="1130" y="152" type="line"/>
    </contour>
  </outline>
</glyph>
<glyph name="afii10024" format="1">
  <advance width="2080"/>
  <unicode hex="0416"/>
  <outline>
    <contour>
      <point x="953" y="789" type="line"/>
      <point x="413" y="1497" type="line"/>
      <point x="202" y="1497" type="line"/>
      <point x="714" y="824" type="line"/>
      <point x="124" y="0" type="line"/>
      <point x="346" y="0" type="line"/>
      <point x="848" y="716" type="line"/>
      <point x="953" y="578" type="line"/>
      <point x="953" y="0" type="line"/>
      <point x="1129" y="0" type="line"/>
      <point x="1129" y="578" type="line"/>
      <point x="1243" y="725" type="line"/>
      <point x="1735" y="0" type="line"/>
      <point x="1956" y="0" type="line"/>
      <point x="1377" y="833" type="line"/>
      <point x="1879" y="1497" type="line"/>
      <point x="1666" y="1497" type="line"/>
      <point x="1129" y="789" type="line"/>
      <point x="1129" y="1497" type="line"/>
      <point x="953" y="1497" type="line"/>
    </contour>
  </outline>
</glyph>
<glyph name="afii10025" format="1">
  <advance width="1288"/>
  <unicode hex="0417"/>
  <outline>
    <contour>
      <point x="592" y="-23" type="curve" smooth="yes"/>
      <point x="940" y="-23"/>
      <point x="1115" y="148"/>
      <point x="1115" y="402" type="curve" smooth="yes"/>
      <point x="1115" y="587"/>
      <point x="981" y="737"/>
      <point x="842" y="769" type="curve"/>
      <point x="971" y="807"/>
      <point x="1079" y="955"/>
      <point x="1079" y="1134" type="curve" smooth="yes"/>
      <point x="1079" y="1295"/>
      <point x="936" y="1524"/>
      <point x="625" y="1524" type="curve" smooth="yes"/>
      <point x="445" y="1524"/>
      <point x="291" y="1488"/>
      <point x="179" y="1403" type="curve"/>
      <point x="245" y="1270" type="line"/>
      <point x="336" y="1323"/>
      <point x="484" y="1372"/>
      <point x="614" y="1372" type="curve" smooth="yes"/>
      <point x="767" y="1372"/>
      <point x="896" y="1280"/>
      <point x="905" y="1113" type="curve"/>
      <point x="905" y="1113"/>
      <point x="818" y="837"/>
      <point x="605" y="837" type="curve" smooth="yes"/>
      <point x="478" y="837" type="line"/>
      <point x="478" y="677" type="line"/>
      <point x="596" y="677" type="line" smooth="yes"/>
      <point x="843" y="677"/>
      <point x="939" y="543"/>
      <point x="939" y="403" type="curve" smooth="yes"/>
      <point x="939" y="208"/>
      <point x="776" y="129"/>
      <point x="589" y="129" type="curve" smooth="yes"/>
      <point x="437" y="129"/>
      <point x="291" y="183"/>
      <point x="205" y="246" type="curve"/>
      <point x="142" y="103" type="line"/>
      <point x="242" y="34"/>
      <point x="395" y="-23"/>
    </contour>
  </outline>
</glyph>
<glyph name="afii10026" format="1">
  <advance width="1583"/>
  <unicode hex="0418"/>
  <outline>
    <contour>
      <point x="358" y="261" type="curve"/>
      <point x="358" y="1497" type="line"/>
      <point x="195" y="1497" type="line"/>
      <point x="195" y="0" type="line"/>
      <point x="394" y="0" type="line"/>
      <point x="1229" y="1230" type="line"/>
      <point x="1229" y="0" type="line"/>
      <point x="1390" y="0" type="line"/>
      <point x="1390" y="1497" type="line"/>
      <point x="1197" y="1497" type="line"/>
      <point x="1184" y="1477"/>
      <point x="1170" y="1458"/>
      <point x="1157" y="1438" type="curve" smooth="yes"/>
      <point x="891" y="1045"/>
      <point x="619" y="659"/>
    </contour>
  </outline>
</glyph>
<glyph name="afii10028" format="1">
  <advance width="1242"/>
  <unicode hex="041A"/>
  <outline>
    <contour>
      <point x="621" y="1479" type="move"/>
    </contour>
    <component base="K"/>
  </outline>
</glyph>
<glyph name="afii10033" format="1">
  <advance width="1557"/>
  <unicode hex="041F"/>
  <outline>
    <contour>
      <point x="1187" y="0" type="line"/>
      <point x="1364" y="0" type="line"/>
      <point x="1364" y="1496" type="line"/>
      <point x="195" y="1496" type="line"/>
      <point x="195" y="0" type="line"/>
      <point x="372" y="0" type="line"/>
      <point x="372" y="1342" type="line"/>
      <point x="1187" y="1342" type="line"/>
    </contour>
  </outline>
</glyph>
<glyph name="afii10037" format="1">
  <advance width="1416"/>
  <unicode hex="0423"/>
  <outline>
    <contour>
      <point x="733" y="637" type="line"/>
      <point x="297" y="1496" type="line"/>
      <point x="96" y="1496" type="line"/>
      <point x="626" y="466" type="line"/>
      <point x="439" y="0" type="line"/>
      <point x="635" y="0" type="line"/>
      <point x="1309" y="1496" type="line"/>
      <point x="1112" y="1496" type="line"/>
    </contour>
  </outline>
</glyph>
<glyph name="afii10038" format="1">
  <advance width="1856"/>
  <unicode hex="0424"/>
  <outline>
    <contour>
      <point x="838" y="128" type="curve"/>
      <point x="838" y="0" type="line"/>
      <point x="1001" y="0" type="line"/>
      <point x="1001" y="126" type="line"/>
      <point x="1427" y="155"/>
      <point x="1690" y="370"/>
      <point x="1690" y="745" type="curve" smooth="yes"/>
      <point x="1690" y="1120"/>
      <point x="1427" y="1335"/>
      <point x="1001" y="1364" type="curve"/>
      <point x="1001" y="1496" type="line"/>
      <point x="838" y="1496" type="line"/>
      <point x="838" y="1362" type="line"/>
      <point x="406" y="1325"/>
      <point x="165" y="1099"/>
      <point x="165" y="745" type="curve" smooth="yes"/>
      <point x="165" y="391"/>
      <point x="406" y="165"/>
    </contour>
    <contour>
      <point x="838" y="1205" type="curve"/>
      <point x="838" y="285" type="line"/>
      <point x="507" y="320"/>
      <point x="354" y="489"/>
      <point x="354" y="745" type="curve" smooth="yes"/>
      <point x="354" y="1000"/>
      <point x="507" y="1170"/>
    </contour>
    <contour>
      <point x="1001" y="284" type="curve"/>
      <point x="1001" y="1207" type="line"/>
      <point x="1347" y="1175"/>
      <point x="1501" y="1001"/>
      <point x="1501" y="745" type="curve" smooth="yes"/>
      <point x="1501" y="489"/>
      <point x="1347" y="316"/>
    </contour>
  </outline>
</glyph>
<glyph name="afii10041" format="1">
  <advance width="1337"/>
  <unicode hex="0427"/>
  <outline>
    <contour>
      <point x="967" y="682" type="curve"/>
      <point x="967" y="0" type="line"/>
      <point x="1144" y="0" type="line"/>
      <point x="1144" y="1496" type="line"/>
      <point x="967" y="1496" type="line"/>
      <point x="967" y="873" type="line" smooth="yes"/>
      <point x="967" y="806"/>
      <point x="771" y="672"/>
      <point x="627" y="672" type="curve" smooth="yes"/>
      <point x="442" y="672"/>
      <point x="352" y="775"/>
      <point x="352" y="1014" type="curve" smooth="yes"/>
      <point x="352" y="1496" type="line"/>
      <point x="175" y="1496" type="line"/>
      <point x="175" y="916" type="line" smooth="yes"/>
      <point x="175" y="653"/>
      <point x="337" y="507"/>
      <point x="590" y="507" type="curve" smooth="yes"/>
      <point x="729" y="507"/>
      <point x="887" y="564"/>
    </contour>
  </outline>
</glyph>
<glyph name="afii10042" format="1">
  <advance width="1765"/>
  <unicode hex="0428"/>
  <outline>
    <contour>
      <point x="794" y="155" type="line"/>
      <point x="372" y="155" type="line"/>
      <point x="372" y="1496" type="line"/>
      <point x="195" y="1496" type="line"/>
      <point x="195" y="0" type="line"/>
      <point x="1572" y="0" type="line"/>
      <point x="1572" y="1496" type="line"/>
      <point x="1395" y="1496" type="line"/>
      <point x="1395" y="155" type="line"/>
      <point x="971" y="155" type="line"/>
      <point x="971" y="1496" type="line"/>
      <point x="794" y="1496" type="line"/>
    </contour>
  </outline>
</glyph>
<glyph name="afii10043" format="1">
  <advance width="1852"/>
  <unicode hex="0429"/>
  <outline>
    <contour>
      <point x="372" y="1496" type="line"/>
      <point x="195" y="1496" type="line"/>
      <point x="195" y="0" type="line"/>
      <point x="1510" y="0" type="line"/>
      <point x="1510" y="-265" type="line"/>
      <point x="1687" y="-265" type="line"/>
      <point x="1687" y="155" type="line"/>
      <point x="1573" y="155" type="line"/>
      <point x="1573" y="1496" type="line"/>
      <point x="1396" y="1496" type="line"/>
      <point x="1396" y="155" type="line"/>
      <point x="972" y="155" type="line"/>
      <point x="972" y="1496" type="line"/>
      <point x="795" y="1496" type="line"/>
      <point x="795" y="155" type="line"/>
      <point x="372" y="155" type="line"/>
    </contour>
  </outline>
</glyph>
<glyph name="afii10044" format="1">
  <advance width="1554"/>
  <unicode hex="042A"/>
  <outline>
    <contour>
      <point x="648" y="1496" type="line"/>
      <point x="86" y="1496" type="line"/>
      <point x="86" y="1341" type="line"/>
      <point x="471" y="1341" type="line"/>
      <point x="471" y="0" type="line"/>
      <point x="858" y="0" type="line" smooth="yes"/>
      <point x="1203" y="0"/>
      <point x="1398" y="139"/>
      <point x="1398" y="428" type="curve" smooth="yes"/>
      <point x="1398" y="717"/>
      <point x="1203" y="849"/>
      <point x="858" y="849" type="curve" smooth="yes"/>
      <point x="648" y="849" type="line"/>
    </contour>
    <contour>
      <point x="879" y="156" type="curve" smooth="yes"/>
      <point x="648" y="156" type="line"/>
      <point x="648" y="696" type="line"/>
      <point x="879" y="696" type="line" smooth="yes"/>
      <point x="1131" y="696"/>
      <point x="1232" y="593"/>
      <point x="1232" y="431" type="curve" smooth="yes"/>
      <point x="1232" y="255"/>
      <point x="1127" y="156"/>
    </contour>
  </outline>
</glyph>
<glyph name="afii10046" format="1">
  <advance width="1228"/>
  <unicode hex="042C"/>
  <outline>
    <contour>
      <point x="508" y="849" type="curve" smooth="yes"/>
      <point x="372" y="849" type="line"/>
      <point x="372" y="1496" type="line"/>
      <point x="195" y="1496" type="line"/>
      <point x="195" y="0" type="line"/>
      <point x="515" y="0" type="line" smooth="yes"/>
      <point x="889" y="0"/>
      <point x="1073" y="173"/>
      <point x="1073" y="435" type="curve" smooth="yes"/>
      <point x="1073" y="706"/>
      <point x="849" y="849"/>
    </contour>
    <contour>
      <point x="535" y="155" type="curve" smooth="yes"/>
      <point x="372" y="155" type="line"/>
      <point x="372" y="696" type="line"/>
      <point x="528" y="696" type="line" smooth="yes"/>
      <point x="791" y="696"/>
      <point x="906" y="600"/>
      <point x="906" y="431" type="curve" smooth="yes"/>
      <point x="906" y="255"/>
      <point x="788" y="155"/>
    </contour>
  </outline>
</glyph>
<glyph name="afii10047" format="1">
  <advance width="1476"/>
  <unicode hex="042D"/>
  <outline>
    <contour>
      <point x="600" y="-23" type="curve" smooth="yes"/>
      <point x="1061" y="-23"/>
      <point x="1304" y="315"/>
      <point x="1304" y="757" type="curve" smooth="yes"/>
      <point x="1304" y="1180"/>
      <point x="1067" y="1525"/>
      <point x="603" y="1525" type="curve" smooth="yes"/>
      <point x="405" y="1525"/>
      <point x="258" y="1483"/>
      <point x="157" y="1395" type="curve"/>
      <point x="215" y="1250" type="line"/>
      <point x="297" y="1316"/>
      <point x="430" y="1373"/>
      <point x="580" y="1373" type="curve" smooth="yes"/>
      <point x="948" y="1373"/>
      <point x="1095" y="1111"/>
      <point x="1113" y="818" type="curve"/>
      <point x="422" y="818" type="line"/>
      <point x="422" y="664" type="line"/>
      <point x="1111" y="664" type="line"/>
      <point x="1082" y="370"/>
      <point x="911" y="129"/>
      <point x="591" y="129" type="curve" smooth="yes"/>
      <point x="438" y="129"/>
      <point x="299" y="184"/>
      <point x="216" y="248" type="curve"/>
      <point x="152" y="113" type="line"/>
      <point x="255" y="29"/>
      <point x="403" y="-23"/>
    </contour>
  </outline>
</glyph>
<glyph name="afii10048" format="1">
  <advance width="2161"/>
  <unicode hex="042E"/>
  <outline>
    <contour>
      <point x="1337" y="-23" type="curve" smooth="yes"/>
      <point x="1757" y="-23"/>
      <point x="1989" y="322"/>
      <point x="1989" y="742" type="curve" smooth="yes"/>
      <point x="1989" y="1189"/>
      <point x="1747" y="1525"/>
      <point x="1328" y="1525" type="curve" smooth="yes"/>
      <point x="941" y="1525"/>
      <point x="720" y="1240"/>
      <point x="688" y="837" type="curve"/>
      <point x="372" y="837" type="line"/>
      <point x="372" y="1495" type="line"/>
      <point x="195" y="1495" type="line"/>
      <point x="195" y="0" type="line"/>
      <point x="372" y="0" type="line"/>
      <point x="372" y="686" type="line"/>
      <point x="685" y="686" type="line"/>
      <point x="714" y="295"/>
      <point x="941" y="-23"/>
    </contour>
    <contour>
      <point x="1339" y="129" type="curve" smooth="yes"/>
      <point x="1029" y="129"/>
      <point x="873" y="420"/>
      <point x="873" y="746" type="curve" smooth="yes"/>
      <point x="873" y="1073"/>
      <point x="1022" y="1373"/>
      <point x="1330" y="1373" type="curve" smooth="yes"/>
      <point x="1648" y="1373"/>
      <point x="1800" y="1065"/>
      <point x="1800" y="748" type="curve" smooth="yes"/>
      <point x="1800" y="415"/>
      <point x="1648" y="129"/>
    </contour>
  </outline>
</glyph>
<glyph name="afii10049" format="1">
  <advance width="1467"/>
  <unicode hex="042F"/>
  <outline>
    <contour>
      <point x="154" y="0" type="curve"/>
      <point x="357" y="0" type="line"/>
      <point x="552" y="403" type="line"/>
      <point x="670" y="648" type="line"/>
      <point x="709" y="645"/>
      <point x="760" y="639"/>
      <point x="912" y="639" type="curve" smooth="yes"/>
      <point x="1097" y="639" type="line"/>
      <point x="1097" y="0" type="line"/>
      <point x="1274" y="0" type="line"/>
      <point x="1274" y="1496" type="line"/>
      <point x="788" y="1496" type="line" smooth="yes"/>
      <point x="419" y="1496"/>
      <point x="218" y="1363"/>
      <point x="218" y="1074" type="curve" smooth="yes"/>
      <point x="218" y="882"/>
      <point x="323" y="745"/>
      <point x="492" y="681" type="curve"/>
      <point x="492" y="681"/>
      <point x="442" y="582"/>
      <point x="379" y="457" type="curve" smooth="yes"/>
      <point x="299" y="298"/>
      <point x="199" y="96"/>
    </contour>
    <contour>
      <point x="747" y="1341" type="curve" smooth="yes"/>
      <point x="1097" y="1341" type="line"/>
      <point x="1097" y="792" type="line"/>
      <point x="747" y="792" type="line" smooth="yes"/>
      <point x="466" y="792"/>
      <point x="388" y="903"/>
      <point x="388" y="1072" type="curve" smooth="yes"/>
      <point x="388" y="1248"/>
      <point x="494" y="1341"/>
    </contour>
  </outline>
</glyph>
<glyph name="afii10066" format="1">
  <advance width="1187"/>
  <unicode hex="0431"/>
  <outline>
    <contour>
      <point x="354" y="956" type="line"/>
      <point x="915" y="956" type="line"/>
      <point x="915" y="1098" type="line"/>
      <point x="186" y="1098" type="line"/>
      <point x="186" y="0" type="line"/>
      <point x="636" y="0" type="line" smooth="yes"/>
      <point x="905" y="0"/>
      <point x="1026" y="188"/>
      <point x="1026" y="368" type="curve" smooth="yes"/>
      <point x="1026" y="548"/>
      <point x="905" y="715"/>
      <point x="636" y="715" type="curve" smooth="yes"/>
      <point x="354" y="715" type="line"/>
    </contour>
    <contour>
      <point x="654" y="134" type="curve" smooth="yes"/>
      <point x="354" y="134" type="line"/>
      <point x="354" y="579" type="line"/>
      <point x="654" y="579" type="line" smooth="yes"/>
      <point x="787" y="579"/>
      <point x="864" y="470"/>
      <point x="864" y="371" type="curve" smooth="yes"/>
      <point x="864" y="272"/>
      <point x="787" y="134"/>
    </contour>
  </outline>
</glyph>
<glyph name="afii10067" format="1">
  <advance width="1203"/>
  <unicode hex="0432"/>
  <outline>
    <contour>
      <point x="638" y="1098" type="curve" smooth="yes"/>
      <point x="186" y="1098" type="line"/>
      <point x="186" y="0" type="line"/>
      <point x="638" y="0" type="line" smooth="yes"/>
      <point x="914" y="0"/>
      <point x="1039" y="150"/>
      <point x="1039" y="316" type="curve"/>
      <point x="1034" y="412"/>
      <point x="979" y="524"/>
      <point x="859" y="575" type="curve"/>
      <point x="962" y="625"/>
      <point x="1005" y="719"/>
      <point x="1005" y="808" type="curve" smooth="yes"/>
      <point x="1005" y="956"/>
      <point x="897" y="1098"/>
    </contour>
    <contour>
      <point x="647" y="134" type="curve" smooth="yes"/>
      <point x="354" y="134" type="line"/>
      <point x="354" y="500" type="line"/>
      <point x="647" y="500" type="line" smooth="yes"/>
      <point x="795" y="500"/>
      <point x="873" y="410"/>
      <point x="878" y="326" type="curve"/>
      <point x="878" y="212"/>
      <point x="795" y="134"/>
    </contour>
    <contour>
      <point x="647" y="637" type="curve" smooth="yes"/>
      <point x="354" y="637" type="line"/>
      <point x="354" y="956" type="line"/>
      <point x="647" y="956" type="line" smooth="yes"/>
      <point x="780" y="956"/>
      <point x="845" y="887"/>
      <point x="845" y="796" type="curve" smooth="yes"/>
      <point x="845" y="719"/>
      <point x="780" y="637"/>
    </contour>
  </outline>
</glyph>
<glyph name="afii10068" format="1">
  <advance width="866"/>
  <unicode hex="0433"/>
  <outline>
    <contour>
      <point x="354" y="956" type="line"/>
      <point x="720" y="956" type="line"/>
      <point x="720" y="1098" type="line"/>
      <point x="186" y="1098" type="line"/>
      <point x="186" y="0" type="line"/>
      <point x="354" y="0" type="line"/>
    </contour>
  </outline>
</glyph>
<glyph name="afii10069" format="1">
  <advance width="1328"/>
  <unicode hex="0434"/>
  <outline>
    <contour>
      <point x="233" y="136" type="curve"/>
      <point x="137" y="136" type="line"/>
      <point x="137" y="-268" type="line"/>
      <point x="295" y="-268" type="line"/>
      <point x="295" y="0" type="line"/>
      <point x="1000" y="0" type="line"/>
      <point x="1000" y="-268" type="line"/>
      <point x="1163" y="-268" type="line"/>
      <point x="1163" y="134" type="line"/>
      <point x="1076" y="134" type="line"/>
      <point x="1076" y="1098" type="line"/>
      <point x="381" y="1098" type="line"/>
      <point x="349" y="581" type="line" smooth="yes"/>
      <point x="341" y="449"/>
      <point x="316" y="236"/>
    </contour>
    <contour>
      <point x="524" y="634" type="curve"/>
      <point x="536" y="956" type="line"/>
      <point x="908" y="956" type="line"/>
      <point x="908" y="134" type="line"/>
      <point x="421" y="134" type="line"/>
      <point x="472" y="269"/>
      <point x="506" y="436"/>
    </contour>
  </outline>
</glyph>
<glyph name="afii10072" format="1">
  <advance width="1763"/>
  <unicode hex="0436"/>
  <outline>
    <contour>
      <point x="799" y="593" type="line"/>
      <point x="354" y="1098" type="line"/>
      <point x="155" y="1098" type="line"/>
      <point x="647" y="562" type="line"/>
      <point x="145" y="0" type="line"/>
      <point x="348" y="0" type="line"/>
      <point x="799" y="509" type="line"/>
      <point x="799" y="0" type="line"/>
      <point x="964" y="0" type="line"/>
      <point x="964" y="509" type="line"/>
      <point x="1415" y="0" type="line"/>
      <point x="1618" y="0" type="line"/>
      <point x="1116" y="562" type="line"/>
      <point x="1608" y="1098" type="line"/>
      <point x="1409" y="1098" type="line"/>
      <point x="964" y="593" type="line"/>
      <point x="964" y="1098" type="line"/>
      <point x="799" y="1098" type="line"/>
    </contour>
  </outline>
</glyph>
<glyph name="afii10073" format="1">
  <advance width="1125"/>
  <unicode hex="0437"/>
  <outline>
    <contour>
      <point x="514" y="-25" type="curve" smooth="yes"/>
      <point x="833" y="-25"/>
      <point x="960" y="130"/>
      <point x="960" y="311" type="curve" smooth="yes"/>
      <point x="955" y="419"/>
      <point x="909" y="532"/>
      <point x="758" y="574" type="curve"/>
      <point x="896" y="629"/>
      <point x="925" y="726"/>
      <point x="925" y="819" type="curve" smooth="yes"/>
      <point x="925" y="972"/>
      <point x="816" y="1124"/>
      <point x="517" y="1124" type="curve" smooth="yes"/>
      <point x="390" y="1124"/>
      <point x="241" y="1096"/>
      <point x="160" y="1013" type="curve"/>
      <point x="175" y="978"/>
      <point x="218" y="890"/>
      <point x="218" y="890" type="curve"/>
      <point x="266" y="937"/>
      <point x="397" y="986"/>
      <point x="513" y="986" type="curve" smooth="yes"/>
      <point x="689" y="986"/>
      <point x="762" y="908"/>
      <point x="762" y="806" type="curve" smooth="yes"/>
      <point x="762" y="727"/>
      <point x="706" y="633"/>
      <point x="568" y="633" type="curve" smooth="yes"/>
      <point x="374" y="633" type="line"/>
      <point x="374" y="502" type="line"/>
      <point x="568" y="502" type="line" smooth="yes"/>
      <point x="723" y="502"/>
      <point x="796" y="408"/>
      <point x="796" y="317" type="curve" smooth="yes"/>
      <point x="796" y="204"/>
      <point x="706" y="114"/>
      <point x="526" y="114" type="curve" smooth="yes"/>
      <point x="406" y="114"/>
      <point x="286" y="144"/>
      <point x="218" y="201" type="curve"/>
      <point x="199" y="154"/>
      <point x="181" y="133"/>
      <point x="160" y="86" type="curve"/>
      <point x="237" y="6"/>
      <point x="387" y="-25"/>
    </contour>
  </outline>
</glyph>
<glyph name="afii10074" format="1">
  <advance width="1258"/>
  <unicode hex="0438"/>
  <outline>
    <contour>
      <point x="905" y="995" type="line"/>
      <point x="354" y="261" type="line"/>
      <point x="354" y="1098" type="line"/>
      <point x="186" y="1098" type="line"/>
      <point x="186" y="0" type="line"/>
      <point x="344" y="0" type="line"/>
      <point x="905" y="746" type="line"/>
      <point x="905" y="0" type="line"/>
      <point x="1073" y="0" type="line"/>
      <point x="1073" y="1098" type="line"/>
      <point x="905" y="1098" type="line"/>
    </contour>
  </outline>
</glyph>
<glyph name="afii10076" format="1">
  <advance width="1211"/>
  <unicode hex="043A"/>
  <outline>
    <contour>
      <point x="556" y="834" type="curve" smooth="yes"/>
      <point x="354" y="605" type="line"/>
      <point x="354" y="1098" type="line"/>
      <point x="186" y="1098" type="line"/>
      <point x="186" y="0" type="line"/>
      <point x="354" y="0" type="line"/>
      <point x="354" y="474" type="line"/>
      <point x="834" y="0" type="line"/>
      <point x="1061" y="0" type="line"/>
      <point x="494" y="542" type="line"/>
      <point x="595" y="642" type="line" smooth="yes"/>
      <point x="759" y="805"/>
      <point x="841" y="956"/>
      <point x="936" y="956" type="curve" smooth="yes"/>
      <point x="957" y="956"/>
      <point x="981" y="951"/>
      <point x="1008" y="947" type="curve"/>
      <point x="1008" y="1098" type="line"/>
      <point x="972" y="1105"/>
      <point x="958" y="1110"/>
      <point x="931" y="1110" type="curve" smooth="yes"/>
      <point x="776" y="1110"/>
      <point x="729" y="1030"/>
    </contour>
  </outline>
</glyph>
<glyph name="afii10077" format="1">
  <advance width="1369"/>
  <unicode hex="043B"/>
  <outline>
    <contour>
      <point x="188" y="128" type="curve" smooth="yes"/>
      <point x="141" y="128" type="line"/>
      <point x="151" y="-25" type="line"/>
      <point x="188" y="-25" type="line" smooth="yes"/>
      <point x="493" y="-25"/>
      <point x="497" y="91"/>
      <point x="497" y="419" type="curve" smooth="yes"/>
      <point x="497" y="956" type="line"/>
      <point x="1016" y="956" type="line"/>
      <point x="1016" y="0" type="line"/>
      <point x="1184" y="0" type="line"/>
      <point x="1184" y="1098" type="line"/>
      <point x="329" y="1098" type="line"/>
      <point x="329" y="409" type="line" smooth="yes"/>
      <point x="329" y="185"/>
      <point x="327" y="128"/>
    </contour>
  </outline>
</glyph>
<glyph name="afii10078" format="1">
  <advance width="1320"/>
  <unicode hex="043C"/>
  <outline>
    <contour>
      <point x="988" y="1098" type="line"/>
      <point x="660" y="583" type="line"/>
      <point x="334" y="1098" type="line"/>
      <point x="186" y="1098" type="line"/>
      <point x="186" y="0" type="line"/>
      <point x="354" y="0" type="line"/>
      <point x="354" y="811" type="line"/>
      <point x="613" y="385" type="line"/>
      <point x="720" y="385" type="line"/>
      <point x="967" y="811" type="line"/>
      <point x="967" y="0" type="line"/>
      <point x="1135" y="0" type="line"/>
      <point x="1135" y="1098" type="line"/>
    </contour>
  </outline>
</glyph>
<glyph name="afii10079" format="1">
  <advance width="1258"/>
  <unicode hex="043D"/>
  <outline>
    <contour>
      <point x="905" y="653" type="line"/>
      <point x="354" y="653" type="line"/>
      <point x="354" y="1098" type="line"/>
      <point x="186" y="1098" type="line"/>
      <point x="186" y="0" type="line"/>
      <point x="354" y="0" type="line"/>
      <point x="354" y="518" type="line"/>
      <point x="905" y="518" type="line"/>
      <point x="905" y="0" type="line"/>
      <point x="1073" y="0" type="line"/>
      <point x="1073" y="1098" type="line"/>
      <point x="905" y="1098" type="line"/>
    </contour>
  </outline>
</glyph>
<glyph name="afii10081" format="1">
  <advance width="1258"/>
  <unicode hex="043F"/>
  <outline>
    <contour>
      <point x="905" y="0" type="line"/>
      <point x="1073" y="0" type="line"/>
      <point x="1073" y="1098" type="line"/>
      <point x="186" y="1098" type="line"/>
      <point x="186" y="0" type="line"/>
      <point x="354" y="0" type="line"/>
      <point x="354" y="956" type="line"/>
      <point x="905" y="956" type="line"/>
    </contour>
  </outline>
</glyph>
<glyph name="afii10084" format="1">
  <advance width="1052"/>
  <unicode hex="0442"/>
  <outline>
    <contour>
      <point x="904" y="1098" type="line"/>
      <point x="142" y="1098" type="line"/>
      <point x="142" y="956" type="line"/>
      <point x="443" y="956" type="line"/>
      <point x="443" y="0" type="line"/>
      <point x="611" y="0" type="line"/>
      <point x="611" y="956" type="line"/>
      <point x="904" y="956" type="line"/>
    </contour>
  </outline>
</glyph>
<glyph name="afii10085" format="1">
  <advance width="1287"/>
  <unicode hex="0443"/>
  <outline>
    <contour>
      <point x="267" y="-245" type="curve" smooth="yes"/>
      <point x="194" y="-245" type="line"/>
      <point x="220" y="-410" type="line"/>
      <point x="277" y="-410" type="line" smooth="yes"/>
      <point x="639" y="-410"/>
      <point x="635" y="-298"/>
      <point x="751" y="22" type="curve" smooth="yes"/>
      <point x="1140" y="1098" type="line"/>
      <point x="957" y="1098" type="line"/>
      <point x="652" y="202" type="line"/>
      <point x="330" y="1098" type="line"/>
      <point x="145" y="1098" type="line"/>
      <point x="554" y="30" type="line"/>
      <point x="477" y="-210"/>
      <point x="475" y="-245"/>
    </contour>
  </outline>
</glyph>
<glyph name="afii10086" format="1">
  <advance width="1561"/>
  <unicode hex="0444"/>
  <outline>
    <contour>
      <point x="696" y="57" type="curve"/>
      <point x="696" y="-195" type="line"/>
      <point x="864" y="-195" type="line"/>
      <point x="864" y="57" type="line"/>
      <point x="911" y="38"/>
      <point x="959" y="32"/>
      <point x="1004" y="32" type="curve" smooth="yes"/>
      <point x="1238" y="32"/>
      <point x="1399" y="274"/>
      <point x="1399" y="558" type="curve" smooth="yes"/>
      <point x="1399" y="844"/>
      <point x="1240" y="1070"/>
      <point x="1003" y="1070" type="curve" smooth="yes"/>
      <point x="958" y="1070"/>
      <point x="911" y="1058"/>
      <point x="864" y="1039" type="curve"/>
      <point x="864" y="1312" type="line"/>
      <point x="696" y="1312" type="line"/>
      <point x="696" y="1039" type="line"/>
      <point x="649" y="1058"/>
      <point x="599" y="1070"/>
      <point x="556" y="1070" type="curve" smooth="yes"/>
      <point x="318" y="1070"/>
      <point x="162" y="844"/>
      <point x="162" y="558" type="curve" smooth="yes"/>
      <point x="162" y="273"/>
      <point x="321" y="32"/>
      <point x="554" y="32" type="curve" smooth="yes"/>
      <point x="599" y="32"/>
      <point x="649" y="38"/>
    </contour>
    <contour>
      <point x="559" y="168" type="curve" smooth="yes"/>
      <point x="417" y="168"/>
      <point x="336" y="359"/>
      <point x="336" y="556" type="curve" smooth="yes"/>
      <point x="336" y="755"/>
      <point x="414" y="934"/>
      <point x="556" y="934" type="curve" smooth="yes"/>
      <point x="599" y="934"/>
      <point x="645" y="931"/>
      <point x="696" y="906" type="curve"/>
      <point x="696" y="196" type="line"/>
      <point x="648" y="174"/>
      <point x="602" y="168"/>
    </contour>
    <contour>
      <point x="1000" y="168" type="curve" smooth="yes"/>
      <point x="957" y="168"/>
      <point x="912" y="173"/>
      <point x="864" y="198" type="curve"/>
      <point x="864" y="902" type="line"/>
      <point x="915" y="927"/>
      <point x="958" y="934"/>
      <point x="1003" y="934" type="curve" smooth="yes"/>
      <point x="1144" y="934"/>
      <point x="1225" y="755"/>
      <point x="1225" y="556" type="curve" smooth="yes"/>
      <point x="1225" y="359"/>
      <point x="1141" y="168"/>
    </contour>
  </outline>
</glyph>
<glyph name="afii10088" format="1">
  <advance width="1277"/>
  <unicode hex="0446"/>
  <outline>
    <contour>
      <point x="354" y="1098" type="line"/>
      <point x="186" y="1098" type="line"/>
      <point x="186" y="0" type="line"/>
      <point x="971" y="0" type="line"/>
      <point x="981" y="-269" type="line"/>
      <point x="1114" y="-269" type="line"/>
      <point x="1114" y="136" type="line"/>
      <point x="1015" y="136" type="line"/>
      <point x="1015" y="1098" type="line"/>
      <point x="847" y="1098" type="line"/>
      <point x="847" y="134" type="line"/>
      <point x="354" y="134" type="line"/>
    </contour>
  </outline>
</glyph>
<glyph name="afii10089" format="1">
  <advance width="1193"/>
  <unicode hex="0447"/>
  <outline>
    <contour>
      <point x="840" y="548" type="curve"/>
      <point x="840" y="0" type="line"/>
      <point x="1008" y="0" type="line"/>
      <point x="1008" y="1098" type="line"/>
      <point x="840" y="1098" type="line"/>
      <point x="840" y="753" type="line"/>
      <point x="806" y="610"/>
      <point x="694" y="538"/>
      <point x="581" y="538" type="curve" smooth="yes"/>
      <point x="415" y="538"/>
      <point x="335" y="622"/>
      <point x="335" y="862" type="curve" smooth="yes"/>
      <point x="335" y="1098" type="line"/>
      <point x="167" y="1098" type="line"/>
      <point x="167" y="844" type="line" smooth="yes"/>
      <point x="167" y="568"/>
      <point x="295" y="395"/>
      <point x="550" y="395" type="curve" smooth="yes"/>
      <point x="678" y="395"/>
      <point x="793" y="450"/>
    </contour>
  </outline>
</glyph>
<glyph name="afii10090" format="1">
  <advance width="1463"/>
  <unicode hex="0448"/>
  <outline>
    <contour>
      <point x="648" y="144" type="line"/>
      <point x="354" y="144" type="line"/>
      <point x="354" y="1098" type="line"/>
      <point x="186" y="1098" type="line"/>
      <point x="186" y="0" type="line"/>
      <point x="1278" y="0" type="line"/>
      <point x="1278" y="1098" type="line"/>
      <point x="1110" y="1098" type="line"/>
      <point x="1110" y="144" type="line"/>
      <point x="816" y="144" type="line"/>
      <point x="816" y="1098" type="line"/>
      <point x="648" y="1098" type="line"/>
    </contour>
  </outline>
</glyph>
<glyph name="afii10091" format="1">
  <advance width="1540"/>
  <unicode hex="0449"/>
  <outline>
    <contour>
      <point x="354" y="1098" type="line"/>
      <point x="186" y="1098" type="line"/>
      <point x="186" y="0" type="line"/>
      <point x="1241" y="0" type="line"/>
      <point x="1241" y="-238" type="line"/>
      <point x="1378" y="-238" type="line"/>
      <point x="1378" y="134" type="line"/>
      <point x="1278" y="134" type="line"/>
      <point x="1278" y="1098" type="line"/>
      <point x="1110" y="1098" type="line"/>
      <point x="1110" y="134" type="line"/>
      <point x="816" y="134" type="line"/>
      <point x="816" y="1098" type="line"/>
      <point x="648" y="1098" type="line"/>
      <point x="648" y="134" type="line"/>
      <point x="354" y="134" type="line"/>
    </contour>
  </outline>
</glyph>
<glyph name="afii10092" format="1">
  <advance width="1367"/>
  <unicode hex="044A"/>
  <outline>
    <contour>
      <point x="547" y="1098" type="line"/>
      <point x="145" y="1098" type="line"/>
      <point x="145" y="956" type="line"/>
      <point x="379" y="956" type="line"/>
      <point x="379" y="0" type="line"/>
      <point x="843" y="0" type="line" smooth="yes"/>
      <point x="1110" y="0"/>
      <point x="1218" y="166"/>
      <point x="1218" y="337" type="curve" smooth="yes"/>
      <point x="1218" y="501"/>
      <point x="1104" y="656"/>
      <point x="837" y="656" type="curve" smooth="yes"/>
      <point x="547" y="656" type="line"/>
    </contour>
    <contour>
      <point x="864" y="134" type="curve" smooth="yes"/>
      <point x="547" y="134" type="line"/>
      <point x="547" y="520" type="line"/>
      <point x="858" y="520" type="line" smooth="yes"/>
      <point x="991" y="520"/>
      <point x="1056" y="421"/>
      <point x="1056" y="337" type="curve" smooth="yes"/>
      <point x="1056" y="245"/>
      <point x="997" y="134"/>
    </contour>
  </outline>
</glyph>
<glyph name="afii10093" format="1">
  <advance width="539"/>
  <unicode hex="044B"/>
  <outline>
    <contour>
      <point x="186" y="0" type="line"/>
      <point x="354" y="0" type="line"/>
      <point x="354" y="1098" type="line"/>
      <point x="186" y="1098" type="line"/>
    </contour>
    <component base="afii10094"/>
  </outline>
</glyph>
<glyph name="afii10094" format="1">
  <advance width="1110"/>
  <unicode hex="044C"/>
  <outline>
    <contour>
      <point x="579" y="698" type="curve" smooth="yes"/>
      <point x="354" y="698" type="line"/>
      <point x="354" y="1098" type="line"/>
      <point x="186" y="1098" type="line"/>
      <point x="186" y="0" type="line"/>
      <point x="586" y="0" type="line" smooth="yes"/>
      <point x="854" y="0"/>
      <point x="958" y="178"/>
      <point x="958" y="358" type="curve" smooth="yes"/>
      <point x="958" y="538"/>
      <point x="847" y="698"/>
    </contour>
    <contour>
      <point x="610" y="134" type="curve" smooth="yes"/>
      <point x="354" y="134" type="line"/>
      <point x="354" y="562" type="line"/>
      <point x="603" y="562" type="line" smooth="yes"/>
      <point x="735" y="562"/>
      <point x="796" y="460"/>
      <point x="796" y="361" type="curve" smooth="yes"/>
      <point x="796" y="262"/>
      <point x="742" y="134"/>
    </contour>
  </outline>
</glyph>
<glyph name="afii10095" format="1">
  <advance width="1185"/>
  <unicode hex="044D"/>
  <outline>
    <contour>
      <point x="487" y="-25" type="curve" smooth="yes"/>
      <point x="843" y="-25"/>
      <point x="1022" y="249"/>
      <point x="1022" y="545" type="curve" smooth="yes"/>
      <point x="1022" y="853"/>
      <point x="849" y="1124"/>
      <point x="484" y="1124" type="curve" smooth="yes"/>
      <point x="366" y="1124"/>
      <point x="239" y="1091"/>
      <point x="161" y="1024" type="curve"/>
      <point x="207" y="902" type="line"/>
      <point x="274" y="945"/>
      <point x="368" y="986"/>
      <point x="476" y="986" type="curve" smooth="yes"/>
      <point x="703" y="986"/>
      <point x="823" y="840"/>
      <point x="845" y="619" type="curve"/>
      <point x="382" y="619" type="line"/>
      <point x="382" y="477" type="line"/>
      <point x="845" y="477" type="line"/>
      <point x="822" y="257"/>
      <point x="685" y="113"/>
      <point x="477" y="113" type="curve" smooth="yes"/>
      <point x="389" y="113"/>
      <point x="300" y="139"/>
      <point x="208" y="195" type="curve"/>
      <point x="162" y="70" type="line"/>
      <point x="230" y="11"/>
      <point x="348" y="-25"/>
    </contour>
  </outline>
</glyph>
<glyph name="afii10096" format="1">
  <advance width="1618"/>
  <unicode hex="044E"/>
  <outline>
    <contour>
      <point x="994" y="-25" type="curve" smooth="yes"/>
      <point x="1323" y="-25"/>
      <point x="1452" y="245"/>
      <point x="1452" y="549" type="curve" smooth="yes"/>
      <point x="1452" y="865"/>
      <point x="1333" y="1124"/>
      <point x="997" y="1124" type="curve" smooth="yes"/>
      <point x="690" y="1124"/>
      <point x="549" y="900"/>
      <point x="529" y="618" type="curve"/>
      <point x="354" y="618" type="line"/>
      <point x="354" y="1098" type="line"/>
      <point x="186" y="1098" type="line"/>
      <point x="186" y="0" type="line"/>
      <point x="354" y="0" type="line"/>
      <point x="354" y="478" type="line"/>
      <point x="529" y="478" type="line"/>
      <point x="548" y="195"/>
      <point x="687" y="-25"/>
    </contour>
    <contour>
      <point x="997" y="113" type="curve" smooth="yes"/>
      <point x="777" y="113"/>
      <point x="700" y="323"/>
      <point x="700" y="544" type="curve" smooth="yes"/>
      <point x="700" y="768"/>
      <point x="778" y="986"/>
      <point x="994" y="986" type="curve" smooth="yes"/>
      <point x="1221" y="986"/>
      <point x="1278" y="780"/>
      <point x="1278" y="547" type="curve" smooth="yes"/>
      <point x="1278" y="323"/>
      <point x="1214" y="113"/>
    </contour>
  </outline>
</glyph>
<glyph name="afii10097" format="1">
  <advance width="1215"/>
  <unicode hex="044F"/>
  <outline>
    <contour>
      <point x="402" y="459" type="curve"/>
      <point x="174" y="0" type="line"/>
      <point x="374" y="0" type="line"/>
      <point x="575" y="439" type="line"/>
      <point x="862" y="439" type="line"/>
      <point x="862" y="0" type="line"/>
      <point x="1030" y="0" type="line"/>
      <point x="1030" y="1098" type="line"/>
      <point x="555" y="1098" type="line" smooth="yes"/>
      <point x="286" y="1098"/>
      <point x="174" y="933"/>
      <point x="174" y="762" type="curve" smooth="yes"/>
      <point x="174" y="634"/>
      <point x="247" y="507"/>
    </contour>
    <contour>
      <point x="544" y="956" type="curve" smooth="yes"/>
      <point x="862" y="956" type="line"/>
      <point x="862" y="579" type="line"/>
      <point x="544" y="579" type="line" smooth="yes"/>
      <point x="411" y="579"/>
      <point x="338" y="678"/>
      <point x="338" y="762" type="curve" smooth="yes"/>
      <point x="338" y="853"/>
      <point x="411" y="956"/>
    </contour>
  </outline>
</glyph>
<glyph name="afii10099" format="1">
  <advance width="1324"/>
  <unicode hex="0452"/>
  <outline>
    <contour>
      <point x="793" y="-141" type="curve" smooth="yes"/>
      <point x="750" y="-141" type="line"/>
      <point x="762" y="-283" type="line"/>
      <point x="833" y="-283" type="line" smooth="yes"/>
      <point x="1130" y="-283"/>
      <point x="1153" y="-148"/>
      <point x="1153" y="158" type="curve" smooth="yes"/>
      <point x="1153" y="445" type="line" smooth="yes"/>
      <point x="1153" y="733"/>
      <point x="1038" y="892"/>
      <point x="781" y="892" type="curve" smooth="yes"/>
      <point x="631" y="892"/>
      <point x="516" y="824"/>
      <point x="428" y="713" type="curve"/>
      <point x="428" y="1098" type="line"/>
      <point x="843" y="1098" type="line"/>
      <point x="843" y="1214" type="line"/>
      <point x="428" y="1214" type="line"/>
      <point x="428" y="1510" type="line"/>
      <point x="260" y="1510" type="line"/>
      <point x="260" y="1214" type="line"/>
      <point x="166" y="1214" type="line"/>
      <point x="166" y="1098" type="line"/>
      <point x="260" y="1098" type="line"/>
      <point x="260" y="0" type="line"/>
      <point x="428" y="0" type="line"/>
      <point x="428" y="495" type="line"/>
      <point x="455" y="599"/>
      <point x="594" y="739"/>
      <point x="765" y="739" type="curve" smooth="yes"/>
      <point x="952" y="739"/>
      <point x="985" y="616"/>
      <point x="985" y="368" type="curve" smooth="yes"/>
      <point x="985" y="104" type="line" smooth="yes"/>
      <point x="985" y="-110"/>
      <point x="965" y="-141"/>
    </contour>
  </outline>
</glyph>
<glyph name="afii10101" format="1">
  <advance width="1184"/>
  <unicode hex="0454"/>
  <outline>
    <contour>
      <point x="697" y="-25" type="curve" smooth="yes"/>
      <point x="836" y="-25"/>
      <point x="954" y="11"/>
      <point x="1022" y="70" type="curve"/>
      <point x="976" y="195" type="line"/>
      <point x="884" y="139"/>
      <point x="795" y="113"/>
      <point x="707" y="113" type="curve" smooth="yes"/>
      <point x="499" y="113"/>
      <point x="362" y="257"/>
      <point x="339" y="477" type="curve"/>
      <point x="802" y="477" type="line"/>
      <point x="802" y="619" type="line"/>
      <point x="339" y="619" type="line"/>
      <point x="361" y="840"/>
      <point x="481" y="986"/>
      <point x="708" y="986" type="curve" smooth="yes"/>
      <point x="816" y="986"/>
      <point x="910" y="945"/>
      <point x="977" y="902" type="curve"/>
      <point x="1023" y="1024" type="line"/>
      <point x="945" y="1091"/>
      <point x="818" y="1124"/>
      <point x="700" y="1124" type="curve" smooth="yes"/>
      <point x="335" y="1124"/>
      <point x="162" y="853"/>
      <point x="162" y="545" type="curve" smooth="yes"/>
      <point x="162" y="249"/>
      <point x="341" y="-25"/>
    </contour>
  </outline>
</glyph>
<glyph name="afii10107" format="1">
  <advance width="1742"/>
  <unicode hex="045A"/>
  <outline>
    <contour>
      <point x="836" y="653" type="line"/>
      <point x="354" y="653" type="line"/>
      <point x="354" y="1098" type="line"/>
      <point x="186" y="1098" type="line"/>
      <point x="186" y="0" type="line"/>
      <point x="354" y="0" type="line"/>
      <point x="354" y="518" type="line"/>
      <point x="836" y="518" type="line"/>
      <point x="836" y="0" type="line"/>
      <point x="1218" y="0" type="line" smooth="yes"/>
      <point x="1486" y="0"/>
      <point x="1590" y="178"/>
      <point x="1590" y="358" type="curve" smooth="yes"/>
      <point x="1590" y="538"/>
      <point x="1479" y="698"/>
      <point x="1211" y="698" type="curve" smooth="yes"/>
      <point x="1004" y="698" type="line"/>
      <point x="1004" y="1098" type="line"/>
      <point x="836" y="1098" type="line"/>
    </contour>
    <contour>
      <point x="1242" y="134" type="curve" smooth="yes"/>
      <point x="1004" y="134" type="line"/>
      <point x="1004" y="562" type="line"/>
      <point x="1235" y="562" type="line" smooth="yes"/>
      <point x="1367" y="562"/>
      <point x="1428" y="460"/>
      <point x="1428" y="361" type="curve" smooth="yes"/>
      <point x="1428" y="262"/>
      <point x="1374" y="134"/>
    </contour>
  </outline>
</glyph>
<glyph name="afii10108" format="1">
  <advance width="1323"/>
  <unicode hex="045B"/>
  <outline>
    <contour>
      <point x="260" y="1215" type="line"/>
      <point x="166" y="1215" type="line"/>
      <point x="166" y="1099" type="line"/>
      <point x="260" y="1099" type="line"/>
      <point x="260" y="0" type="line"/>
      <point x="428" y="0" type="line"/>
      <point x="428" y="495" type="line"/>
      <point x="455" y="599"/>
      <point x="594" y="739"/>
      <point x="765" y="739" type="curve" smooth="yes"/>
      <point x="952" y="739"/>
      <point x="985" y="616"/>
      <point x="985" y="368" type="curve" smooth="yes"/>
      <point x="985" y="0" type="line"/>
      <point x="1153" y="0" type="line"/>
      <point x="1153" y="445" type="line" smooth="yes"/>
      <point x="1153" y="733"/>
      <point x="1038" y="892"/>
      <point x="781" y="892" type="curve" smooth="yes"/>
      <point x="631" y="892"/>
      <point x="516" y="824"/>
      <point x="428" y="713" type="curve"/>
      <point x="428" y="1099" type="line"/>
      <point x="843" y="1099" type="line"/>
      <point x="843" y="1215" type="line"/>
      <point x="428" y="1215" type="line"/>
      <point x="428" y="1510" type="line"/>
      <point x="260" y="1510" type="line"/>
    </contour>
  </outline>
</glyph>
<glyph name="afii10193" format="1">
  <advance width="1213"/>
  <unicode hex="045F"/>
  <outline>
    <contour>
      <point x="354" y="1098" type="line"/>
      <point x="186" y="1098" type="line"/>
      <point x="186" y="0" type="line"/>
      <point x="559" y="0" type="line"/>
      <point x="564" y="-278" type="line"/>
      <point x="700" y="-278" type="line"/>
      <point x="707" y="0" type="line"/>
      <point x="1028" y="0" type="line"/>
      <point x="1028" y="1098" type="line"/>
      <point x="860" y="1098" type="line"/>
      <point x="860" y="134" type="line"/>
      <point x="354" y="134" type="line"/>
    </contour>
  </outline>
</glyph>
<glyph name="endash" format="1">
  <advance width="1372"/>
  <unicode hex="2013"/>
  <outline>
    <contour>
      <point x="161" y="527" type="line"/>
      <point x="1208" y="527" type="line"/>
      <point x="1208" y="675" type="line"/>
      <point x="161" y="675" type="line"/>
    </contour>
  </outline>
</glyph>
<glyph name="quoteleft" format="1">
  <advance width="560"/>
  <unicode hex="2018"/>
  <outline>
    <contour>
      <point x="157" y="1102" type="line"/>
      <point x="319" y="1102" type="line"/>
      <point x="410" y="1574" type="line"/>
      <point x="293" y="1574" type="line"/>
    </contour>
  </outline>
</glyph>
<glyph name="quoteright" format="1">
  <advance width="551"/>
  <unicode hex="2019"/>
  <outline>
    <contour>
      <point x="159" y="1102" type="line"/>
      <point x="275" y="1102" type="line"/>
      <point x="409" y="1574" type="line"/>
      <point x="252" y="1574" type="line"/>
    </contour>
  </outline>
</glyph>
<glyph name="quotesinglbase" format="1">
  <advance width="559"/>
  <unicode hex="201A"/>
  <outline>
    <contour>
      <point x="145" y="-256" type="line"/>
      <point x="264" y="-256" type="line"/>
      <point x="398" y="216" type="line"/>
      <point x="237" y="216" type="line"/>
    </contour>
  </outline>
</glyph>
<glyph name="quotedblleft" format="1">
  <advance width="868"/>
  <unicode hex="201C"/>
  <outline>
    <contour>
      <point x="157" y="1102" type="line"/>
      <point x="317" y="1102" type="line"/>
      <point x="411" y="1574" type="line"/>
      <point x="291" y="1574" type="line"/>
    </contour>
    <contour>
      <point x="466" y="1102" type="line"/>
      <point x="628" y="1102" type="line"/>
      <point x="718" y="1574" type="line"/>
      <point x="601" y="1574" type="line"/>
    </contour>
  </outline>
</glyph>
<glyph name="quotedblright" format="1">
  <advance width="841"/>
  <unicode hex="201D"/>
  <outline>
    <contour>
      <point x="159" y="1102" type="line"/>
      <point x="276" y="1102" type="line"/>
      <point x="411" y="1574" type="line"/>
      <point x="252" y="1574" type="line"/>
    </contour>
    <contour>
      <point x="446" y="1102" type="line"/>
      <point x="563" y="1102" type="line"/>
      <point x="700" y="1574" type="line"/>
      <point x="537" y="1574" type="line"/>
    </contour>
  </outline>
</glyph>
<glyph name="quotedblbase" format="1">
  <advance width="875"/>
  <unicode hex="201E"/>
  <outline>
    <contour>
      <point x="146" y="-256" type="line"/>
      <point x="264" y="-256" type="line"/>
      <point x="397" y="216" type="line"/>
      <point x="236" y="216" type="line"/>
    </contour>
    <contour>
      <point x="461" y="-256" type="line"/>
      <point x="579" y="-256" type="line"/>
      <point x="714" y="216" type="line"/>
      <point x="552" y="216" type="line"/>
    </contour>
  </outline>
</glyph>
<glyph name="dagger" format="1">
  <advance width="1004"/>
  <unicode hex="2020"/>
  <outline>
    <contour>
      <point x="430" y="1149" type="line"/>
      <point x="132" y="1149" type="line"/>
      <point x="132" y="1047" type="line"/>
      <point x="430" y="1047" type="line"/>
      <point x="430" y="121" type="line"/>
      <point x="560" y="121" type="line"/>
      <point x="560" y="1047" type="line"/>
      <point x="867" y="1047" type="line"/>
      <point x="867" y="1149" type="line"/>
      <point x="560" y="1149" type="line"/>
      <point x="560" y="1561" type="line"/>
      <point x="430" y="1561" type="line"/>
    </contour>
  </outline>
</glyph>
<glyph name="bullet" format="1">
  <advance width="917"/>
  <unicode hex="2022"/>
  <outline>
    <contour>
      <point x="455" y="415" type="curve" smooth="yes"/>
      <point x="616" y="415"/>
      <point x="754" y="569"/>
      <point x="754" y="753" type="curve" smooth="yes"/>
      <point x="754" y="934"/>
      <point x="620" y="1086"/>
      <point x="459" y="1086" type="curve" smooth="yes"/>
      <point x="301" y="1086"/>
      <point x="160" y="931"/>
      <point x="160" y="747" type="curve" smooth="yes"/>
      <point x="160" y="567"/>
      <point x="289" y="415"/>
    </contour>
  </outline>
</glyph>
